<svg width="570" height="593" viewBox="0 0 570 593" fill="none" xmlns="http://www.w3.org/2000/svg">
<path d="M452.131 315.485C447.29 315.485 443.355 388.051 443.355 388.051C443.355 392.841 447.29 396.75 452.131 396.75C456.972 396.75 460.907 392.867 460.907 388.051C460.907 388.051 456.972 315.485 452.131 315.485Z" fill="#7CC248"/>
<path d="M363.001 291.85C358.807 289.442 318.734 350.358 318.734 350.358C316.3 354.526 317.75 359.834 321.944 362.241C326.137 364.649 331.522 363.225 333.929 359.057C333.929 359.057 367.195 294.257 362.975 291.876L363.001 291.85Z" fill="#7CC248"/>
<path d="M297.74 227.257C295.306 223.089 229.863 256.02 229.863 256.02C225.669 258.427 224.22 263.735 226.653 267.903C229.086 272.071 234.445 273.495 238.639 271.087C238.639 271.087 300.173 231.425 297.74 227.283V227.257Z" fill="#7CC248"/>
<path d="M273.845 139.028C273.845 134.239 200.532 130.329 200.532 130.329C195.691 130.329 191.757 134.213 191.757 139.028C191.757 143.843 195.691 147.727 200.532 147.727C200.532 147.727 273.845 143.843 273.845 139.028Z" fill="#7CC248"/>
<path d="M297.74 50.799C300.173 46.6309 238.639 6.99533 238.639 6.99533C234.445 4.58768 229.061 6.01155 226.653 10.1796C224.22 14.3477 225.669 19.6549 229.863 22.0626C229.863 22.0626 295.332 54.9671 297.74 50.8249V50.799Z" fill="#7CC248"/>
<path d="M541.287 291.848C537.093 294.256 570.333 359.03 570.333 359.03C572.766 363.198 578.125 364.622 582.318 362.214C586.512 359.806 587.962 354.499 585.528 350.331C585.528 350.331 545.455 289.441 541.261 291.822L541.287 291.848Z" fill="#7CC248"/>
<path d="M460.907 424.529C460.907 420.206 457.361 416.711 453.012 416.711C448.663 416.711 445.116 420.206 445.116 424.529C445.116 428.853 448.663 432.348 453.012 432.348C457.361 432.348 460.907 428.853 460.907 424.529Z" fill="#7CC248"/>
<path d="M206.693 289.312C210.473 287.164 211.767 282.374 209.593 278.646C207.418 274.918 202.578 273.624 198.798 275.798C195.018 277.947 193.724 282.737 195.899 286.465C198.073 290.193 202.914 291.487 206.693 289.312Z" fill="#7CC248"/>
<path d="M197.918 3.78578C201.697 5.93455 206.512 4.66602 208.713 0.938051C210.913 -2.78992 209.593 -7.57936 205.813 -9.72812C202.034 -11.8769 197.219 -10.6083 195.019 -6.88035C192.818 -3.15237 194.138 1.63702 197.918 3.78578Z" fill="#7CC248"/>
<path d="M315.498 390.64C317.672 386.912 316.378 382.123 312.598 379.974C308.819 377.825 304.004 379.094 301.804 382.822C299.603 386.55 300.923 391.339 304.703 393.488C308.483 395.637 313.297 394.368 315.498 390.64Z" fill="#7CC248"/>
<path d="M163.669 147.727C168.018 147.727 171.565 144.232 171.565 139.908C171.565 135.585 168.018 132.09 163.669 132.09C159.32 132.09 155.773 135.585 155.773 139.908C155.773 144.232 159.32 147.727 163.669 147.727Z" fill="#7CC248"/>
<path d="M495.752 310.334C491.04 311.473 555.344 585.453 555.344 585.453C556.509 590.113 561.272 592.961 565.984 591.796C570.695 590.657 573.569 585.945 572.404 581.285C572.404 581.285 500.463 309.169 495.752 310.334Z" fill="#7CC248"/>
<path d="M324.481 261.326C321.115 257.857 113.551 449.977 113.551 449.977C110.056 453.291 109.953 458.805 113.318 462.274C116.683 465.743 122.223 465.847 125.744 462.507C125.744 462.507 327.872 264.795 324.506 261.326H324.481Z" fill="#7CC248"/>
<path d="M281.742 89.9956C283.088 85.3874 11.2196 3.50147 11.2196 3.50147C6.55992 2.18114 1.69292 4.82182 0.346781 9.43001C-0.999358 14.0382 1.6931 18.8535 6.35281 20.1997C6.35281 20.1997 280.421 94.6038 281.767 89.9956H281.742Z" fill="#7CC248"/>
<path d="M669.558 344.068C693.608 366.461 713.023 384.868 713.023 384.868C716.492 388.286 716.492 393.852 713.023 397.269C709.554 400.686 703.963 400.686 700.494 397.269C700.494 397.269 681.907 378.034 659.281 354.242C659.022 354.035 658.737 353.854 658.504 353.595C658.504 353.595 554.929 246.467 557.803 243.62C560.676 240.772 668.911 343.291 668.911 343.291C669.144 343.524 669.351 343.809 669.558 344.068Z" fill="#7CC248"/>
<path d="M381.433 427.894C373.874 459.711 367.48 485.548 367.48 485.548C366.211 490.234 361.37 493.004 356.633 491.735C351.895 490.493 349.1 485.677 350.368 480.992C350.368 480.992 357.901 455.439 367.402 424.14C367.454 423.803 367.48 423.493 367.557 423.156C367.557 423.156 409.495 280.794 413.43 281.83C417.365 282.865 381.769 426.91 381.769 426.91C381.692 427.247 381.537 427.531 381.407 427.842L381.433 427.894Z" fill="#7CC248"/>
<path d="M307.81 177.293C308.871 181.176 165.041 222.701 165.041 222.701C164.705 222.779 164.368 222.831 164.032 222.857C132.423 232.28 106.588 239.736 106.588 239.736C101.877 240.979 97.0095 238.209 95.7411 233.549C94.4726 228.863 97.2685 224.074 102.006 222.805C102.006 222.805 128.126 216.488 160.278 208.98C160.589 208.851 160.899 208.722 161.21 208.618C161.21 208.618 306.749 173.409 307.81 177.293Z" fill="#7CC248"/>
<path d="M234.73 -66.0103C210.68 -88.404 191.265 -106.811 191.265 -106.811C187.796 -110.228 187.796 -115.794 191.265 -119.212C194.734 -122.629 200.325 -122.629 203.794 -119.212C203.794 -119.212 222.381 -99.9763 245.007 -76.1846C245.266 -75.9775 245.551 -75.7963 245.784 -75.5374C245.784 -75.5374 349.358 31.5901 346.485 34.4378C343.611 37.2856 235.377 -65.2336 235.377 -65.2336C235.144 -65.4666 234.937 -65.7514 234.73 -66.0103Z" fill="#7CC248"/>
</svg>
