<svg width="413" height="825" viewBox="0 0 413 825" fill="none" xmlns="http://www.w3.org/2000/svg">
<path d="M0.0874839 609.921C-3.43998 609.921 -6.30811 752.511 -6.30811 752.511C-6.30811 756.039 -3.43998 758.874 0.0874839 758.874C3.61494 758.874 6.48307 756.039 6.48307 752.511C6.48307 752.511 3.61494 609.921 0.0874839 609.921Z" fill="#7CC248"/>
<path d="M0.0879722 777.039C-3.43949 777.039 -6.30762 817.854 -6.30762 817.854C-6.30762 821.382 -3.43949 824.217 0.0879722 824.217C3.61543 824.217 6.48356 821.382 6.48356 817.854C6.48356 817.854 3.61543 777.039 0.0879722 777.039Z" fill="#7CC248"/>
<path d="M0.0879722 214.296C3.61543 214.296 6.48356 71.7063 6.48356 71.7063C6.48356 68.2116 3.61543 65.3433 0.0879722 65.3433C-3.43949 65.3433 -6.30762 68.1786 -6.30762 71.7063C-6.30762 71.7063 -3.43949 214.296 0.0879722 214.296Z" fill="#7CC248"/>
<path d="M0.0874839 47.1777C3.61494 47.1777 6.48307 6.36246 6.48307 6.36246C6.48307 2.83481 3.61494 -0.000473022 0.0874839 -0.000473022C-3.43998 -0.000473022 -6.30811 2.83481 -6.30811 6.36246C-6.30811 6.36246 -3.43998 47.1777 0.0874839 47.1777Z" fill="#7CC248"/>
<path d="M41.4278 218.615C44.8893 219.341 77.4936 80.4764 77.4936 80.4764C78.2189 77.0476 76.0101 73.6519 72.5816 72.9266C69.1201 72.2013 65.7245 74.3772 64.9992 77.8389C64.9992 77.8389 37.9993 217.89 41.4608 218.615H41.4278Z" fill="#7CC248"/>
<path d="M76.3732 55.1561C79.8347 55.8814 91.1423 16.5499 91.1423 16.5499C91.8676 13.1211 89.6589 9.72523 86.2303 8.99992C82.7688 8.27461 79.3732 10.4507 78.6479 13.9124C78.6479 13.9124 72.9117 54.4308 76.3732 55.1561Z" fill="#7CC248"/>
<path d="M80.9881 231.406C84.2188 232.824 145.142 103.752 145.142 103.752C146.592 100.554 145.142 96.7951 141.911 95.3445C138.68 93.9268 134.922 95.3446 133.472 98.5755C133.472 98.5755 77.7903 229.989 81.0211 231.406H80.9881Z" fill="#7CC248"/>
<path d="M149.329 78.7279C152.56 80.1456 171.845 44.0118 171.845 44.0118C173.296 40.8138 171.845 37.0554 168.614 35.6048C165.384 34.1871 161.626 35.6049 160.175 38.8359C160.175 38.8359 146.098 77.2772 149.329 78.6949V78.7279Z" fill="#7CC248"/>
<path d="M116.988 252.078C119.856 254.155 206.427 140.479 206.427 140.479C208.504 137.644 207.878 133.655 205.01 131.611C202.141 129.534 198.153 130.16 196.076 133.028C196.076 133.028 114.12 250.067 116.988 252.111V252.078Z" fill="#7CC248"/>
<path d="M215.757 116.873C218.625 118.95 245.031 87.5966 245.031 87.5966C247.108 84.7613 246.482 80.7721 243.614 78.728C240.746 76.651 236.757 77.3104 234.68 80.1457C234.68 80.1457 212.889 114.829 215.724 116.906L215.757 116.873Z" fill="#7CC248"/>
<path d="M147.879 279.738C150.252 282.343 258.681 189.042 258.681 189.042C261.318 186.701 261.516 182.679 259.142 180.074C256.769 177.47 252.747 177.239 250.109 179.612C250.109 179.612 145.505 277.134 147.846 279.738H147.879Z" fill="#7CC248"/>
<path d="M272.757 167.909C275.13 170.513 307.537 145.325 307.537 145.325C310.174 142.984 310.372 138.962 307.998 136.358C305.625 133.753 301.603 133.523 298.965 135.896C298.965 135.896 270.383 165.337 272.757 167.942V167.909Z" fill="#7CC248"/>
<path d="M172.34 313.201C174.12 316.235 299.691 247.429 299.691 247.429C302.757 245.681 303.779 241.791 302.032 238.758C300.252 235.725 296.361 234.67 293.295 236.417C293.295 236.417 170.593 310.168 172.34 313.201Z" fill="#7CC248"/>
<path d="M317.823 229.626C319.603 232.659 356.559 214.724 356.559 214.724C359.625 212.977 360.647 209.087 358.9 206.054C357.119 203.02 353.229 201.965 350.163 203.713C350.163 203.713 316.042 226.593 317.823 229.626Z" fill="#7CC248"/>
<path d="M189.219 350.984C190.307 354.314 327.515 312.971 327.515 312.971C330.878 311.883 332.724 308.289 331.603 304.96C330.515 301.63 326.922 299.784 323.559 300.872C323.559 300.872 188.098 347.654 189.219 350.984Z" fill="#7CC248"/>
<path d="M349.042 299.322C350.13 302.652 390.053 292.761 390.053 292.761C393.415 291.673 395.262 288.079 394.141 284.75C393.053 281.42 389.459 279.573 386.097 280.661C386.097 280.661 347.954 295.992 349.042 299.322Z" fill="#7CC248"/>
<path d="M197.889 391.437C198.252 394.932 341.13 382.865 341.13 382.865C344.625 382.503 347.196 379.371 346.834 375.876C346.471 372.381 343.306 369.843 339.812 370.205C339.812 370.205 197.56 387.942 197.922 391.437H197.889Z" fill="#7CC248"/>
<path d="M364.965 373.964C365.327 377.459 406.437 376.008 406.437 376.008C409.932 375.645 412.503 372.513 412.14 369.019C411.778 365.524 408.613 362.986 405.119 363.348C405.119 363.348 364.602 370.437 364.965 373.931V373.964Z" fill="#7CC248"/>
<path d="M197.888 432.78C197.526 436.274 339.778 454.011 339.778 454.011C343.272 454.374 346.437 451.835 346.8 448.341C347.163 444.846 344.624 441.714 341.097 441.351C341.097 441.351 198.251 429.285 197.855 432.78H197.888Z" fill="#7CC248"/>
<path d="M364.965 450.254C364.602 453.748 405.119 460.837 405.119 460.837C408.613 461.199 411.778 458.661 412.14 455.166C412.503 451.671 409.965 448.539 406.437 448.177C406.437 448.177 365.327 446.726 364.965 450.221V450.254Z" fill="#7CC248"/>
<path d="M189.219 473.232C188.131 476.562 323.559 523.345 323.559 523.345C326.922 524.433 330.515 522.586 331.603 519.257C332.691 515.927 330.845 512.333 327.515 511.245C327.515 511.245 190.307 469.903 189.219 473.232Z" fill="#7CC248"/>
<path d="M349.042 524.894C347.954 528.224 386.097 543.555 386.097 543.555C389.459 544.643 393.053 542.796 394.141 539.467C395.229 536.137 393.382 532.543 390.053 531.455C390.053 531.455 350.13 521.565 349.042 524.894Z" fill="#7CC248"/>
<path d="M172.339 511.014C170.559 514.047 293.295 587.798 293.295 587.798C296.361 589.546 300.251 588.524 302.031 585.457C303.812 582.424 302.757 578.534 299.691 576.787C299.691 576.787 174.12 507.948 172.339 511.014Z" fill="#7CC248"/>
<path d="M317.823 594.59C316.042 597.623 350.163 620.503 350.163 620.503C353.229 622.251 357.119 621.229 358.9 618.163C360.68 615.129 359.625 611.239 356.559 609.492C356.559 609.492 319.603 591.557 317.823 594.59Z" fill="#7CC248"/>
<path d="M147.878 544.477C145.504 547.082 250.141 644.603 250.141 644.603C252.778 646.944 256.8 646.746 259.174 644.142C261.548 641.537 261.317 637.515 258.712 635.174C258.712 635.174 150.284 541.873 147.911 544.477H147.878Z" fill="#7CC248"/>
<path d="M272.757 656.308C270.383 658.912 298.965 688.353 298.965 688.353C301.603 690.694 305.625 690.496 307.998 687.892C310.372 685.287 310.141 681.265 307.537 678.924C307.537 678.924 275.13 653.736 272.757 656.341V656.308Z" fill="#7CC248"/>
<path d="M116.989 572.138C114.12 574.215 196.076 691.221 196.076 691.221C198.153 694.056 202.142 694.682 205.01 692.638C207.878 690.561 208.505 686.605 206.428 683.77C206.428 683.77 119.857 570.093 116.989 572.17V572.138Z" fill="#7CC248"/>
<path d="M215.758 707.342C212.89 709.419 234.714 744.102 234.714 744.102C236.791 746.938 240.78 747.564 243.648 745.52C246.516 743.443 247.142 739.487 245.065 736.651C245.065 736.651 218.626 705.298 215.791 707.375L215.758 707.342Z" fill="#7CC248"/>
<path d="M80.9884 592.81C77.7576 594.228 133.439 725.641 133.439 725.641C134.889 728.839 138.648 730.29 141.878 728.872C145.109 727.455 146.56 723.696 145.109 720.465C145.109 720.465 84.1863 591.36 80.9556 592.81H80.9884Z" fill="#7CC248"/>
<path d="M149.329 745.487C146.098 746.905 160.175 785.346 160.175 785.346C161.626 788.544 165.384 789.995 168.614 788.577C171.845 787.16 173.296 783.401 171.845 780.17C171.845 780.17 152.527 744.037 149.329 745.454V745.487Z" fill="#7CC248"/>
<path d="M41.4281 605.602C37.9666 606.328 64.9665 746.379 64.9665 746.379C65.6918 749.807 69.0873 752.016 72.5489 751.258C76.0104 750.533 78.2193 747.137 77.4611 743.708C77.4611 743.708 44.8568 604.844 41.3953 605.569L41.4281 605.602Z" fill="#7CC248"/>
<path d="M76.3732 769.06C72.9117 769.786 78.6479 810.304 78.6479 810.304C79.3732 813.733 82.7688 815.942 86.2303 815.217C89.6918 814.491 91.9006 811.096 91.1423 807.667C91.1423 807.667 79.8018 768.335 76.3732 769.06Z" fill="#7CC248"/>
</svg>
