<svg width="259" height="259" viewBox="0 0 259 259" fill="none" xmlns="http://www.w3.org/2000/svg">
<path d="M129.417 182.36C127.915 182.36 126.673 245.218 126.673 245.218C126.673 246.668 127.889 247.833 129.417 247.833C130.944 247.833 132.161 246.668 132.161 245.218C132.161 245.218 130.944 182.36 129.417 182.36Z" fill="#7CC248"/>
<path d="M132.161 256.298C132.161 254.849 130.944 253.684 129.417 253.684C127.889 253.684 126.673 254.849 126.673 256.298C126.673 257.748 127.889 258.913 129.417 258.913C130.944 258.913 132.161 257.748 132.161 256.298Z" fill="#7CC248"/>
<path d="M96.7731 172.264C95.5564 171.41 55.7418 221.582 55.7418 221.582C54.8616 222.747 55.1204 224.378 56.3371 225.232C57.5538 226.087 59.2624 225.828 60.1684 224.663C60.1684 224.663 97.9898 173.118 96.7731 172.264Z" fill="#7CC248"/>
<path d="M53.3334 233.594C54.2136 232.429 53.9548 230.798 52.7381 229.944C51.5214 229.09 49.8129 229.349 48.9068 230.514C48.0267 231.679 48.2855 233.31 49.5022 234.164C50.7189 235.018 52.4274 234.759 53.3334 233.594Z" fill="#7CC248"/>
<path d="M76.5806 145.806C76.1147 144.434 12.9494 162.763 12.9494 162.763C11.4998 163.203 10.7233 164.679 11.1893 166.051C11.6553 167.423 13.2084 168.174 14.6322 167.734C14.6322 167.734 77.0466 147.204 76.5806 145.832V145.806Z" fill="#7CC248"/>
<path d="M3.57799 171.124C5.02768 170.684 5.80443 169.208 5.33846 167.836C4.87249 166.464 3.31905 165.713 1.89525 166.154C0.445562 166.594 -0.33088 168.069 0.135091 169.441C0.601063 170.813 2.15419 171.564 3.57799 171.124Z" fill="#7CC248"/>
<path d="M76.5806 113.108C77.0466 111.736 14.6322 91.206 14.6322 91.206C13.1825 90.7659 11.6553 91.5166 11.1893 92.8887C10.7233 94.2608 11.4998 95.7365 12.9494 96.1766C12.9494 96.1766 76.1147 114.506 76.5806 113.134V113.108Z" fill="#7CC248"/>
<path d="M1.89525 92.7335C3.34494 93.1736 4.87249 92.4228 5.33846 91.0507C5.80443 89.6786 5.02768 88.203 3.57799 87.7629C2.1283 87.3228 0.601063 88.0736 0.135091 89.4457C-0.33088 90.8178 0.445562 92.2934 1.89525 92.7335Z" fill="#7CC248"/>
<path d="M96.7726 86.6494C97.9893 85.795 60.1679 34.2507 60.1679 34.2507C59.2877 33.0857 57.5792 32.8268 56.3366 33.6811C55.1199 34.5354 54.8352 36.1664 55.7413 37.3314C55.7413 37.3314 95.53 87.5037 96.7726 86.6494Z" fill="#7CC248"/>
<path d="M48.9073 28.3746C49.7874 29.5396 51.496 29.7985 52.7385 28.9441C53.9553 28.0898 54.24 26.4588 53.3339 25.2938C52.4537 24.1288 50.7452 23.8699 49.5026 24.7243C48.2859 25.5786 48.0012 27.2096 48.9073 28.3746Z" fill="#7CC248"/>
<path d="M129.417 76.5273C130.918 76.5273 132.161 13.6696 132.161 13.6696C132.161 12.2198 130.944 11.0548 129.417 11.0548C127.889 11.0548 126.673 12.2198 126.673 13.6696C126.673 13.6696 127.889 76.5273 129.417 76.5273Z" fill="#7CC248"/>
<path d="M126.698 2.61475C126.698 4.06451 127.915 5.22949 129.442 5.22949C130.969 5.22949 132.186 4.06451 132.186 2.61475C132.186 1.16498 130.969 -3.57628e-05 129.442 -3.57628e-05C127.915 -3.57628e-05 126.698 1.16498 126.698 2.61475Z" fill="#7CC248"/>
<path d="M162.086 86.6494C163.303 87.5037 203.118 37.3314 203.118 37.3314C203.998 36.1664 203.739 34.5354 202.522 33.6811C201.306 32.8268 199.597 33.0857 198.691 34.2507C198.691 34.2507 160.87 85.795 162.086 86.6494Z" fill="#7CC248"/>
<path d="M205.525 25.3192C204.645 26.4842 204.904 28.1152 206.12 28.9695C207.337 29.8238 209.046 29.565 209.952 28.4C210.832 27.235 210.573 25.604 209.356 24.7497C208.14 23.8953 206.431 24.1542 205.525 25.3192Z" fill="#7CC248"/>
<path d="M182.278 113.108C182.744 114.48 245.909 96.1512 245.909 96.1512C247.359 95.7111 248.136 94.2354 247.67 92.8633C247.204 91.4912 245.651 90.7404 244.227 91.1805C244.227 91.1805 181.813 111.71 182.278 113.082V113.108Z" fill="#7CC248"/>
<path d="M255.281 87.7893C253.831 88.2294 253.055 89.705 253.521 91.0771C253.987 92.4493 255.54 93.2 256.964 92.7599C258.388 92.3198 259.19 90.8441 258.724 89.472C258.258 88.0999 256.705 87.3492 255.281 87.7893Z" fill="#7CC248"/>
<path d="M182.278 145.805C181.813 147.177 244.227 167.707 244.227 167.707C245.677 168.147 247.204 167.396 247.67 166.024C248.136 164.652 247.359 163.177 245.909 162.737C245.909 162.737 182.744 144.407 182.278 145.779V145.805Z" fill="#7CC248"/>
<path d="M256.964 166.18C255.514 165.74 253.987 166.491 253.521 167.863C253.055 169.235 253.831 170.71 255.281 171.151C256.731 171.591 258.258 170.84 258.724 169.468C259.19 168.096 258.413 166.62 256.964 166.18Z" fill="#7CC248"/>
<path d="M162.086 172.264C160.87 173.118 198.691 224.663 198.691 224.663C199.571 225.828 201.28 226.087 202.522 225.232C203.765 224.378 204.024 222.747 203.118 221.582C203.118 221.582 163.329 171.41 162.086 172.264Z" fill="#7CC248"/>
<path d="M209.952 230.539C209.072 229.374 207.363 229.115 206.121 229.969C204.904 230.824 204.619 232.455 205.525 233.62C206.406 234.785 208.114 235.044 209.357 234.189C210.573 233.335 210.858 231.704 209.952 230.539Z" fill="#7CC248"/>
<path d="M150.049 171.073C148.858 171.616 161.827 200.146 161.827 200.146C162.397 201.285 163.795 201.751 164.986 201.233C166.176 200.689 166.694 199.343 166.125 198.23C166.125 198.23 151.24 170.555 150.049 171.098V171.073Z" fill="#7CC248"/>
<path d="M120.408 174.645C119.113 174.412 111.994 204.754 111.994 204.754C111.761 205.97 112.59 207.161 113.884 207.394C115.178 207.627 116.421 206.825 116.654 205.582C116.654 205.582 121.702 174.852 120.408 174.619V174.645Z" fill="#7CC248"/>
<path d="M94.2357 160.976C93.3296 160.07 68.8404 180.625 68.8404 180.625C67.8825 181.48 67.8307 182.929 68.7367 183.836C69.6428 184.742 71.1441 184.793 72.1019 183.939C72.1019 183.939 95.1417 161.908 94.2357 161.002V160.976Z" fill="#7CC248"/>
<path d="M81.4992 135.268C81.3439 134.026 48.8035 136.951 48.8035 136.951C47.5092 137.107 46.5774 138.246 46.7327 139.488C46.8881 140.731 48.079 141.611 49.3992 141.456C49.3992 141.456 81.6548 136.537 81.4736 135.294L81.4992 135.268Z" fill="#7CC248"/>
<path d="M87.0651 107.335C87.6864 106.248 59.5987 90.4038 59.5987 90.4038C58.4338 89.8084 57.01 90.1967 56.3628 91.3099C55.7415 92.3973 56.1557 93.7953 57.2947 94.3907C57.2947 94.3907 86.4179 108.448 87.0651 107.361V107.335Z" fill="#7CC248"/>
<path d="M108.81 87.8408C110.001 87.2972 97.0308 58.7678 97.0308 58.7678C96.4613 57.6287 95.0635 57.1627 93.8727 57.6805C92.6819 58.2241 92.1643 59.5703 92.7338 60.6836C92.7338 60.6836 107.619 88.3586 108.81 87.8149V87.8408Z" fill="#7CC248"/>
<path d="M138.451 84.2417C139.745 84.4747 146.864 54.1331 146.864 54.1331C147.097 52.9164 146.269 51.7255 144.975 51.4925C143.68 51.2595 142.438 52.062 142.205 53.3047C142.205 53.3047 137.157 84.0346 138.451 84.2676V84.2417Z" fill="#7CC248"/>
<path d="M164.624 97.9377C165.53 98.8438 190.019 78.2882 190.019 78.2882C190.977 77.4339 191.029 75.9841 190.123 75.078C189.217 74.1719 187.715 74.1201 186.757 74.9744C186.757 74.9744 163.718 97.0057 164.624 97.9118V97.9377Z" fill="#7CC248"/>
<path d="M177.36 123.645C177.515 124.887 210.056 121.962 210.056 121.962C211.35 121.807 212.282 120.667 212.127 119.425C211.971 118.182 210.78 117.302 209.46 117.457C209.46 117.457 177.205 122.376 177.386 123.619L177.36 123.645Z" fill="#7CC248"/>
<path d="M171.794 151.579C171.173 152.666 199.261 168.51 199.261 168.51C200.426 169.106 201.85 168.717 202.497 167.604C203.118 166.517 202.704 165.119 201.565 164.523C201.565 164.523 172.442 150.466 171.794 151.553V151.579Z" fill="#7CC248"/>
<path d="M149.712 218.656C148.237 218.967 150.152 232.973 150.152 232.973C150.463 234.371 151.938 235.277 153.414 234.966C154.89 234.656 155.822 233.283 155.511 231.86C155.511 231.86 151.188 218.346 149.712 218.656Z" fill="#7CC248"/>
<path d="M90.7666 212.987C89.3945 212.417 82.3014 224.818 82.3014 224.818C81.6801 226.138 82.3015 227.665 83.6994 228.261C85.0714 228.83 86.7023 228.261 87.2977 226.915C87.2977 226.915 92.1386 213.556 90.7666 212.987Z" fill="#7CC248"/>
<path d="M46.5775 175.396C45.8267 174.153 32.4172 180.237 32.4172 180.237C31.1228 180.962 30.6568 182.567 31.4334 183.81C32.1842 185.053 33.867 185.467 35.1873 184.742C35.1873 184.742 47.3541 176.665 46.5775 175.396Z" fill="#7CC248"/>
<path d="M34.0477 120.253C34.203 118.829 19.6286 116.24 19.6286 116.24C18.1272 116.085 16.7809 117.146 16.6256 118.57C16.4703 119.994 17.5574 121.289 19.0848 121.418C19.0848 121.418 33.9183 121.677 34.0736 120.253H34.0477Z" fill="#7CC248"/>
<path d="M57.942 68.6316C58.9516 67.5702 48.7522 57.3182 48.7522 57.3182C47.6132 56.3604 45.9046 56.4639 44.895 57.5254C43.8854 58.5868 43.9889 60.2437 45.102 61.2016C45.102 61.2016 56.9324 69.719 57.942 68.6316Z" fill="#7CC248"/>
<path d="M109.147 40.2311C110.622 39.9204 108.706 25.9146 108.706 25.9146C108.396 24.5166 106.92 23.6105 105.444 23.9212C103.969 24.2318 103.037 25.6039 103.348 27.0278C103.348 27.0278 107.671 40.5417 109.147 40.2311Z" fill="#7CC248"/>
<path d="M168.093 45.9263C169.465 46.4958 176.558 34.0951 176.558 34.0951C177.179 32.7748 176.558 31.2474 175.16 30.6519C173.788 30.0824 172.157 30.6519 171.561 31.9981C171.561 31.9981 166.721 45.3567 168.093 45.9263Z" fill="#7CC248"/>
<path d="M212.282 83.5172C213.032 84.7598 226.442 78.676 226.442 78.676C227.737 77.9511 228.202 76.346 227.426 75.1034C226.649 73.8607 224.992 73.4465 223.672 74.1714C223.672 74.1714 211.505 82.2486 212.282 83.5172Z" fill="#7CC248"/>
<path d="M224.812 138.661C224.656 140.085 239.231 142.673 239.231 142.673C240.732 142.829 242.078 141.767 242.234 140.343C242.389 138.92 241.302 137.625 239.774 137.496C239.774 137.496 224.941 137.237 224.786 138.661H224.812Z" fill="#7CC248"/>
<path d="M200.917 190.282C199.908 191.344 210.108 201.596 210.108 201.596C211.247 202.554 212.955 202.45 213.965 201.389C214.974 200.327 214.871 198.67 213.758 197.712C213.758 197.712 201.927 189.195 200.917 190.282Z" fill="#7CC248"/>
</svg>
