<svg width="93" height="203" viewBox="0 0 93 203" fill="none" xmlns="http://www.w3.org/2000/svg">
<g id="Frame 22">
<g id="Group" opacity="0.2">
<path id="Vector" d="M77.7159 142.556L73.4692 142.55C71.1752 142.55 69.2916 143.855 69.289 145.461L69.2593 164.864C69.2568 166.47 71.1398 167.792 73.4338 167.792L77.6806 167.798C79.9746 167.799 81.8582 166.494 81.8607 164.888L81.8905 145.485C81.893 143.879 80.01 142.557 77.7159 142.556Z" fill="black"/>
<path id="Vector_2" d="M13.2104 45.5388L17.8261 45.5457C20.3226 45.5468 22.3691 44.1255 22.3657 42.3807L22.3817 33.338L22.4316 33.3417L22.4258 35.4608L24.7337 35.4643L25.4688 36.1093L24.0154 36.1038L23.9521 43.204C23.9465 44.9903 21.8549 46.4524 19.3001 46.453L16.5873 46.4482L16.5089 98.0304L16.545 98.0311C16.5262 98.3165 16.5159 98.5964 16.511 98.8848C16.5034 102.408 17.8959 105.649 20.2128 108.202C20.289 108.284 20.3599 108.357 20.4362 108.439C20.7413 108.766 21.077 109.085 21.4157 109.39C21.4211 109.399 21.4265 109.407 21.4373 109.424C21.4427 109.432 21.4482 109.441 21.4674 109.452C21.8145 109.752 22.1701 110.047 22.5371 110.322C22.6248 110.385 22.7179 110.456 22.8056 110.518C22.8686 110.561 22.9317 110.604 22.981 110.643L27.8557 114.477L29.547 115.815C29.547 115.815 29.547 115.815 29.5525 115.824L38.1799 122.595L38.8576 141.508L36.9678 143.174C36.6477 142.916 36.4176 142.743 36.3978 142.767L29.0472 149.235C29.0472 149.235 29.2099 149.451 29.5102 149.734L27.139 151.815L25.6134 151.809L25.612 152.38L25.0045 152.378L25.0003 153.759L24.9504 153.756L24.9626 145.429C24.9651 143.823 23.082 142.5 20.788 142.5L16.5413 142.494C14.2473 142.494 12.3636 143.798 12.3611 145.404L12.3314 164.807C12.3289 166.413 14.2119 167.735 16.5059 167.736L20.7527 167.742C23.0467 167.742 24.9303 166.438 24.9328 164.832L24.945 156.505L24.9948 156.508L24.9976 158.456L27.1252 158.456L29.4861 160.541C29.1928 160.824 28.998 161.02 29.0227 161.04L34.3236 165.741L39.7106 174.166L40.0158 174.16L40.1754 178.61L36.1312 178.604C33.0019 176.027 29.095 173.996 24.7088 172.736C22.2452 171.787 19.6545 171.288 16.9862 171.278C16.9862 171.278 17.0348 171.354 17.0649 171.382C16.1396 171.311 15.1915 171.278 14.2512 171.276C14.2512 171.276 14.2428 171.281 14.2344 171.286L14.207 188.121L19.394 188.129L22.1291 188.132L40.5112 188.163L40.605 190.789C40.6886 193.195 42.8808 195.091 45.5077 195.092L48.5756 195.095C50.1594 195.1 51.5777 194.403 52.4837 193.333C54.7718 193.029 56.5823 191.295 56.6662 189.15L56.7021 188.188L74.7514 188.219L77.4864 188.222L79.8886 188.224L79.914 175.717L79.9213 171.565L79.9159 171.39C79.9159 171.39 79.9159 171.39 79.9075 171.395C71.2668 171.394 63.4799 174.185 57.997 178.657L57.0843 178.661L57.4483 169.549L59.8563 165.804L65.1735 161.129C65.1735 161.129 65.0107 160.913 64.7104 160.63L67.0817 158.549L69.2093 158.549L69.2162 152.472L68.6088 152.47L68.6102 151.898L67.0847 151.892L64.7237 149.807C65.017 149.523 65.2118 149.327 65.1872 149.307L58.4844 143.367L59.3966 120.379L71.5782 110.737L71.4118 110.737C72.6216 109.901 73.709 108.929 74.621 107.832C74.6775 107.772 74.7202 107.709 74.7683 107.654C74.8873 107.507 75.0063 107.359 75.1199 107.203C75.1825 107.115 75.242 107.041 75.3045 106.953C75.4067 106.817 75.5005 106.685 75.5889 106.545C75.6514 106.457 75.7086 106.361 75.7657 106.265C75.8541 106.125 75.934 105.991 76.014 105.856C76.0711 105.76 76.1283 105.664 76.1854 105.568C76.2684 105.419 76.3429 105.276 76.4205 105.12C76.4692 105.029 76.5179 104.938 76.5582 104.853C76.6677 104.616 76.7771 104.38 76.8782 104.148C76.9101 104.068 76.9389 104.002 76.9624 103.928C77.0292 103.754 77.1044 103.575 77.1573 103.399C77.1952 103.291 77.2247 103.189 77.2542 103.087C77.3011 102.938 77.3565 102.783 77.398 102.626C77.4305 102.51 77.46 102.408 77.4841 102.297C77.5256 102.14 77.5587 101.988 77.5918 101.836C77.6159 101.725 77.64 101.615 77.6641 101.504C77.6918 101.344 77.7195 101.183 77.7472 101.023C77.7629 100.918 77.7785 100.813 77.7888 100.699C77.8141 100.517 77.831 100.339 77.8425 100.154C77.8552 100.062 77.8594 99.9764 77.8667 99.8767C77.8824 99.6051 77.8928 99.3252 77.8947 99.0506C77.8942 98.7537 77.8823 98.4762 77.865 98.1901L77.8844 87.1725L77.9519 46.6025L75.2391 46.5977C72.6843 46.5983 70.5958 45.1229 70.6014 43.3366L70.5619 36.2431L69.0364 36.2364L69.8503 35.5235L72.1581 35.527L72.1629 28.9279L71.5109 28.9307L71.5076 28.3148L68.462 28.3098C68.5316 25.698 68.5865 22.6559 68.5867 19.3994C68.6001 9.70481 68.2629 1.85167 67.8219 1.84966C67.5028 1.85253 67.2306 5.92551 67.0826 11.8203L27.525 11.7563C27.4069 5.85418 27.1437 1.78035 26.8247 1.78321C26.3837 1.78121 26.019 9.63346 25.9973 19.3334C25.991 22.6176 26.0245 25.6861 26.0906 28.3059L23.0449 28.3009L23.0482 28.9167L22.3963 28.9195L22.3957 30.4174L22.3458 30.4137L22.3619 21.3711C22.3669 19.6208 20.3246 18.1989 17.8311 18.184L13.2155 18.1771C10.719 18.176 8.67248 19.5972 8.6759 21.3421L8.637 42.4148C8.63202 44.1651 10.6742 45.587 13.1677 45.6019L13.2104 45.5388ZM35.0563 162.478L31.228 159.089C31.228 159.089 30.9786 159.237 30.6606 159.501L28.4528 157.544L28.4515 156.487L36.1933 156.495L36.1879 162.001L39.6025 162.006L39.6137 162.486L35.0563 162.478ZM26.1652 33.3445L26.3317 33.3446C26.3645 33.8584 26.3925 34.3276 26.4272 34.7332L26.1539 34.4927L26.1514 33.3415L26.1652 33.3445ZM63.0023 159.136L59.1692 162.513L57.7434 162.514L57.7683 162.034L58.1234 162.032L58.1233 160.903L59.3244 160.904L59.3299 156.527L65.7986 156.532L65.7999 157.589L63.5892 159.532C63.269 159.274 63.039 159.101 63.0192 159.126L63.0023 159.136ZM65.7872 153.794L59.3186 153.789L59.3256 148.841L58.2771 148.837L58.3464 147.057L63.0107 151.192C63.0107 151.192 63.2601 151.044 63.5781 150.78L65.7859 152.738L65.7872 153.794ZM68.2692 33.4133L68.4356 33.4134L68.4309 34.4979L68.1635 34.7291C68.1979 34.3386 68.2275 33.9036 68.2608 33.4187L68.2692 33.4133ZM39.1265 148.811L37.4039 148.812L37.404 149.941L36.2029 149.94L36.1958 153.76L28.4539 153.752L28.4526 152.695L30.6634 150.752C30.9835 151.01 31.2135 151.183 31.2334 151.159L38.584 144.691C38.584 144.691 38.4212 144.475 38.121 144.192L38.9264 143.485L39.1151 148.83L39.1265 148.811ZM67.0358 17.1509C67.0405 17.3618 67.0314 17.5697 67.0361 17.7806L27.6227 17.7191C27.618 17.5082 27.6217 17.2919 27.6224 17.0894L67.0358 17.1509Z" fill="black"/>
<path id="Vector_3" d="M76.7489 45.5805L81.3645 45.5874C83.861 45.5885 85.9075 44.1672 85.9041 42.4224L85.943 21.3497C85.948 19.5994 83.9058 18.1775 81.4123 18.1626L76.7966 18.1557C74.3001 18.1546 72.2536 19.5759 72.257 21.3207L72.2182 42.3934C72.2132 44.1437 74.2554 45.5656 76.7489 45.5805Z" fill="black"/>
</g>
<path id="Vector_4" d="M19.3779 115.489L67.9866 115.563L52.9536 127.464L34.5853 127.435L19.3779 115.489Z" fill="url(#paint0_linear_172_290)"/>
<path id="Vector_5" d="M36.1298 179.009L28.6623 167.345L58.3589 167.395L50.8588 179.034L36.1298 179.009Z" fill="url(#paint1_linear_172_290)"/>
<path id="Vector_6" d="M20.4204 161.354L65.4403 161.425L65.4446 158.675L20.4247 158.604L20.4204 161.354Z" fill="url(#paint2_linear_172_290)"/>
<path id="Vector_7" d="M38.4763 174.484L37.3216 175.498L22.0224 161.947L23.1771 160.932L38.4763 174.484Z" fill="url(#paint3_linear_172_290)"/>
<path id="Vector_8" d="M27.6274 163.957L34.956 170.445C34.956 170.445 34.5316 170.932 33.9233 171.465C33.315 171.999 32.8005 172.4 32.762 172.377L25.4335 165.889C25.4335 165.889 25.8579 165.402 26.4662 164.869C27.0745 164.336 27.589 163.934 27.6274 163.957Z" fill="url(#paint4_linear_172_290)" stroke="#58595B" stroke-width="0.03" stroke-linecap="round" stroke-linejoin="round"/>
<path id="Vector_9" d="M37.3668 144.498L38.5254 145.525L23.1792 159.029L22.0206 158.002L37.3668 144.498Z" fill="url(#paint5_linear_172_290)"/>
<path id="Vector_10" d="M25.4526 154.075L32.8032 147.607C32.8032 147.607 33.357 147.988 33.9582 148.517C34.5648 149.055 35.023 149.509 34.9864 149.545L27.6358 156.012C27.6358 156.012 27.082 155.631 26.4808 155.102C25.8742 154.565 25.4159 154.11 25.4526 154.075Z" fill="url(#paint6_linear_172_290)" stroke="#58595B" stroke-width="0.03" stroke-linecap="round" stroke-linejoin="round"/>
<path id="Vector_11" opacity="0.2" d="M22.011 162.734L24.851 162.738L24.8605 156.668L22.0205 156.664L22.011 162.734Z" fill="url(#paint7_linear_172_290)"/>
<path id="Vector_12" d="M21.4094 163.301L24.2494 163.306L24.259 157.236L21.419 157.231L21.4094 163.301Z" fill="url(#paint8_linear_172_290)"/>
<path id="Vector_13" d="M12.9689 147.332L17.2156 147.338C19.5097 147.338 21.3927 148.66 21.3902 150.266L21.3605 169.669C21.3579 171.275 19.4797 172.588 17.1803 172.58L12.9335 172.574C10.6395 172.573 8.75649 171.251 8.75901 169.645L8.78874 150.242C8.79126 148.636 10.6695 147.323 12.9689 147.332Z" fill="url(#paint9_linear_172_290)"/>
<path id="Vector_14" d="M48.5176 174.5L49.6708 175.519L65.0169 162.014L63.8638 160.996L48.5176 174.5Z" fill="url(#paint10_linear_172_290)"/>
<path id="Vector_15" d="M59.4071 164.012L52.0565 170.48C52.0565 170.48 52.4865 170.965 53.0847 171.508C53.6913 172.045 54.2031 172.453 54.2397 172.418L61.5903 165.95C61.5903 165.95 61.1688 165.46 60.5621 164.923C59.9555 164.385 59.4438 163.977 59.4071 164.012Z" fill="url(#paint11_linear_172_290)" stroke="#58595B" stroke-width="0.03" stroke-linecap="round" stroke-linejoin="round"/>
<path id="Vector_16" d="M49.7297 144.521L48.5666 145.542L63.8658 159.093L65.0289 158.073L49.7297 144.521Z" fill="url(#paint12_linear_172_290)"/>
<path id="Vector_17" d="M61.6095 154.136L54.2809 147.648C54.2809 147.648 53.728 148.027 53.1197 148.56C52.5114 149.093 52.0569 149.551 52.087 149.58L59.4155 156.068C59.4155 156.068 59.9685 155.69 60.5768 155.156C61.1851 154.623 61.6395 154.165 61.6095 154.136Z" fill="url(#paint13_linear_172_290)" stroke="#58595B" stroke-width="0.03" stroke-linecap="round" stroke-linejoin="round"/>
<path id="Vector_18" opacity="0.2" d="M62.175 162.801L65.015 162.805L65.0246 156.735L62.1846 156.731L62.175 162.801Z" fill="url(#paint14_linear_172_290)"/>
<path id="Vector_19" d="M62.7791 163.37L65.6191 163.374L65.6287 157.304L62.7887 157.3L62.7791 163.37Z" fill="url(#paint15_linear_172_290)"/>
<path id="Vector_20" d="M74.1207 147.432L69.874 147.426C67.58 147.426 65.6963 148.731 65.6938 150.337L65.6641 169.74C65.6616 171.346 67.5446 172.668 69.8386 172.668L74.0854 172.674C76.3794 172.675 78.263 171.37 78.2655 169.764L78.2953 150.361C78.2978 148.755 76.4147 147.433 74.1207 147.432Z" fill="url(#paint16_linear_172_290)"/>
<path id="Vector_21" d="M71.6589 51.4047C69.1041 51.4054 67.0156 49.93 67.0212 48.1437L66.9764 41.0417L63.8225 41.0349L63.8235 38.8713L23.5779 38.8093L23.577 40.973L20.4232 40.9662L20.3599 48.0663C20.3543 49.8526 18.2627 51.3147 15.7079 51.3154L12.9951 51.3105L12.9167 102.893L74.3071 102.995L74.3855 51.4125L71.6727 51.4077L71.6589 51.4047Z" fill="url(#paint17_linear_172_290)"/>
<path id="Vector_22" opacity="0.2" d="M33.7876 165.745L39.4276 165.754L39.4467 153.684L33.8067 153.675L33.7876 165.745Z" fill="url(#paint18_linear_172_290)"/>
<path id="Vector_23" d="M32.5828 166.874L38.2228 166.883L38.2418 154.813L32.6018 154.804L32.5828 166.874Z" fill="url(#paint19_linear_172_290)"/>
<path id="Vector_24" opacity="0.2" d="M50.0645 165.775L55.7045 165.784L55.7235 153.714L50.0835 153.705L50.0645 165.775Z" fill="url(#paint20_linear_172_290)"/>
<path id="Vector_25" d="M48.8697 166.904L54.5096 166.913L54.5287 154.843L48.8887 154.834L48.8697 166.904Z" fill="url(#paint21_linear_172_290)"/>
<path id="Vector_26" d="M10.6208 192.955L10.6481 176.121C10.6481 176.121 10.6481 176.121 10.6566 176.115C11.6053 176.112 12.5534 176.145 13.4787 176.216C16.1439 176.406 18.7045 176.877 21.1142 177.576C25.5003 178.835 29.4019 180.858 32.5365 183.444L54.3999 183.474C59.8828 179.002 67.6782 176.206 76.3105 176.213C76.3105 176.213 76.3189 176.207 76.3273 176.202L76.3162 193.062L10.6208 192.955Z" fill="white" stroke="#58595B" stroke-width="0.03" stroke-miterlimit="10"/>
<path id="Vector_27" opacity="0.2" d="M13.397 176.126C16.0654 176.136 18.656 176.635 21.1196 177.584C26.6176 179.687 31.4903 183.962 35.2556 189.732L57.119 189.762C62.0288 182.307 68.7905 177.346 76.3435 176.394L76.3362 180.546C74.7996 183.779 73.8924 187.678 73.8899 191.874C73.8916 192.266 73.8932 192.657 73.9086 193.051L18.5429 192.966C18.5551 192.578 18.5673 192.19 18.5656 191.799C18.5757 185.541 16.5912 179.934 13.4757 176.23C13.4541 176.197 13.4186 176.16 13.3886 176.132L13.397 176.126Z" fill="black"/>
<path id="Vector_28" d="M10.6619 176.124C19.305 176.147 27.074 181.378 32.5205 189.73L54.3839 189.76C59.8775 181.418 67.6752 176.22 76.3159 176.221L76.3177 176.28C73.1616 179.97 71.1487 185.589 71.141 191.869C71.1427 192.26 71.1443 192.651 71.1597 193.046L15.8078 192.964C15.82 192.576 15.8322 192.187 15.8306 191.796C15.8388 185.48 13.8219 179.823 10.6619 176.124Z" fill="url(#paint22_linear_172_290)"/>
<path id="Vector_29" opacity="0.2" d="M20.9205 116.447C23.4818 117.845 26.5055 118.648 29.7399 118.651L57.4561 118.69C61.3699 118.696 64.9683 117.526 67.8232 115.549L67.9896 115.55L58.7214 122.88L34.7472 122.839C34.639 122.837 34.5225 122.841 34.4143 122.839C31.3086 122.777 28.4123 121.987 25.9416 120.638L21.5625 117.188C21.3336 116.942 21.1217 116.686 20.9181 116.425L20.9205 116.447Z" fill="black"/>
<path id="Vector_30" d="M17.7414 38.2133L66.6313 38.2905L66.6361 35.3105L17.7461 35.2333L17.7414 38.2133Z" fill="url(#paint23_linear_172_290)"/>
<path id="Vector_31" d="M37.3552 52.4705L36.0935 53.5779L19.4772 38.8637L20.7389 37.7563L37.3552 52.4705Z" fill="url(#paint24_linear_172_290)"/>
<path id="Vector_32" d="M25.573 41.046L33.5328 48.0921C33.5328 48.0921 33.0633 48.6194 32.4153 49.2019C31.7536 49.7815 31.194 50.224 31.1585 50.1874L23.1987 43.1413C23.1987 43.1413 23.6682 42.614 24.3162 42.0315C24.978 41.4519 25.5376 41.0094 25.573 41.046Z" fill="url(#paint25_linear_172_290)" stroke="#58595B" stroke-width="0.03" stroke-linecap="round" stroke-linejoin="round"/>
<path id="Vector_33" d="M41.7629 29.7805L42.2056 31.3027L19.4182 36.4771L18.9808 34.9634L41.7629 29.7805Z" fill="url(#paint26_linear_172_290)"/>
<path id="Vector_34" d="M24.6434 32.9553L35.5624 30.4709C35.5624 30.4709 35.8458 31.0971 36.0791 31.8861C36.3125 32.6751 36.4594 33.3295 36.4065 33.3397L25.4875 35.8241C25.4875 35.8241 25.2042 35.1979 24.9708 34.4089C24.7375 33.6199 24.5905 32.9655 24.6434 32.9553Z" fill="url(#paint27_linear_172_290)" stroke="#58595B" stroke-width="0.03" stroke-linecap="round" stroke-linejoin="round"/>
<path id="Vector_35" opacity="0.2" d="M19.4781 39.7212L22.5581 39.7261L22.5685 33.1261L19.4885 33.1212L19.4781 39.7212Z" fill="url(#paint28_linear_172_290)"/>
<path id="Vector_36" d="M18.8203 40.3394L21.9003 40.3442L21.9107 33.7442L18.8307 33.7394L18.8203 40.3394Z" fill="url(#paint29_linear_172_290)"/>
<path id="Vector_37" d="M9.65461 22.9952L14.2703 23.0021C16.7668 23.0032 18.806 24.4389 18.801 26.1892L18.7621 47.2619C18.7571 49.0121 16.7106 50.4334 14.2225 50.4269L9.60686 50.42C7.11036 50.4189 5.07114 48.9832 5.07613 47.2329L5.11503 26.1602C5.12002 24.41 7.16652 22.9887 9.65461 22.9952Z" fill="url(#paint30_linear_172_290)"/>
<path id="Vector_38" d="M50.0077 52.4266L51.2563 53.5381L67.9261 38.8748L66.672 37.7549L50.0077 52.4266Z" fill="url(#paint31_linear_172_290)"/>
<path id="Vector_39" d="M61.8254 41.0339L53.8467 48.0595C53.8467 48.0595 54.3091 48.5945 54.9649 49.1716C55.6208 49.7487 56.1818 50.1966 56.2184 50.1612L64.1972 43.1355C64.1972 43.1355 63.7348 42.6005 63.0789 42.0234C62.423 41.4463 61.862 40.9984 61.8254 41.0339Z" fill="url(#paint32_linear_172_290)" stroke="#58595B" stroke-width="0.03" stroke-linecap="round" stroke-linejoin="round"/>
<path id="Vector_40" d="M45.6696 29.7199L45.2219 31.2435L67.9975 36.4876L68.4422 34.9779L45.6696 29.7199Z" fill="url(#paint33_linear_172_290)"/>
<path id="Vector_41" d="M62.785 32.9421L51.8766 30.4281C51.8766 30.4281 51.5969 31.0474 51.3586 31.8422C51.1204 32.637 50.9789 33.2865 51.0257 33.3039L61.9341 35.8179C61.9341 35.8179 62.2138 35.1986 62.452 34.4038C62.6903 33.609 62.8318 32.9595 62.785 32.9421Z" fill="url(#paint34_linear_172_290)" stroke="#58595B" stroke-width="0.03" stroke-linecap="round" stroke-linejoin="round"/>
<path id="Vector_42" opacity="0.2" d="M64.8354 39.7222L67.9154 39.7271L67.9258 33.1271L64.8458 33.1222L64.8354 39.7222Z" fill="url(#paint35_linear_172_290)"/>
<path id="Vector_43" d="M65.4807 40.3374L68.5607 40.3423L68.5711 33.7423L65.4911 33.7374L65.4807 40.3374Z" fill="url(#paint36_linear_172_290)"/>
<path id="Vector_44" d="M77.8031 23.0356L73.1875 23.0288C70.691 23.0276 68.6445 24.4489 68.6479 26.1938L68.609 47.2665C68.604 49.0167 70.6463 50.4386 73.1397 50.4536L77.7554 50.4604C80.2519 50.4616 82.2984 49.0403 82.295 47.2954L82.3339 26.2227C82.3389 24.4725 80.2966 23.0506 77.8031 23.0356Z" fill="url(#paint37_linear_172_290)"/>
<path id="Vector_45" d="M12.905 103.744C12.9018 102.795 13.0092 101.87 13.2133 100.967L13.6364 99.4235L37.6756 37.3138L50.0247 37.3338L73.3699 98.9257L74.1557 101.796C74.2689 102.472 74.3209 103.164 74.32 103.866C74.3043 112.076 66.7481 118.723 57.4531 118.703L29.7369 118.664C20.4251 118.655 12.8863 111.968 12.8966 103.749L12.905 103.744Z" fill="url(#paint38_linear_172_290)"/>
<path id="Vector_46" d="M29.7452 118.659L57.4614 118.698C66.7648 118.713 74.3126 112.071 74.3283 103.86C74.3292 103.159 74.2772 102.467 74.164 101.791L73.3782 98.9204L50.0384 37.3368L37.6894 37.3169L13.6501 99.4265L13.227 100.97C13.0313 101.868 12.9293 102.801 12.9187 103.747C12.9084 111.966 20.4418 118.644 29.759 118.662L29.7452 118.659ZM16.6698 98.3548L17.0483 96.9826L38.3566 41.9275L49.3021 41.9456L69.9905 96.5323L70.6875 99.0796C70.7882 99.6805 70.8414 100.3 70.8363 100.921C70.8228 108.191 64.131 114.093 55.8845 114.077L31.3167 114.037C23.0701 114.02 16.3782 108.097 16.3947 100.813C16.3981 99.9673 16.4898 99.1478 16.6644 98.3464L16.6698 98.3548Z" fill="white"/>
<path id="Vector_47" opacity="0.2" d="M38.107 49.219L34.9272 77.7996L37.1507 107.688C37.1325 108.103 37.1143 108.519 37.1291 108.949L40.1955 193.964C40.2798 196.334 42.475 198.216 45.0935 198.222L48.1614 198.225C50.7799 198.231 52.9756 196.357 53.08 193.985L56.4516 108.983C56.4674 108.545 56.461 108.11 56.4323 107.676L58.9097 77.8356L55.5711 49.246L38.107 49.219Z" fill="black"/>
<path id="Vector_48" d="M38.107 49.2188L31.751 78.1279L33.9798 108.357C33.9532 108.778 33.9404 109.203 33.9606 109.641L37.0188 195.624C37.1108 198.025 39.2946 199.926 41.9215 199.927L44.9894 199.929C47.6079 199.935 49.8096 198.034 49.9032 195.644L53.2776 109.667C53.2965 109.215 53.2816 108.785 53.2614 108.346L55.742 78.1585L50.8971 49.2408L38.107 49.2188Z" fill="url(#paint39_linear_172_290)"/>
<path id="Vector_49" opacity="0.2" d="M48.5495 99.2141L54.4649 93.6205L55.742 78.1584L50.8971 49.2407L44.6679 39.1342L38.6885 99.2007L48.5495 99.2141Z" fill="black"/>
<path id="Vector_50" d="M42.7735 39.1267L44.6679 39.1342L48.5495 99.2141L38.6885 99.2007L42.7735 39.1267Z" fill="url(#paint40_linear_172_290)"/>
<path id="Vector_51" opacity="0.2" d="M50.5978 38.8556L54.1788 38.8614L56.7138 45.5289L56.9868 46.2686L57.6242 47.9272L57.9026 48.6754L74.3126 91.974L74.2933 102.992C74.3106 103.278 74.3279 103.564 74.3229 103.852C74.3136 108.612 71.7695 112.849 67.8202 115.563C67.6351 115.682 67.45 115.801 67.2733 115.914C67.0881 116.033 66.903 116.152 66.7071 116.254C66.1356 116.586 65.5478 116.892 64.9246 117.161C64.7263 117.241 64.5418 117.324 64.3297 117.401C64.3128 117.412 64.296 117.422 64.2792 117.433C64.0977 117.502 63.9078 117.577 63.7293 117.632C63.6873 117.659 63.6344 117.669 63.5869 117.688C63.4 117.748 63.2131 117.809 63.0346 117.864C63.0346 117.864 63.0178 117.875 63.0094 117.88C62.8003 117.943 62.5827 118.012 62.3682 118.066C61.9223 118.186 61.4741 118.284 61.012 118.379C60.8143 118.422 60.6196 118.452 60.4111 118.479C60.3498 118.495 60.3053 118.5 60.2386 118.507C60.1107 118.53 59.9688 118.549 59.8355 118.564C59.6852 118.589 59.5296 118.606 59.3686 118.614C59.249 118.631 59.124 118.64 59.0075 118.644C58.8879 118.661 58.7713 118.665 58.6548 118.668C58.5214 118.683 58.391 118.683 58.2522 118.689C57.9968 118.699 57.7415 118.708 57.4807 118.709L56.0633 118.705L56.1867 115.547L56.4432 108.988C56.4674 108.545 56.4526 108.115 56.4294 107.69L56.8124 102.975L58.893 77.8461L56.0062 53.1616L55.6069 49.7457L55.6022 49.7012L55.5543 49.2566L55.0189 49.2557C55.0189 49.2557 54.9643 49.2076 54.9397 49.1878C54.7156 48.987 54.4916 48.7862 54.3252 48.6197C54.309 48.5945 54.276 48.5801 54.2598 48.5548L54.0101 47.907L50.5864 38.8748L50.5978 38.8556Z" fill="url(#paint41_linear_172_290)"/>
<path id="Vector_52" d="M37.3195 121.163C37.3109 124.259 40.1554 126.782 43.6643 126.786C47.1732 126.791 50.0205 124.285 50.0291 121.189C50.0267 121.167 50.0243 121.145 50.0273 121.131C50.0273 121.131 50.0249 121.109 50.0333 121.104L50.0618 104.53C50.0595 103.046 48.7015 101.838 47.0233 101.834L40.4051 101.818C38.7269 101.814 37.3583 103.014 37.3522 104.504L37.3237 121.077C37.3237 121.077 37.3346 121.094 37.3315 121.108C37.3339 121.13 37.3225 121.15 37.3249 121.172L37.3195 121.163Z" fill="#754C29"/>
<path id="Vector_53" opacity="0.53" d="M37.5497 121.17C37.5411 124.265 40.3855 126.788 43.8944 126.793C46.5574 126.794 48.84 125.352 49.7848 123.307C49.1352 123.498 48.437 123.614 47.713 123.616C44.2041 123.611 41.365 121.096 41.3682 117.992C41.3658 117.97 41.3773 117.951 41.3749 117.929C41.3749 117.929 41.3641 117.912 41.3671 117.898L41.3953 101.824L40.6214 101.822C38.9433 101.818 37.5746 103.018 37.5685 104.507L37.5401 121.081C37.5401 121.081 37.5509 121.098 37.5479 121.111C37.5503 121.134 37.5389 121.153 37.5412 121.175L37.5497 121.17Z" fill="#231F20"/>
<path id="Vector_54" d="M23.2023 40.8869L64.1923 40.9517L64.2211 22.6617L23.2312 22.597L23.2023 40.8869Z" fill="url(#paint42_linear_172_290)"/>
<path id="Vector_55" d="M23.2316 21.9704L64.2216 22.0352L64.2301 16.6452L23.2401 16.5804L23.2316 21.9704Z" fill="url(#paint43_linear_172_290)"/>
<path id="Vector_56" d="M22.4309 24.1433C22.4443 14.4487 22.8173 6.59104 23.2583 6.59304C23.6993 6.59504 24.0365 14.4482 24.0231 24.1428C24.0098 33.8373 23.6367 41.695 23.1957 41.693C22.7547 41.691 22.4175 33.8378 22.4309 24.1433Z" fill="url(#paint44_linear_172_290)"/>
<path id="Vector_57" d="M63.4281 24.2097C63.4414 14.5151 63.8145 6.65745 64.2555 6.65944C64.6965 6.66144 65.0337 14.5146 65.0203 24.2092C65.007 33.9038 64.6339 41.7614 64.1929 41.7594C63.7519 41.7574 63.4093 33.8958 63.4281 24.2097Z" fill="url(#paint45_linear_172_290)"/>
<path id="Vector_58" opacity="0.2" d="M36.0157 95.7234L51.8154 95.7497C51.9818 95.7498 52.1225 94.1738 52.1282 92.2211C52.1339 90.2683 52 88.6905 51.8336 88.6904C51.8336 88.6904 51.8168 88.7012 51.8084 88.7066L36.0585 88.6839C36.0585 88.6839 36.0477 88.6671 36.0393 88.6725C35.8728 88.6724 35.7321 90.2484 35.7265 92.2011C35.7208 94.1538 35.8547 95.7317 36.0211 95.7318L36.0157 95.7234Z" fill="black"/>
<path id="Vector_59" d="M35.3965 97.2998L51.1965 97.3247L51.2077 90.2747L35.4077 90.2498L35.3965 97.2998Z" fill="url(#paint46_linear_172_290)"/>
<path id="Vector_60" d="M35.1064 93.7522C35.112 91.7995 35.2527 90.2235 35.4192 90.2236C35.5856 90.2237 35.7195 91.8015 35.7138 93.7543C35.7081 95.707 35.5674 97.2829 35.401 97.2829C35.2346 97.2828 35.1007 95.7049 35.1064 93.7522Z" fill="url(#paint47_linear_172_290)"/>
<path id="Vector_61" d="M50.8976 93.7839C50.9033 91.8312 51.044 90.2553 51.2104 90.2553C51.3769 90.2554 51.5108 91.8333 51.5051 93.786C51.4994 95.7387 51.3587 97.3147 51.1923 97.3146C51.0258 97.3145 50.8919 95.7367 50.8976 93.7839Z" fill="url(#paint48_linear_172_290)"/>
<path id="Vector_62" d="M14.6826 62.5988L27.3286 62.6183C27.5172 62.616 27.6674 62.7572 27.6673 62.9237C27.6672 63.0901 27.5151 63.2234 27.3265 63.2257L14.6806 63.2063C14.4919 63.2086 14.3418 63.0673 14.3418 62.9009C14.3419 62.7344 14.494 62.6011 14.6826 62.5988Z" fill="#231F20"/>
<path id="Vector_63" d="M14.689 61.7389L27.3349 61.7584C27.5236 61.7561 27.6737 61.8974 27.6736 62.0638C27.6736 62.2303 27.5215 62.3636 27.3328 62.3659L14.6869 62.3464C14.4983 62.3487 14.3481 62.2075 14.3482 62.041C14.3483 61.8746 14.5003 61.7413 14.689 61.7389Z" fill="#231F20"/>
<path id="Vector_64" d="M14.6817 60.8761L27.3276 60.8956C27.5163 60.8933 27.6664 61.0346 27.6663 61.201C27.6662 61.3675 27.5142 61.5008 27.3255 61.5031L14.6796 61.4836C14.4909 61.4859 14.3408 61.3447 14.3409 61.1782C14.3409 61.0118 14.493 60.8785 14.6817 60.8761Z" fill="#231F20"/>
<path id="Vector_65" d="M14.688 60.0163L27.3339 60.0358C27.5226 60.0335 27.6727 60.1747 27.6727 60.3412C27.6726 60.5076 27.5205 60.6409 27.3319 60.6432L14.6859 60.6237C14.4973 60.6261 14.3471 60.4848 14.3472 60.3184C14.3473 60.1519 14.4994 60.0186 14.688 60.0163Z" fill="#231F20"/>
<path id="Vector_66" d="M14.689 59.1481L27.3349 59.1676C27.5236 59.1653 27.6737 59.3066 27.6736 59.473C27.6736 59.6394 27.5215 59.7727 27.3328 59.7751L14.6869 59.7556C14.4983 59.7579 14.3481 59.6166 14.3482 59.4502C14.3483 59.2838 14.5003 59.1504 14.689 59.1481Z" fill="#231F20"/>
<path id="Vector_67" d="M14.6953 58.2883L27.3413 58.3078C27.5299 58.3054 27.6801 58.4467 27.68 58.6131C27.6799 58.7796 27.5278 58.9129 27.3392 58.9152L14.6933 58.8957C14.5046 58.898 14.3545 58.7568 14.3545 58.5903C14.3546 58.4239 14.5067 58.2906 14.6953 58.2883Z" fill="#231F20"/>
<path id="Vector_68" d="M14.688 57.4255L27.3339 57.445C27.5226 57.4426 27.6727 57.5839 27.6727 57.7503C27.6726 57.9168 27.5205 58.0501 27.3319 58.0524L14.6859 58.0329C14.4973 58.0352 14.3471 57.894 14.3472 57.7275C14.3473 57.5611 14.4994 57.4278 14.688 57.4255Z" fill="#231F20"/>
<path id="Vector_69" d="M14.6944 56.5656L27.3403 56.5851C27.5289 56.5828 27.6791 56.724 27.679 56.8905C27.6789 57.0569 27.5269 57.1902 27.3382 57.1925L14.6923 57.173C14.5036 57.1754 14.3535 57.0341 14.3536 56.8677C14.3536 56.7012 14.5057 56.5679 14.6944 56.5656Z" fill="#231F20"/>
<path id="Vector_70" d="M14.6954 55.6974L27.3413 55.7169C27.5299 55.7146 27.6801 55.8559 27.68 56.0223C27.6799 56.1887 27.5278 56.3221 27.3392 56.3244L14.6933 56.3049C14.5046 56.3072 14.3545 56.1659 14.3545 55.9995C14.3546 55.8331 14.5067 55.6998 14.6954 55.6974Z" fill="#231F20"/>
<path id="Vector_71" d="M14.6934 54.8429L27.3393 54.8624C27.528 54.8601 27.6781 55.0014 27.678 55.1678C27.678 55.3342 27.5259 55.4676 27.3372 55.4699L14.6913 55.4504C14.5027 55.4527 14.3525 55.3114 14.3526 55.145C14.3527 54.9786 14.5047 54.8453 14.6934 54.8429Z" fill="#231F20"/>
<path id="Vector_72" d="M14.6997 53.9831L27.3456 54.0026C27.5343 54.0002 27.6845 54.1415 27.6844 54.3079C27.6843 54.4744 27.5322 54.6077 27.3436 54.61L14.6977 54.5905C14.509 54.5928 14.3588 54.4516 14.3589 54.2852C14.359 54.1187 14.5111 53.9854 14.6997 53.9831Z" fill="#231F20"/>
<path id="Vector_73" d="M14.7007 53.1149L27.3466 53.1344C27.5353 53.1321 27.6854 53.2734 27.6854 53.4398C27.6853 53.6062 27.5332 53.7395 27.3446 53.7419L14.6986 53.7224C14.51 53.7247 14.3598 53.5834 14.3599 53.417C14.36 53.2506 14.512 53.1172 14.7007 53.1149Z" fill="#231F20"/>
<path id="Vector_74" d="M14.7072 52.2551L27.3531 52.2745C27.5418 52.2722 27.6919 52.4135 27.6918 52.5799C27.6918 52.7464 27.5397 52.8797 27.351 52.882L14.7051 52.8625C14.5164 52.8648 14.3663 52.7236 14.3664 52.5571C14.3664 52.3907 14.5185 52.2574 14.7072 52.2551Z" fill="#231F20"/>
<path id="Vector_75" d="M60.6783 62.6755L73.3242 62.695C73.5128 62.6926 73.663 62.8339 73.6629 63.0003C73.6628 63.1668 73.5108 63.3001 73.3221 63.3024L60.6762 63.2829C60.4875 63.2852 60.3374 63.144 60.3374 62.9775C60.3375 62.8111 60.4896 62.6778 60.6783 62.6755Z" fill="#231F20"/>
<path id="Vector_76" d="M60.6708 61.8127L73.3167 61.8322C73.5054 61.8299 73.6555 61.9711 73.6555 62.1375C73.6554 62.304 73.5033 62.4373 73.3146 62.4396L60.6687 62.4201C60.4801 62.4224 60.3299 62.2812 60.33 62.1147C60.3301 61.9483 60.4821 61.815 60.6708 61.8127Z" fill="#231F20"/>
<path id="Vector_77" d="M60.6773 60.9533L73.3232 60.9728C73.5119 60.9705 73.662 61.1117 73.6619 61.2782C73.6619 61.4446 73.5098 61.5779 73.3211 61.5802L60.6752 61.5607C60.4865 61.5631 60.3364 61.4218 60.3365 61.2554C60.3365 61.0889 60.4886 60.9556 60.6773 60.9533Z" fill="#231F20"/>
<path id="Vector_78" d="M60.6783 60.0846L73.3242 60.1041C73.5128 60.1018 73.663 60.2431 73.6629 60.4095C73.6628 60.5759 73.5108 60.7093 73.3221 60.7116L60.6762 60.6921C60.4875 60.6944 60.3374 60.5531 60.3374 60.3867C60.3375 60.2203 60.4896 60.087 60.6783 60.0846Z" fill="#231F20"/>
<path id="Vector_79" d="M60.6846 59.2253L73.3305 59.2448C73.5192 59.2424 73.6693 59.3837 73.6693 59.5501C73.6692 59.7166 73.5171 59.8499 73.3284 59.8522L60.6825 59.8327C60.4939 59.835 60.3437 59.6938 60.3438 59.5273C60.3439 59.3609 60.4959 59.2276 60.6846 59.2253Z" fill="#231F20"/>
<path id="Vector_80" d="M60.6772 58.362L73.3231 58.3815C73.5117 58.3792 73.6619 58.5204 73.6618 58.6869C73.6617 58.8533 73.5097 58.9866 73.321 58.9889L60.6751 58.9694C60.4864 58.9718 60.3363 58.8305 60.3363 58.6641C60.3364 58.4976 60.4885 58.3643 60.6772 58.362Z" fill="#231F20"/>
<path id="Vector_81" d="M60.6836 57.5026L73.3295 57.5221C73.5182 57.5198 73.6683 57.6611 73.6683 57.8275C73.6682 57.9939 73.5161 58.1272 73.3275 58.1296L60.6816 58.1101C60.4929 58.1124 60.3427 57.9711 60.3428 57.8047C60.3429 57.6383 60.495 57.5049 60.6836 57.5026Z" fill="#231F20"/>
<path id="Vector_82" d="M60.6846 56.6345L73.3305 56.6539C73.5192 56.6516 73.6693 56.7929 73.6692 56.9593C73.6692 57.1258 73.5171 57.2591 73.3284 57.2614L60.6825 57.2419C60.4939 57.2442 60.3437 57.103 60.3438 56.9365C60.3439 56.7701 60.4959 56.6368 60.6846 56.6345Z" fill="#231F20"/>
<path id="Vector_83" d="M60.6825 55.78L73.3284 55.7995C73.5171 55.7971 73.6672 55.9384 73.6672 56.1048C73.6671 56.2713 73.515 56.4046 73.3264 56.4069L60.6805 56.3874C60.4918 56.3897 60.3416 56.2485 60.3417 56.082C60.3418 55.9156 60.4939 55.7823 60.6825 55.78Z" fill="#231F20"/>
<path id="Vector_84" d="M60.6835 54.9118L73.3294 54.9313C73.5181 54.929 73.6682 55.0702 73.6681 55.2367C73.6681 55.4031 73.516 55.5364 73.3273 55.5387L60.6814 55.5192C60.4928 55.5216 60.3426 55.3803 60.3427 55.2139C60.3428 55.0474 60.4948 54.9141 60.6835 54.9118Z" fill="#231F20"/>
<path id="Vector_85" d="M60.69 54.0519L73.3359 54.0714C73.5245 54.0691 73.6747 54.2104 73.6746 54.3768C73.6745 54.5432 73.5225 54.6766 73.3338 54.6789L60.6879 54.6594C60.4992 54.6617 60.3491 54.5204 60.3492 54.354C60.3492 54.1876 60.5013 54.0543 60.69 54.0519Z" fill="#231F20"/>
<path id="Vector_86" d="M60.6879 53.1974L73.3338 53.2169C73.5225 53.2146 73.6726 53.3559 73.6725 53.5223C73.6725 53.6887 73.5204 53.8221 73.3317 53.8244L60.6858 53.8049C60.4972 53.8072 60.347 53.6659 60.3471 53.4995C60.3472 53.3331 60.4992 53.1998 60.6879 53.1974Z" fill="#231F20"/>
<path id="Vector_87" d="M60.6889 52.3293L73.3348 52.3488C73.5235 52.3464 73.6736 52.4877 73.6735 52.6541C73.6734 52.8206 73.5214 52.9539 73.3327 52.9562L60.6868 52.9367C60.4981 52.939 60.348 52.7978 60.3481 52.6313C60.3481 52.4649 60.5002 52.3316 60.6889 52.3293Z" fill="#231F20"/>
<path id="Vector_88" opacity="0.2" d="M68.1089 114.736L74.5517 110.907C76.8133 109.562 78.1722 107.311 78.1828 104.903L78.1847 104.795L70.2781 107.769C69.3959 108.098 68.7869 108.834 68.6892 109.681L68.1143 114.745L68.1089 114.736Z" fill="black"/>
<path id="Vector_89" d="M66.7804 116.183L73.2232 112.355C75.4848 111.009 76.8437 108.758 76.8544 106.35L76.8562 106.242L68.9496 109.216C68.0674 109.545 67.4584 110.281 67.3553 111.12L66.7804 116.183Z" fill="url(#paint49_linear_172_290)"/>
<path id="Vector_90" opacity="0.2" d="M19.0455 114.656L12.6092 110.815C10.3494 109.462 8.99554 107.205 8.99782 104.803L8.99967 104.695L16.9012 107.69C17.7831 108.027 18.392 108.753 18.4884 109.606L19.0563 114.673L19.0455 114.656Z" fill="black"/>
<path id="Vector_91" d="M20.3798 116.105L13.9435 112.264C11.6838 110.91 10.3299 108.654 10.3322 106.252L10.334 106.144L18.2356 109.139C19.1174 109.476 19.7264 110.202 19.8227 111.055L20.3906 116.122L20.3798 116.105Z" fill="url(#paint50_linear_172_290)"/>
<path id="Vector_92" d="M34.9491 137.458L52.1662 137.489L51.7876 147.133L35.2945 147.101L34.9491 137.458Z" fill="url(#paint51_linear_172_290)"/>
<path id="Vector_93" d="M36.1508 170.974L50.8576 171.001L50.479 180.645L36.4878 180.622L36.1508 170.974Z" fill="url(#paint52_linear_172_290)"/>
<path id="Vector_94" d="M39.9609 79.6414L42.2272 46.2518L45.1563 46.2603L47.3116 79.6507L39.9609 79.6414Z" fill="url(#paint53_linear_172_290)"/>
</g>
<defs>
<linearGradient id="paint0_linear_172_290" x1="67.3552" y1="120.368" x2="18.7252" y2="120.291" gradientUnits="userSpaceOnUse">
<stop stop-color="#F5A41D"/>
<stop offset="0.36" stop-color="#FBAB32"/>
<stop offset="0.67" stop-color="#FCC52C"/>
<stop offset="1" stop-color="#F5A41D"/>
</linearGradient>
<linearGradient id="paint1_linear_172_290" x1="57.7136" y1="172.073" x2="28.0236" y2="172.026" gradientUnits="userSpaceOnUse">
<stop stop-color="#F5A41D"/>
<stop offset="0.36" stop-color="#FBAB32"/>
<stop offset="0.67" stop-color="#FCC52C"/>
<stop offset="1" stop-color="#F5A41D"/>
</linearGradient>
<linearGradient id="paint2_linear_172_290" x1="43.9956" y1="158.041" x2="43.9914" y2="160.741" gradientUnits="userSpaceOnUse">
<stop stop-color="#414042"/>
<stop offset="0.36" stop-color="#231F20"/>
<stop offset="0.67" stop-color="#939598"/>
<stop offset="1" stop-color="#414042"/>
</linearGradient>
<linearGradient id="paint3_linear_172_290" x1="28.7362" y1="168.131" x2="30.6838" y2="166.189" gradientUnits="userSpaceOnUse">
<stop stop-color="#414042"/>
<stop offset="0.36" stop-color="#231F20"/>
<stop offset="0.67" stop-color="#939598"/>
<stop offset="1" stop-color="#414042"/>
</linearGradient>
<linearGradient id="paint4_linear_172_290" x1="30.8868" y1="166.075" x2="28.1389" y2="168.842" gradientUnits="userSpaceOnUse">
<stop stop-color="#E6E7E8"/>
<stop offset="0.33" stop-color="#F1F2F2"/>
<stop offset="0.64" stop-color="#A7A9AC"/>
<stop offset="1" stop-color="#D1D3D4"/>
</linearGradient>
<linearGradient id="paint5_linear_172_290" x1="30.4448" y1="152.161" x2="28.4962" y2="150.206" gradientUnits="userSpaceOnUse">
<stop stop-color="#414042"/>
<stop offset="0.36" stop-color="#231F20"/>
<stop offset="0.67" stop-color="#939598"/>
<stop offset="1" stop-color="#414042"/>
</linearGradient>
<linearGradient id="paint6_linear_172_290" x1="28.3364" y1="149.974" x2="31.1745" y2="152.793" gradientUnits="userSpaceOnUse">
<stop stop-color="#E6E7E8"/>
<stop offset="0.33" stop-color="#F1F2F2"/>
<stop offset="0.64" stop-color="#A7A9AC"/>
<stop offset="1" stop-color="#D1D3D4"/>
</linearGradient>
<linearGradient id="paint7_linear_172_290" x1="25.2277" y1="158.489" x2="22.3877" y2="158.484" gradientUnits="userSpaceOnUse">
<stop stop-color="#414042"/>
<stop offset="0.33" stop-color="#939598"/>
<stop offset="0.64" stop-color="#231F20"/>
<stop offset="1" stop-color="#414042"/>
</linearGradient>
<linearGradient id="paint8_linear_172_290" x1="23.8207" y1="156.155" x2="23.8111" y2="162.235" gradientUnits="userSpaceOnUse">
<stop stop-color="#414042"/>
<stop offset="0.33" stop-color="#939598"/>
<stop offset="0.64" stop-color="#231F20"/>
<stop offset="1" stop-color="#414042"/>
</linearGradient>
<linearGradient id="paint9_linear_172_290" x1="14.4564" y1="144.915" x2="14.4156" y2="170.755" gradientUnits="userSpaceOnUse">
<stop stop-color="#414042"/>
<stop offset="0.36" stop-color="#231F20"/>
<stop offset="0.8" stop-color="#939598"/>
<stop offset="1" stop-color="#414042"/>
</linearGradient>
<linearGradient id="paint10_linear_172_290" x1="56.9649" y1="168.235" x2="55.0234" y2="166.288" gradientUnits="userSpaceOnUse">
<stop stop-color="#414042"/>
<stop offset="0.36" stop-color="#231F20"/>
<stop offset="0.67" stop-color="#939598"/>
<stop offset="1" stop-color="#414042"/>
</linearGradient>
<linearGradient id="paint11_linear_172_290" x1="55.0155" y1="165.741" x2="57.7476" y2="168.51" gradientUnits="userSpaceOnUse">
<stop stop-color="#E6E7E8"/>
<stop offset="0.33" stop-color="#F1F2F2"/>
<stop offset="0.64" stop-color="#A7A9AC"/>
<stop offset="1" stop-color="#D1D3D4"/>
</linearGradient>
<linearGradient id="paint12_linear_172_290" x1="55.6965" y1="151.702" x2="57.6512" y2="149.754" gradientUnits="userSpaceOnUse">
<stop stop-color="#414042"/>
<stop offset="0.36" stop-color="#231F20"/>
<stop offset="0.67" stop-color="#939598"/>
<stop offset="1" stop-color="#414042"/>
</linearGradient>
<linearGradient id="paint13_linear_172_290" x1="58.2485" y1="149.698" x2="55.4014" y2="152.508" gradientUnits="userSpaceOnUse">
<stop stop-color="#E6E7E8"/>
<stop offset="0.33" stop-color="#F1F2F2"/>
<stop offset="0.64" stop-color="#A7A9AC"/>
<stop offset="1" stop-color="#D1D3D4"/>
</linearGradient>
<linearGradient id="paint14_linear_172_290" x1="63.2315" y1="158.702" x2="66.0715" y2="158.707" gradientUnits="userSpaceOnUse">
<stop stop-color="#414042"/>
<stop offset="0.33" stop-color="#939598"/>
<stop offset="0.64" stop-color="#231F20"/>
<stop offset="1" stop-color="#414042"/>
</linearGradient>
<linearGradient id="paint15_linear_172_290" x1="64.3906" y1="156.102" x2="64.381" y2="162.182" gradientUnits="userSpaceOnUse">
<stop stop-color="#414042"/>
<stop offset="0.33" stop-color="#939598"/>
<stop offset="0.64" stop-color="#231F20"/>
<stop offset="1" stop-color="#414042"/>
</linearGradient>
<linearGradient id="paint16_linear_172_290" x1="72.3126" y1="145.826" x2="72.2735" y2="170.596" gradientUnits="userSpaceOnUse">
<stop stop-color="#414042"/>
<stop offset="0.36" stop-color="#231F20"/>
<stop offset="0.8" stop-color="#939598"/>
<stop offset="1" stop-color="#414042"/>
</linearGradient>
<linearGradient id="paint17_linear_172_290" x1="71.4051" y1="69.7847" x2="2.65517" y2="69.6762" gradientUnits="userSpaceOnUse">
<stop stop-color="#14232A"/>
<stop offset="0.4" stop-color="#0D0300"/>
<stop offset="0.97" stop-color="#51677F"/>
</linearGradient>
<linearGradient id="paint18_linear_172_290" x1="39.5602" y1="157.774" x2="33.9202" y2="157.765" gradientUnits="userSpaceOnUse">
<stop stop-color="#414042"/>
<stop offset="0.33" stop-color="#939598"/>
<stop offset="0.64" stop-color="#231F20"/>
<stop offset="1" stop-color="#414042"/>
</linearGradient>
<linearGradient id="paint19_linear_172_290" x1="36.6256" y1="165.12" x2="36.6446" y2="153.05" gradientUnits="userSpaceOnUse">
<stop stop-color="#414042"/>
<stop offset="0.33" stop-color="#939598"/>
<stop offset="0.64" stop-color="#231F20"/>
<stop offset="1" stop-color="#414042"/>
</linearGradient>
<linearGradient id="paint20_linear_172_290" x1="55.8371" y1="157.804" x2="50.2071" y2="157.795" gradientUnits="userSpaceOnUse">
<stop stop-color="#414042"/>
<stop offset="0.33" stop-color="#939598"/>
<stop offset="0.64" stop-color="#231F20"/>
<stop offset="1" stop-color="#414042"/>
</linearGradient>
<linearGradient id="paint21_linear_172_290" x1="52.6926" y1="165.06" x2="52.7116" y2="152.99" gradientUnits="userSpaceOnUse">
<stop stop-color="#414042"/>
<stop offset="0.33" stop-color="#939598"/>
<stop offset="0.64" stop-color="#231F20"/>
<stop offset="1" stop-color="#414042"/>
</linearGradient>
<linearGradient id="paint22_linear_172_290" x1="75.6855" y1="183.491" x2="10.0156" y2="183.388" gradientUnits="userSpaceOnUse">
<stop stop-color="#F5A41D"/>
<stop offset="0.36" stop-color="#FBAB32"/>
<stop offset="0.67" stop-color="#FCC52C"/>
<stop offset="1" stop-color="#F5A41D"/>
</linearGradient>
<linearGradient id="paint23_linear_172_290" x1="43.3769" y1="34.7638" x2="43.3723" y2="37.6838" gradientUnits="userSpaceOnUse">
<stop stop-color="#414042"/>
<stop offset="0.36" stop-color="#231F20"/>
<stop offset="0.67" stop-color="#939598"/>
<stop offset="1" stop-color="#414042"/>
</linearGradient>
<linearGradient id="paint24_linear_172_290" x1="26.8224" y1="45.6567" x2="28.94" y2="43.5458" gradientUnits="userSpaceOnUse">
<stop stop-color="#414042"/>
<stop offset="0.36" stop-color="#231F20"/>
<stop offset="0.67" stop-color="#939598"/>
<stop offset="1" stop-color="#414042"/>
</linearGradient>
<linearGradient id="paint25_linear_172_290" x1="29.1714" y1="43.4035" x2="26.1897" y2="46.404" gradientUnits="userSpaceOnUse">
<stop stop-color="#E6E7E8"/>
<stop offset="0.33" stop-color="#F1F2F2"/>
<stop offset="0.64" stop-color="#A7A9AC"/>
<stop offset="1" stop-color="#D1D3D4"/>
</linearGradient>
<linearGradient id="paint26_linear_172_290" x1="27.999" y1="33.5594" x2="27.4476" y2="31.4193" gradientUnits="userSpaceOnUse">
<stop stop-color="#414042"/>
<stop offset="0.36" stop-color="#231F20"/>
<stop offset="0.67" stop-color="#939598"/>
<stop offset="1" stop-color="#414042"/>
</linearGradient>
<linearGradient id="paint27_linear_172_290" x1="28.063" y1="31.0606" x2="29.0134" y2="34.7088" gradientUnits="userSpaceOnUse">
<stop stop-color="#E6E7E8"/>
<stop offset="0.33" stop-color="#F1F2F2"/>
<stop offset="0.64" stop-color="#A7A9AC"/>
<stop offset="1" stop-color="#D1D3D4"/>
</linearGradient>
<linearGradient id="paint28_linear_172_290" x1="22.8152" y1="35.2265" x2="19.7352" y2="35.2216" gradientUnits="userSpaceOnUse">
<stop stop-color="#414042"/>
<stop offset="0.33" stop-color="#939598"/>
<stop offset="0.64" stop-color="#231F20"/>
<stop offset="1" stop-color="#414042"/>
</linearGradient>
<linearGradient id="paint29_linear_172_290" x1="21.4922" y1="32.7636" x2="21.4818" y2="39.3536" gradientUnits="userSpaceOnUse">
<stop stop-color="#414042"/>
<stop offset="0.33" stop-color="#939598"/>
<stop offset="0.64" stop-color="#231F20"/>
<stop offset="1" stop-color="#414042"/>
</linearGradient>
<linearGradient id="paint30_linear_172_290" x1="11.3208" y1="21.8395" x2="11.2782" y2="48.8294" gradientUnits="userSpaceOnUse">
<stop stop-color="#414042"/>
<stop offset="0.36" stop-color="#231F20"/>
<stop offset="0.8" stop-color="#939598"/>
<stop offset="1" stop-color="#414042"/>
</linearGradient>
<linearGradient id="paint31_linear_172_290" x1="59.2312" y1="45.7032" x2="57.1203" y2="43.5856" gradientUnits="userSpaceOnUse">
<stop stop-color="#414042"/>
<stop offset="0.36" stop-color="#231F20"/>
<stop offset="0.67" stop-color="#939598"/>
<stop offset="1" stop-color="#414042"/>
</linearGradient>
<linearGradient id="paint32_linear_172_290" x1="57.0943" y1="42.99" x2="60.0664" y2="45.9999" gradientUnits="userSpaceOnUse">
<stop stop-color="#E6E7E8"/>
<stop offset="0.33" stop-color="#F1F2F2"/>
<stop offset="0.64" stop-color="#A7A9AC"/>
<stop offset="1" stop-color="#D1D3D4"/>
</linearGradient>
<linearGradient id="paint33_linear_172_290" x1="56.9576" y1="36.1192" x2="57.5133" y2="33.9905" gradientUnits="userSpaceOnUse">
<stop stop-color="#414042"/>
<stop offset="0.36" stop-color="#231F20"/>
<stop offset="0.67" stop-color="#939598"/>
<stop offset="1" stop-color="#414042"/>
</linearGradient>
<linearGradient id="paint34_linear_172_290" x1="57.3688" y1="32.806" x2="56.3972" y2="36.4487" gradientUnits="userSpaceOnUse">
<stop stop-color="#E6E7E8"/>
<stop offset="0.33" stop-color="#F1F2F2"/>
<stop offset="0.64" stop-color="#A7A9AC"/>
<stop offset="1" stop-color="#D1D3D4"/>
</linearGradient>
<linearGradient id="paint35_linear_172_290" x1="65.8823" y1="35.3538" x2="68.9623" y2="35.3587" gradientUnits="userSpaceOnUse">
<stop stop-color="#414042"/>
<stop offset="0.33" stop-color="#939598"/>
<stop offset="0.64" stop-color="#231F20"/>
<stop offset="1" stop-color="#414042"/>
</linearGradient>
<linearGradient id="paint36_linear_172_290" x1="67.363" y1="32.5504" x2="67.3526" y2="39.1404" gradientUnits="userSpaceOnUse">
<stop stop-color="#414042"/>
<stop offset="0.33" stop-color="#939598"/>
<stop offset="0.64" stop-color="#231F20"/>
<stop offset="1" stop-color="#414042"/>
</linearGradient>
<linearGradient id="paint37_linear_172_290" x1="75.8156" y1="21.0217" x2="75.7722" y2="48.4917" gradientUnits="userSpaceOnUse">
<stop stop-color="#414042"/>
<stop offset="0.36" stop-color="#231F20"/>
<stop offset="0.8" stop-color="#939598"/>
<stop offset="1" stop-color="#414042"/>
</linearGradient>
<linearGradient id="paint38_linear_172_290" x1="73.7339" y1="76.8881" x2="12.314" y2="76.7911" gradientUnits="userSpaceOnUse">
<stop stop-color="#F5A41D"/>
<stop offset="0.36" stop-color="#FBAB32"/>
<stop offset="0.67" stop-color="#FCC52C"/>
<stop offset="1" stop-color="#F5A41D"/>
</linearGradient>
<linearGradient id="paint39_linear_172_290" x1="55.0303" y1="123.439" x2="31.0404" y2="123.401" gradientUnits="userSpaceOnUse">
<stop stop-color="#F5A41D"/>
<stop offset="0.36" stop-color="#FBAB32"/>
<stop offset="0.67" stop-color="#FCC52C"/>
<stop offset="1" stop-color="#F5A41D"/>
</linearGradient>
<linearGradient id="paint40_linear_172_290" x1="47.9678" y1="68.0177" x2="38.1078" y2="68.0021" gradientUnits="userSpaceOnUse">
<stop stop-color="#F5A41D"/>
<stop offset="0.36" stop-color="#FBAB32"/>
<stop offset="0.67" stop-color="#FCC52C"/>
<stop offset="1" stop-color="#F5A41D"/>
</linearGradient>
<linearGradient id="paint41_linear_172_290" x1="61.7497" y1="117.549" x2="61.8757" y2="37.7195" gradientUnits="userSpaceOnUse">
<stop stop-color="#14232A"/>
<stop offset="0.36" stop-color="#0E110A"/>
<stop offset="0.67" stop-color="#51677F"/>
<stop offset="1" stop-color="#14232A"/>
</linearGradient>
<linearGradient id="paint42_linear_172_290" x1="43.8428" y1="21.5995" x2="43.8134" y2="40.2295" gradientUnits="userSpaceOnUse">
<stop stop-color="#F5A41D"/>
<stop offset="0.33" stop-color="#FCC52C"/>
<stop offset="0.64" stop-color="#FBAB32"/>
<stop offset="1" stop-color="#F5A41D"/>
</linearGradient>
<linearGradient id="paint43_linear_172_290" x1="43.8417" y1="21.953" x2="43.8509" y2="16.113" gradientUnits="userSpaceOnUse">
<stop stop-color="#F5A41D"/>
<stop offset="0.33" stop-color="#FCC52C"/>
<stop offset="0.64" stop-color="#FBAB32"/>
<stop offset="1" stop-color="#F5A41D"/>
</linearGradient>
<linearGradient id="paint44_linear_172_290" x1="22.6161" y1="5.75739" x2="22.5596" y2="41.5173" gradientUnits="userSpaceOnUse">
<stop stop-color="#F5A41D"/>
<stop offset="0.33" stop-color="#FCC52C"/>
<stop offset="0.64" stop-color="#FBAB32"/>
<stop offset="1" stop-color="#F5A41D"/>
</linearGradient>
<linearGradient id="paint45_linear_172_290" x1="63.616" y1="5.82208" x2="63.5596" y2="41.592" gradientUnits="userSpaceOnUse">
<stop stop-color="#F5A41D"/>
<stop offset="0.33" stop-color="#FCC52C"/>
<stop offset="0.64" stop-color="#FBAB32"/>
<stop offset="1" stop-color="#F5A41D"/>
</linearGradient>
<linearGradient id="paint46_linear_172_290" x1="43.4195" y1="89.1324" x2="43.4081" y2="96.3124" gradientUnits="userSpaceOnUse">
<stop stop-color="#F5A41D"/>
<stop offset="0.33" stop-color="#FCC52C"/>
<stop offset="0.64" stop-color="#FBAB32"/>
<stop offset="1" stop-color="#F5A41D"/>
</linearGradient>
<linearGradient id="paint47_linear_172_290" x1="34.7845" y1="89.1366" x2="34.7732" y2="96.3266" gradientUnits="userSpaceOnUse">
<stop stop-color="#F5A41D"/>
<stop offset="0.36" stop-color="#FBAB32"/>
<stop offset="0.67" stop-color="#FCC52C"/>
<stop offset="1" stop-color="#F5A41D"/>
</linearGradient>
<linearGradient id="paint48_linear_172_290" x1="50.5745" y1="89.1616" x2="50.5631" y2="96.3516" gradientUnits="userSpaceOnUse">
<stop stop-color="#F5A41D"/>
<stop offset="0.36" stop-color="#FBAB32"/>
<stop offset="0.67" stop-color="#FCC52C"/>
<stop offset="1" stop-color="#F5A41D"/>
</linearGradient>
<linearGradient id="paint49_linear_172_290" x1="76.0083" y1="109.905" x2="65.9483" y2="109.89" gradientUnits="userSpaceOnUse">
<stop stop-color="#F5A41D"/>
<stop offset="0.36" stop-color="#FBAB32"/>
<stop offset="0.67" stop-color="#FCC52C"/>
<stop offset="1" stop-color="#F5A41D"/>
</linearGradient>
<linearGradient id="paint50_linear_172_290" x1="10.6453" y1="109.248" x2="20.7053" y2="109.264" gradientUnits="userSpaceOnUse">
<stop stop-color="#F5A41D"/>
<stop offset="0.36" stop-color="#FBAB32"/>
<stop offset="0.67" stop-color="#FCC52C"/>
<stop offset="1" stop-color="#F5A41D"/>
</linearGradient>
<linearGradient id="paint51_linear_172_290" x1="51.5324" y1="141.153" x2="34.3124" y2="141.126" gradientUnits="userSpaceOnUse">
<stop stop-color="#F1F2F2"/>
<stop offset="0.36" stop-color="#E6E7E8"/>
<stop offset="0.67" stop-color="white"/>
<stop offset="1" stop-color="#F1F2F2"/>
</linearGradient>
<linearGradient id="paint52_linear_172_290" x1="50.2195" y1="174.671" x2="35.5095" y2="174.648" gradientUnits="userSpaceOnUse">
<stop stop-color="#F1F2F2"/>
<stop offset="0.36" stop-color="#E6E7E8"/>
<stop offset="0.67" stop-color="white"/>
<stop offset="1" stop-color="#F1F2F2"/>
</linearGradient>
<linearGradient id="paint53_linear_172_290" x1="46.7077" y1="61.7956" x2="39.3477" y2="61.784" gradientUnits="userSpaceOnUse">
<stop stop-color="#F1F2F2"/>
<stop offset="0.36" stop-color="#E6E7E8"/>
<stop offset="0.67" stop-color="white"/>
<stop offset="1" stop-color="#F1F2F2"/>
</linearGradient>
</defs>
</svg>
