<svg width="94" height="203" viewBox="0 0 94 203" fill="none" xmlns="http://www.w3.org/2000/svg">
<g id="Isolation_Mode" clip-path="url(#clip0_172_98)">
<g id="Group" opacity="0.2">
<path id="Vector" d="M76.834 143.545L72.5893 143.546C70.2966 143.544 68.4065 144.855 68.4127 146.466L68.3899 165.869C68.3861 167.481 70.2702 168.794 72.5629 168.795L76.8076 168.795C79.1002 168.796 80.9904 167.485 80.9842 165.874L81.007 146.471C81.0108 144.859 79.1266 143.547 76.834 143.545Z" fill="black"/>
<path id="Vector_2" d="M12.2579 46.5792L16.8732 46.581C19.3661 46.5832 21.4109 45.1549 21.4085 43.4131L21.4207 34.3624L21.4706 34.36L21.4705 36.4724L23.7831 36.4731L24.5145 37.1192L23.0628 37.1178L22.9984 44.2188C22.9931 46.0111 20.9098 47.4712 18.3465 47.4624L15.6334 47.4606L15.5817 99.0407L15.6116 99.0393C15.5949 99.3204 15.5782 99.6015 15.5819 99.8917C15.5785 103.416 16.9631 106.654 19.2864 109.207C19.3601 109.284 19.4343 109.37 19.508 109.447C19.8237 109.772 20.1494 110.097 20.4837 110.392C20.4837 110.392 20.5047 110.411 20.5151 110.42C20.5151 110.42 20.536 110.439 20.5465 110.449C20.8913 110.753 21.2451 111.036 21.6188 111.319C21.7021 111.385 21.7953 111.451 21.8885 111.517C21.9508 111.564 22.0126 111.601 22.0644 111.638L26.9511 115.472L28.6459 116.803C28.6459 116.803 28.6459 116.803 28.6559 116.803L37.2856 123.572L37.9707 142.491L36.0871 144.152C35.7642 143.887 35.5464 143.727 35.5169 143.738L28.1748 150.213C28.1748 150.213 28.3355 150.435 28.6389 150.711L26.2747 152.795L24.7531 152.797L24.7496 153.358L24.1489 153.356L24.1442 154.738L24.0943 154.741L24.1005 146.411C24.1043 144.799 22.2202 143.487 19.9275 143.485L15.6828 143.486C13.3902 143.484 11.5 144.795 11.5062 146.406L11.4834 165.809C11.4796 167.421 13.3638 168.733 15.6564 168.735L19.9011 168.734C22.1937 168.736 24.0839 167.425 24.0777 165.814L24.0839 157.484L24.1339 157.482L24.1362 159.434L26.2685 159.433L28.63 161.524C28.3331 161.808 28.1423 162.007 28.1632 162.026L33.4711 166.721L38.8654 175.145L39.165 175.131L39.3259 179.588L35.2914 179.589C32.1562 177.014 28.256 174.986 23.8618 173.733C21.3944 172.788 18.808 172.29 16.1443 172.276C16.1443 172.276 16.2076 172.343 16.229 172.372C15.3048 172.306 14.3621 172.27 13.4108 172.265C13.4108 172.265 13.4108 172.265 13.4008 172.266L13.3863 189.095L18.5724 189.1L21.3054 189.101L39.687 189.122L39.7814 191.75C39.8648 194.149 42.067 196.047 44.6803 196.054L47.7539 196.058C49.3359 196.064 50.7545 195.366 51.6548 194.292C53.9428 193.983 55.7526 192.246 55.8313 190.1L55.8658 189.137L73.9168 189.154L76.6499 189.155L79.0628 189.161L79.0717 176.656L79.0753 172.501L79.0673 172.332C70.4276 172.33 62.6413 175.131 57.1567 179.605L56.2458 179.609L56.6052 170.491L59.0107 166.743L64.3251 162.057C64.3251 162.057 64.1644 161.834 63.861 161.558L66.2251 159.474L68.3575 159.473L68.3602 153.397L67.7595 153.395L67.763 152.834L66.2314 152.837L63.8699 150.746C64.1668 150.461 64.3576 150.262 64.3367 150.243L57.6284 144.304L58.5227 121.316L70.7003 111.669L70.5305 111.677C71.7422 110.839 72.8274 109.867 73.7363 108.762C73.7834 108.7 73.8305 108.638 73.8876 108.575C74.0108 108.429 74.1241 108.284 74.2368 108.128C74.293 108.045 74.3591 107.962 74.4153 107.879C74.509 107.745 74.6028 107.61 74.696 107.466C74.7617 107.372 74.8174 107.28 74.873 107.187C74.9568 107.053 75.0406 106.919 75.1238 106.775C75.1795 106.682 75.2347 106.579 75.2904 106.486C75.3737 106.342 75.4465 106.189 75.5298 106.045C75.5755 105.952 75.6216 105.87 75.6673 105.778C75.7763 105.542 75.8853 105.307 75.9838 105.062C76.0105 104.991 76.0367 104.909 76.0733 104.838C76.1452 104.664 76.2071 104.491 76.2685 104.308C76.3037 104.206 76.339 104.104 76.3637 103.993C76.4166 103.84 76.4594 103.688 76.5023 103.536C76.537 103.424 76.5618 103.313 76.5866 103.202C76.6294 103.049 76.6623 102.898 76.6947 102.736C76.7194 102.625 76.7442 102.513 76.759 102.402C76.7914 102.241 76.8138 102.08 76.8362 101.918C76.851 101.807 76.8662 101.707 76.881 101.596C76.9024 101.415 76.9239 101.233 76.9354 101.053C76.9411 100.962 76.9568 100.871 76.9626 100.781C76.9798 100.51 76.9865 100.229 76.9932 99.9486C76.9895 99.6585 76.9858 99.3684 76.9626 99.0891L76.972 88.0764L77.0143 47.509L74.3012 47.5073C71.7484 47.508 69.6564 46.0352 69.6622 44.2529L69.6167 37.1572L68.0851 37.1596L68.902 36.4401L71.2146 36.4408L71.2227 29.8431L70.572 29.8438L70.5731 29.2331L67.5295 29.227C67.6063 26.6204 67.6424 23.5753 67.6486 20.3214C67.6605 10.63 67.3084 2.76783 66.868 2.76865C66.5474 2.7638 66.2798 6.84101 66.1387 12.7443L26.5826 12.7042C26.4645 6.82317 26.2017 2.75104 25.8811 2.74619C25.4406 2.74701 25.0816 10.6028 25.0697 20.2942C25.0649 23.5781 25.0997 26.6398 25.1741 29.2693L22.1304 29.2631L22.1293 29.8739L21.4786 29.8746L21.4796 31.3763L21.4296 31.3786L21.4418 22.3279C21.4394 20.5861 19.3993 19.1509 16.9064 19.1488L12.2912 19.147C9.7983 19.1448 7.75353 20.5731 7.75588 22.3149L7.73211 43.3896C7.73445 45.1314 9.77458 46.5666 12.2675 46.5687L12.2579 46.5792ZM34.1893 163.493L30.3551 160.111C30.3551 160.111 30.1016 160.253 29.7837 160.518L27.5787 158.56L27.5786 157.499L35.3174 157.503L35.3077 163.01L38.7215 163.008L38.7441 163.488L34.1788 163.484L34.1893 163.493ZM25.205 34.3635L25.3748 34.3555C25.3993 34.8749 25.4415 35.3434 25.4709 35.7525L25.1994 35.5151L25.205 34.3635ZM62.132 160.138L58.2977 163.524L56.876 163.521L56.8932 163.039L57.2438 163.043L57.2408 161.922L58.4423 161.925L58.4455 157.55L64.9129 157.554L64.9131 158.615L62.7026 160.562C62.3797 160.297 62.1619 160.137 62.1324 160.148L62.132 160.138ZM64.9123 154.791L58.4449 154.787L58.4511 149.841L57.3999 149.841L57.466 148.066L62.1362 152.189C62.1362 152.189 62.3898 152.047 62.7076 151.782L64.9126 153.74L64.9128 154.801L64.9123 154.791ZM67.3139 34.4029L67.4837 34.3949L67.4853 35.486L67.226 35.7186C67.2575 35.3266 67.2866 34.8848 67.3239 34.4025L67.3139 34.4029ZM38.2478 149.826L36.5259 149.827L36.5289 150.949L35.3274 150.945L35.3277 154.76L27.5889 154.755L27.5887 153.694L29.7992 151.748C30.122 152.013 30.3498 152.172 30.3693 152.161L37.7115 145.687C37.7115 145.687 37.5508 145.464 37.2474 145.188L38.0448 144.48L38.2378 149.826L38.2478 149.826ZM66.0739 18.1434C66.0738 18.3536 66.0738 18.5639 66.0737 18.7741L26.6679 18.7369C26.6579 18.5271 26.668 18.3164 26.6681 18.1062L66.0839 18.1429L66.0739 18.1434Z" fill="black"/>
<path id="Vector_3" d="M75.7983 46.5655L80.4136 46.5673C82.9065 46.5695 84.9512 45.1412 84.9489 43.3994L84.9727 22.3247C84.9703 20.5829 82.9302 19.1477 80.4373 19.1455L75.8221 19.1437C73.3292 19.1416 71.2844 20.5698 71.2867 22.3117L71.263 43.3863C71.2653 45.1282 73.3054 46.5633 75.7983 46.5655Z" fill="black"/>
</g>
<path id="Vector_4" d="M18.4708 116.514L67.0876 116.565L52.0635 128.469L33.6925 128.457L18.4708 116.514Z" fill="url(#paint0_linear_172_98)" stroke="#231F20" stroke-width="0.01" stroke-miterlimit="10"/>
<path id="Vector_5" d="M35.2723 180.031L27.8027 168.371L57.4872 168.397L49.9994 180.044L35.2723 180.031Z" fill="url(#paint1_linear_172_98)" stroke="#231F20" stroke-width="0.01" stroke-miterlimit="10"/>
<path id="Vector_6" d="M19.5641 159.628L19.5616 162.378L64.5816 162.418L64.5841 159.668L19.5641 159.628Z" fill="url(#paint2_linear_172_98)"/>
<path id="Vector_7" d="M37.6204 175.495L36.4576 176.521L21.1503 162.979L22.3131 161.953L37.6204 175.495Z" fill="url(#paint3_linear_172_98)"/>
<path id="Vector_8" d="M26.7615 164.986L34.0965 171.477C34.0965 171.477 33.6692 171.968 33.0636 172.497C32.4579 173.026 31.9369 173.441 31.9051 173.403L24.5701 166.912C24.5701 166.912 24.9973 166.421 25.603 165.892C26.2087 165.363 26.7296 164.948 26.7615 164.986Z" fill="url(#paint4_linear_172_98)" stroke="#58595B" stroke-width="0.03" stroke-linecap="round" stroke-linejoin="round"/>
<path id="Vector_9" d="M36.492 145.515L37.6418 146.541L22.3133 160.051L21.1539 159.035L36.492 145.515Z" fill="url(#paint5_linear_172_98)"/>
<path id="Vector_10" d="M24.5816 155.098L31.9238 148.624C31.9238 148.624 32.4721 148.998 33.0784 149.54C33.6842 150.072 34.1464 150.531 34.1079 150.562L26.7657 157.037C26.7657 157.037 26.2174 156.662 25.6111 156.12C25.0048 155.578 24.5431 155.13 24.5816 155.098Z" fill="url(#paint6_linear_172_98)" stroke="#58595B" stroke-width="0.03" stroke-linecap="round" stroke-linejoin="round"/>
<path id="Vector_11" opacity="0.2" d="M21.1534 157.677L21.1481 163.747L23.9881 163.749L23.9934 157.679L21.1534 157.677Z" fill="url(#paint7_linear_172_98)"/>
<path id="Vector_12" d="M20.5484 158.241L20.5431 164.311L23.3831 164.314L23.3884 158.244L20.5484 158.241Z" fill="url(#paint8_linear_172_98)"/>
<path id="Vector_13" d="M12.0896 148.371L16.3344 148.37C18.627 148.372 20.5116 149.694 20.5073 151.296L20.4845 170.699C20.4807 172.311 18.6006 173.621 16.3079 173.62L12.0632 173.62C9.77059 173.619 7.88597 172.296 7.89024 170.694L7.91305 151.292C7.91685 149.68 9.797 148.369 12.0896 148.371Z" fill="url(#paint9_linear_172_98)"/>
<path id="Vector_14" d="M47.6624 175.51L48.8217 176.526L64.1502 163.016L63.0004 161.99L47.6624 175.51Z" fill="url(#paint10_linear_172_98)"/>
<path id="Vector_15" d="M58.5383 165.014L51.1962 171.488C51.1962 171.488 51.6199 171.979 52.2257 172.511C52.8315 173.043 53.3513 173.449 53.3803 173.427L60.7224 166.953C60.7224 166.953 60.2988 166.462 59.693 165.93C59.0871 165.399 58.5674 164.993 58.5383 165.014Z" fill="url(#paint11_linear_172_98)" stroke="#58595B" stroke-width="0.03" stroke-linecap="round" stroke-linejoin="round"/>
<path id="Vector_16" d="M48.8465 145.53L47.6832 146.546L63.0004 160.087L64.1537 159.072L48.8465 145.53Z" fill="url(#paint12_linear_172_98)"/>
<path id="Vector_17" d="M60.7336 155.129L53.3985 148.639C53.3985 148.639 52.8457 149.015 52.2401 149.545C51.6344 150.074 51.1757 150.536 51.2071 150.564L58.5421 157.055C58.5421 157.055 59.095 156.678 59.7006 156.149C60.3063 155.62 60.7649 155.158 60.7336 155.129Z" fill="url(#paint13_linear_172_98)" stroke="#58595B" stroke-width="0.03" stroke-linecap="round" stroke-linejoin="round"/>
<path id="Vector_18" opacity="0.2" d="M61.3199 157.718L61.3146 163.788L64.1546 163.79L64.1599 157.72L61.3199 157.718Z" fill="url(#paint14_linear_172_98)"/>
<path id="Vector_19" d="M61.9144 158.289L61.9091 164.359L64.7491 164.362L64.7544 158.292L61.9144 158.289Z" fill="url(#paint15_linear_172_98)"/>
<path id="Vector_20" d="M73.2404 148.421L68.9957 148.421C66.703 148.42 64.8129 149.73 64.819 151.342L64.7962 170.745C64.7924 172.357 66.6766 173.669 68.9692 173.671L73.2139 173.67C75.5066 173.672 77.3967 172.361 77.3905 170.749L77.4133 151.347C77.4172 149.735 75.533 148.422 73.2404 148.421Z" fill="url(#paint16_linear_172_98)"/>
<path id="Vector_21" d="M70.7185 52.4021C68.1657 52.4028 66.0742 50.94 66.0795 49.1478L66.034 42.052L62.8804 42.0511L62.8782 39.8888L22.6314 39.8513L22.6337 42.0136L19.4801 42.0127L19.4157 49.1137C19.4104 50.9059 17.3271 52.366 14.7638 52.3572L12.0507 52.3555L11.999 103.936L73.3804 103.994L73.4321 52.4139L70.719 52.4121L70.7185 52.4021Z" fill="url(#paint17_linear_172_98)"/>
<path id="Vector_22" opacity="0.2" d="M32.9343 154.688L32.9237 166.758L38.5637 166.763L38.5743 154.693L32.9343 154.688Z" fill="url(#paint18_linear_172_98)"/>
<path id="Vector_23" d="M31.725 155.816L31.7144 167.886L37.3544 167.891L37.365 155.821L31.725 155.816Z" fill="url(#paint19_linear_172_98)"/>
<path id="Vector_24" opacity="0.2" d="M49.216 154.705L49.2053 166.775L54.8453 166.78L54.8559 154.71L49.216 154.705Z" fill="url(#paint20_linear_172_98)"/>
<path id="Vector_25" d="M48.016 155.823L48.0054 167.893L53.6454 167.898L53.656 155.828L48.016 155.823Z" fill="url(#paint21_linear_172_98)"/>
<path id="Vector_26" d="M9.77366 193.991L9.7881 177.162C9.7881 177.162 9.7881 177.162 9.79809 177.161C10.7494 177.166 11.6921 177.202 12.6163 177.268C15.2785 177.463 17.843 177.922 20.2587 178.619C24.6429 179.873 28.5431 181.901 31.6883 184.475L53.5535 184.491C59.0281 180.017 66.8244 177.216 75.4641 177.217C75.4641 177.217 75.4641 177.217 75.4741 177.217L75.4597 194.046L9.77366 193.991Z" fill="white" stroke="#58595B" stroke-width="0.03" stroke-miterlimit="10"/>
<path id="Vector_27" opacity="0.2" d="M12.5412 177.162C15.2044 177.166 17.8013 177.674 20.2587 178.619C25.7642 180.721 30.6318 184.996 34.3982 190.754L56.2634 190.77C61.1662 183.31 67.9295 178.355 75.4722 177.387L75.4686 181.542C73.9294 184.769 73.0331 188.675 73.0314 192.87C73.0299 193.261 73.0383 193.651 73.0568 194.04L17.6924 193.987C17.7039 193.596 17.7154 193.205 17.717 192.815C17.7212 186.558 15.7336 180.945 12.6254 177.248C12.5935 177.21 12.5622 177.181 12.5403 177.142L12.5412 177.162Z" fill="black"/>
<path id="Vector_28" d="M9.8077 177.151C18.4384 177.173 26.2242 182.401 31.6747 190.743L53.5399 190.759C59.0313 182.41 66.824 177.206 75.4638 177.207L75.4666 177.267C72.3177 180.96 70.3007 186.572 70.2979 192.859C70.2963 193.25 70.3053 193.65 70.3232 194.029L14.9588 193.976C14.9704 193.585 14.9819 193.194 14.9834 192.804C14.9848 186.487 12.9654 180.836 9.79724 177.142L9.8077 177.151Z" fill="url(#paint22_linear_172_98)" stroke="#231F20" stroke-width="0.01" stroke-miterlimit="10"/>
<path id="Vector_29" opacity="0.2" d="M20.0278 117.471C22.5964 118.861 25.608 119.67 28.8519 119.677L56.5643 119.707C60.469 119.712 64.0671 118.531 66.9373 116.563L67.1071 116.555L57.8441 123.901L33.876 123.874C33.7661 123.879 33.6558 123.874 33.5454 123.869C30.4394 123.816 27.5386 123.022 25.0723 121.677L20.6945 118.231C20.4624 117.981 20.2504 117.731 20.0478 117.47L20.0278 117.471Z" fill="black"/>
<path id="Vector_30" d="M16.8008 36.2637L16.7982 39.2437L65.6882 39.2867L65.6908 36.3067L16.8008 36.2637Z" fill="url(#paint23_linear_172_98)"/>
<path id="Vector_31" d="M36.4114 53.4853L35.1525 54.5961L18.529 39.8955L19.7879 38.7848L36.4114 53.4853Z" fill="url(#paint24_linear_172_98)"/>
<path id="Vector_32" d="M24.6286 42.0694L32.5903 49.1108C32.5903 49.1108 32.125 49.6434 31.4713 50.215C30.8176 50.7865 30.2481 51.2339 30.2167 51.2054L22.2549 44.1639C22.2549 44.1639 22.7203 43.6313 23.374 43.0598C24.0272 42.4782 24.5972 42.0408 24.6286 42.0694Z" fill="url(#paint25_linear_172_98)" stroke="#58595B" stroke-width="0.03" stroke-linecap="round" stroke-linejoin="round"/>
<path id="Vector_33" d="M40.804 30.8024L41.2459 32.3132L18.4664 37.5158L18.024 35.9951L40.804 30.8024Z" fill="url(#paint26_linear_172_98)"/>
<path id="Vector_34" d="M23.6848 33.9751L34.5994 31.4863C34.6493 31.484 34.8793 32.1138 35.1169 32.9034C35.3445 33.6936 35.4956 34.3472 35.4461 34.3595L24.5316 36.8483C24.4816 36.8506 24.2516 36.2208 24.014 35.4311C23.7864 34.641 23.6353 33.9874 23.6848 33.9751Z" fill="url(#paint27_linear_172_98)" stroke="#58595B" stroke-width="0.03" stroke-linecap="round" stroke-linejoin="round"/>
<path id="Vector_35" opacity="0.2" d="M18.5268 34.1358L18.521 40.7358L21.601 40.7386L21.6068 34.1386L18.5268 34.1358Z" fill="url(#paint28_linear_172_98)"/>
<path id="Vector_36" d="M17.8815 34.7447L17.8757 41.3447L20.9557 41.3474L20.9615 34.7474L17.8815 34.7447Z" fill="url(#paint29_linear_172_98)"/>
<path id="Vector_37" d="M8.68803 24.0329L13.3033 24.0347C15.7962 24.0369 17.8363 25.472 17.8386 27.2139L17.8149 48.2885C17.8172 50.0304 15.7724 51.4586 13.2796 51.4565L8.66431 51.4546C6.17142 51.4525 4.13129 50.0173 4.12895 48.2755L4.15272 27.2008C4.15038 25.459 6.19514 24.0307 8.68803 24.0329Z" fill="url(#paint30_linear_172_98)"/>
<path id="Vector_38" d="M49.0628 53.4272L50.3167 54.5392L66.9717 39.8655L65.7177 38.7535L49.0628 53.4272Z" fill="url(#paint31_linear_172_98)"/>
<path id="Vector_39" d="M60.8674 42.0362L52.8911 49.0712C52.8911 49.0712 53.3566 49.5998 54.0147 50.1793C54.6729 50.7588 55.2345 51.2028 55.273 51.1709L63.2494 44.136C63.2494 44.136 62.7839 43.6074 62.1257 43.0279C61.4676 42.4483 60.906 42.0044 60.8674 42.0362Z" fill="url(#paint32_linear_172_98)" stroke="#58595B" stroke-width="0.03" stroke-linecap="round" stroke-linejoin="round"/>
<path id="Vector_40" d="M44.7149 30.7274L44.2663 32.2503L67.0395 37.4896L67.488 35.9667L44.7149 30.7274Z" fill="url(#paint33_linear_172_98)"/>
<path id="Vector_41" d="M61.8259 33.9419L50.9152 31.4348C50.8648 31.4272 50.6344 32.0588 50.4016 32.8507C50.1688 33.6426 50.0197 34.3004 50.0701 34.308L60.9808 36.815C61.0312 36.8227 61.2616 36.1911 61.4944 35.3992C61.7273 34.6073 61.8763 33.9495 61.8259 33.9419Z" fill="url(#paint34_linear_172_98)" stroke="#58595B" stroke-width="0.03" stroke-linecap="round" stroke-linejoin="round"/>
<path id="Vector_42" opacity="0.2" d="M63.8959 34.1158L63.8901 40.7158L66.9701 40.7185L66.976 34.1185L63.8959 34.1158Z" fill="url(#paint35_linear_172_98)"/>
<path id="Vector_43" d="M64.5548 34.7169L64.549 41.3169L67.6289 41.3196L67.6348 34.7196L64.5548 34.7169Z" fill="url(#paint36_linear_172_98)"/>
<path id="Vector_44" d="M76.8437 24.021L72.2284 24.0192C69.7355 24.017 67.6908 25.4453 67.6931 27.1871L67.6694 48.2618C67.6717 50.0037 69.7118 51.4388 72.2047 51.441L76.82 51.4428C79.3128 51.445 81.3576 50.0167 81.3553 48.2749L81.379 27.2002C81.3767 25.4583 79.3366 24.0232 76.8437 24.021Z" fill="url(#paint37_linear_172_98)"/>
<path id="Vector_45" d="M11.9988 104.776C12.0038 103.825 12.1002 102.9 12.2978 101.999L12.7254 100.457L36.725 38.3233L49.0796 38.3393L72.4664 99.9126L73.2528 102.779C73.3649 103.454 73.4279 104.152 73.4211 104.853C73.4091 113.063 65.8653 119.717 56.5644 119.706L28.852 119.676C19.5411 119.667 11.9973 112.996 12.0088 104.776L11.9988 104.776Z" fill="url(#paint38_linear_172_98)" stroke="#231F20" stroke-width="0.01" stroke-miterlimit="10"/>
<path id="Vector_46" d="M28.842 119.677L56.5544 119.707C65.8553 119.717 73.3991 113.063 73.411 104.853C73.4079 104.153 73.3453 103.465 73.2428 102.779L72.4564 99.913L49.0795 38.3393L36.725 38.3233L12.7254 100.457L12.2978 101.999C12.1001 102.9 11.9938 103.826 11.9988 104.776C11.9873 112.996 19.5311 119.667 28.842 119.677ZM15.7585 99.3927L16.1341 98.0234L37.4048 42.9564L48.3576 42.9686L69.0805 97.54L69.7813 100.08C69.8801 100.686 69.9289 101.294 69.9287 101.925C69.9223 109.193 63.2339 115.096 54.9842 115.086L30.4158 115.067C22.1661 115.057 15.4788 109.137 15.4847 101.858C15.485 101.017 15.576 100.192 15.7585 99.3927Z" fill="white"/>
<path id="Vector_47" opacity="0.2" d="M37.1587 50.2362L33.9963 78.8177L36.2416 108.705C36.221 109.116 36.2109 109.537 36.2213 109.967L39.3533 194.974C39.4354 197.343 41.6366 199.221 44.2498 199.228L47.3235 199.232C49.9467 199.238 52.1405 197.362 52.2382 194.985L55.5536 109.983C55.5728 109.542 55.5625 109.112 55.5321 108.683L57.9943 78.8432L54.6289 50.2504L37.1587 50.2362Z" fill="black"/>
<path id="Vector_48" d="M37.1587 50.2361L30.8283 79.1477L33.0698 109.376C33.0497 109.797 33.0296 110.218 33.0504 110.658L36.1788 196.646C36.2623 199.045 38.4645 200.943 41.0777 200.949L44.1513 200.954C46.7746 200.96 48.9674 199.064 49.0637 196.657L52.3728 110.674C52.3915 110.223 52.3811 109.793 52.3503 109.354L54.8059 79.1642L49.9432 50.2418L37.1482 50.2266L37.1587 50.2361Z" fill="url(#paint39_linear_172_98)" stroke="#231F20" stroke-width="0.01" stroke-miterlimit="10"/>
<path id="Vector_49" opacity="0.2" d="M47.6435 100.227L53.5556 94.6309L54.8159 79.164L49.9532 50.2416L43.7089 40.1455L37.7819 100.213L47.6435 100.227Z" fill="black"/>
<path id="Vector_50" d="M41.8168 40.145L43.7089 40.1455L47.6435 100.227L37.7818 100.213L41.8168 40.145Z" fill="url(#paint40_linear_172_98)" stroke="#231F20" stroke-width="0.01" stroke-miterlimit="10"/>
<path id="Vector_51" opacity="0.2" d="M49.6523 39.8642L53.2263 39.8653L55.7644 46.5328L56.0396 47.2706L56.6783 48.9222L56.954 49.67L73.3889 92.9615L73.3795 103.974C73.3932 104.264 73.4064 104.544 73.4101 104.834C73.4054 109.599 70.8628 113.834 66.9164 116.544C66.7418 116.662 66.5573 116.781 66.3727 116.9C66.1881 117.019 66.0035 117.138 65.808 117.237C65.2333 117.575 64.6467 117.873 64.0288 118.142C63.8323 118.222 63.6358 118.301 63.4394 118.38C63.4199 118.391 63.4004 118.402 63.3809 118.413C63.1939 118.482 63.0169 118.55 62.83 118.619C62.781 118.642 62.7415 118.654 62.692 118.666C62.5046 118.725 62.3277 118.793 62.1398 118.842C62.1398 118.842 62.1203 118.853 62.1098 118.844C61.9029 118.913 61.6855 118.974 61.4676 119.024C61.0228 119.145 60.5671 119.247 60.1105 119.329C59.9121 119.368 59.7133 119.398 59.5145 119.427C59.455 119.44 59.4055 119.452 59.3456 119.455C59.2167 119.481 59.0773 119.498 58.9379 119.514C58.7891 119.541 58.6292 119.549 58.4699 119.567C58.3505 119.582 58.2311 119.598 58.1112 119.603C57.9919 119.619 57.872 119.625 57.7521 119.631C57.6223 119.637 57.4824 119.643 57.3526 119.649C57.1028 119.661 56.8431 119.674 56.5825 119.666L55.1608 119.663L55.282 116.514L55.5322 109.955C55.5514 109.513 55.541 109.083 55.5107 108.654L55.8983 103.941L57.9729 78.8144L55.0729 54.1339L54.671 50.7191L54.6687 50.6692L54.6174 50.2211L54.0766 50.2167C54.0766 50.2167 54.0243 50.1691 54.0034 50.15C53.7737 49.9507 53.554 49.7508 53.3857 49.5786C53.3648 49.5596 53.3438 49.5405 53.3229 49.5215L53.072 48.8726L49.6414 39.8447L49.6523 39.8642Z" fill="url(#paint41_linear_172_98)"/>
<path id="Vector_52" d="M36.4189 122.182C36.4156 125.285 39.2573 127.794 42.7715 127.797C46.2856 127.801 49.1302 125.294 49.1335 122.19C49.1326 122.17 49.1316 122.151 49.1307 122.131C49.1302 122.121 49.1297 122.111 49.1293 122.101L49.1455 105.521C49.1455 104.04 47.7869 102.832 46.105 102.832L39.4873 102.825C37.8054 102.824 36.4408 104.03 36.4409 105.512L36.4246 122.091C36.4246 122.091 36.4256 122.111 36.426 122.121C36.427 122.141 36.4279 122.161 36.4289 122.181L36.4189 122.182Z" fill="#754C29"/>
<path id="Vector_53" opacity="0.53" d="M36.659 122.18C36.6558 125.284 39.4975 127.792 43.0116 127.796C45.6748 127.8 47.9588 126.351 48.9031 124.304C48.2519 124.505 47.5565 124.618 46.8254 124.612C43.3113 124.609 40.469 122.09 40.4728 118.996C40.4718 118.977 40.4709 118.957 40.47 118.937C40.4695 118.927 40.469 118.917 40.4685 118.907L40.4785 102.828L39.7074 102.825C38.0255 102.824 36.661 104.03 36.6611 105.512L36.6448 122.091C36.6448 122.091 36.6457 122.111 36.6462 122.121C36.6472 122.141 36.6481 122.161 36.649 122.181L36.659 122.18Z" fill="#231F20"/>
<path id="Vector_54" d="M22.2628 23.6153L22.2467 41.9053L63.2367 41.9414L63.2528 23.6514L22.2628 23.6153Z" fill="url(#paint42_linear_172_98)" stroke="#231F20" stroke-width="0.01" stroke-miterlimit="10"/>
<path id="Vector_55" d="M22.2712 17.5914L22.2665 22.9814L63.2565 23.0175L63.2612 17.6275L22.2712 17.5914Z" fill="url(#paint43_linear_172_98)" stroke="#231F20" stroke-width="0.01" stroke-miterlimit="10"/>
<path id="Vector_56" d="M21.4761 25.1696C21.4879 15.4782 21.847 7.62247 22.2874 7.62165C22.7279 7.62083 23.07 15.4834 23.0681 25.1744C23.0562 34.8658 22.6972 42.7215 22.2567 42.7223C21.8162 42.7232 21.4742 34.8606 21.4761 25.1696Z" fill="url(#paint44_linear_172_98)" stroke="#231F20" stroke-width="0.01" stroke-miterlimit="10"/>
<path id="Vector_57" d="M62.464 25.2121C62.4759 15.5207 62.8349 7.66495 63.2753 7.66413C63.7158 7.66331 64.0579 15.5259 64.056 25.2169C64.0441 34.9082 63.6851 42.764 63.2446 42.7648C62.8042 42.7656 62.4621 34.903 62.464 25.2121Z" fill="url(#paint45_linear_172_98)" stroke="#231F20" stroke-width="0.01" stroke-miterlimit="10"/>
<path id="Vector_58" opacity="0.2" d="M35.1044 96.7354L50.9027 96.7486C51.0725 96.7405 51.2086 95.1724 51.2163 93.2198C51.214 91.2677 51.0794 89.6923 50.9091 89.6904C50.9091 89.6904 50.8891 89.6913 50.8896 89.7013L35.1412 89.6858C35.1412 89.6858 35.1208 89.6767 35.1203 89.6667C34.9505 89.6748 34.8145 91.243 34.8068 93.1955C34.8091 95.1476 34.9437 96.723 35.114 96.7249L35.1044 96.7354Z" fill="black"/>
<path id="Vector_59" d="M34.4983 91.2503L34.4921 98.3003L50.2921 98.3142L50.2983 91.2642L34.4983 91.2503Z" fill="url(#paint46_linear_172_98)" stroke="#231F20" stroke-width="0.01" stroke-miterlimit="10"/>
<path id="Vector_60" d="M34.1908 94.7766C34.1885 92.8245 34.3341 91.2459 34.5043 91.2478C34.6742 91.2398 34.8093 92.8252 34.8115 94.7773C34.8138 96.7293 34.6683 98.308 34.498 98.306C34.3282 98.3141 34.1931 96.7287 34.1908 94.7766Z" fill="url(#paint47_linear_172_98)" stroke="#231F20" stroke-width="0.01" stroke-miterlimit="10"/>
<path id="Vector_61" d="M49.9891 94.7898C49.9869 92.8377 50.1324 91.2591 50.3027 91.261C50.4725 91.253 50.6076 92.8384 50.6099 94.7905C50.6122 96.7425 50.4666 98.3212 50.2963 98.3192C50.1265 98.3273 49.9914 96.7419 49.9891 94.7898Z" fill="url(#paint48_linear_172_98)" stroke="#231F20" stroke-width="0.01" stroke-miterlimit="10"/>
<path id="Vector_62" d="M13.7455 63.628L26.4002 63.6398C26.59 63.6308 26.7469 63.7736 26.7449 63.9439C26.753 64.1137 26.5893 64.2516 26.399 64.2506L13.7443 64.2388C13.5546 64.2477 13.3976 64.105 13.3996 63.9347C13.3915 63.7649 13.5552 63.627 13.7455 63.628Z" fill="#231F20"/>
<path id="Vector_63" d="M13.7449 62.7672L26.3996 62.779C26.5894 62.77 26.7463 62.9127 26.7443 63.083C26.7524 63.2528 26.5887 63.3907 26.3984 63.3897L13.7437 63.3779C13.5539 63.3869 13.397 63.2442 13.399 63.0739C13.3909 62.9041 13.5546 62.7662 13.7449 62.7672Z" fill="#231F20"/>
<path id="Vector_64" d="M13.7541 61.9059L26.4088 61.9177C26.5986 61.9087 26.7556 62.0514 26.7536 62.2217C26.7616 62.3915 26.598 62.5294 26.4077 62.5284L13.753 62.5166C13.5632 62.5256 13.4063 62.3828 13.4082 62.2126C13.4002 62.0427 13.5639 61.9049 13.7541 61.9059Z" fill="#231F20"/>
<path id="Vector_65" d="M13.7534 61.045L26.4081 61.0568C26.5979 61.0478 26.7548 61.1906 26.7529 61.3609C26.7609 61.5307 26.5972 61.6686 26.407 61.6676L13.7523 61.6558C13.5625 61.6647 13.4056 61.522 13.4075 61.3517C13.3995 61.1819 13.5631 61.044 13.7534 61.045Z" fill="#231F20"/>
<path id="Vector_66" d="M13.7527 60.1837L26.4074 60.1955C26.5972 60.1865 26.7541 60.3292 26.7521 60.4995C26.7602 60.6693 26.5965 60.8072 26.4062 60.8062L13.7515 60.7944C13.5618 60.8034 13.4048 60.6607 13.4068 60.4904C13.3987 60.3206 13.5624 60.1827 13.7527 60.1837Z" fill="#231F20"/>
<path id="Vector_67" d="M13.7521 59.3229L26.4068 59.3346C26.5966 59.3257 26.7535 59.4684 26.7515 59.6387C26.7596 59.8085 26.5959 59.9464 26.4056 59.9454L13.7509 59.9336C13.5611 59.9426 13.4042 59.7998 13.4062 59.6295C13.3981 59.4597 13.5618 59.3218 13.7521 59.3229Z" fill="#231F20"/>
<path id="Vector_68" d="M13.7513 58.462L26.406 58.4738C26.5958 58.4648 26.7527 58.6076 26.7508 58.7778C26.7588 58.9477 26.5952 59.0855 26.4049 59.0845L13.7502 59.0727C13.5604 59.0817 13.4035 58.939 13.4054 58.7687C13.3974 58.5989 13.5611 58.461 13.7513 58.462Z" fill="#231F20"/>
<path id="Vector_69" d="M13.7506 57.6012L26.4053 57.613C26.5951 57.604 26.752 57.7467 26.7501 57.917C26.7581 58.0868 26.5944 58.2247 26.4042 58.2237L13.7495 58.2119C13.5597 58.2209 13.4028 58.0781 13.4047 57.9079C13.3967 57.7381 13.5603 57.6002 13.7506 57.6012Z" fill="#231F20"/>
<path id="Vector_70" d="M13.7594 56.7296L26.4141 56.7414C26.6039 56.7324 26.7608 56.8751 26.7588 57.0454C26.7669 57.2152 26.6032 57.3531 26.413 57.3521L13.7583 57.3403C13.5685 57.3493 13.4115 57.2066 13.4135 57.0363C13.4055 56.8665 13.5691 56.7286 13.7594 56.7296Z" fill="#231F20"/>
<path id="Vector_71" d="M13.7588 55.8688L26.4135 55.8805C26.6033 55.8716 26.7602 56.0143 26.7582 56.1846C26.7663 56.3544 26.6026 56.4923 26.4124 56.4913L13.7576 56.4795C13.5679 56.4885 13.4109 56.3457 13.4129 56.1754C13.4049 56.0056 13.5685 55.8677 13.7588 55.8688Z" fill="#231F20"/>
<path id="Vector_72" d="M13.758 55.0079L26.4127 55.0197C26.6025 55.0107 26.7595 55.1535 26.7575 55.3237C26.7655 55.4936 26.6019 55.6314 26.4116 55.6304L13.7569 55.6187C13.5671 55.6276 13.4102 55.4849 13.4122 55.3146C13.4041 55.1448 13.5678 55.0069 13.758 55.0079Z" fill="#231F20"/>
<path id="Vector_73" d="M13.7573 54.1471L26.412 54.1589C26.6018 54.1499 26.7587 54.2926 26.7568 54.4629C26.7648 54.6327 26.6011 54.7706 26.4109 54.7696L13.7562 54.7578C13.5664 54.7668 13.4095 54.6241 13.4114 54.4538C13.4034 54.284 13.5671 54.1461 13.7573 54.1471Z" fill="#231F20"/>
<path id="Vector_74" d="M13.7566 53.2862L26.4113 53.298C26.6011 53.289 26.758 53.4318 26.756 53.6021C26.7641 53.7719 26.6004 53.9098 26.4102 53.9088L13.7554 53.897C13.5657 53.906 13.4087 53.7632 13.4107 53.5929C13.4027 53.4231 13.5663 53.2852 13.7566 53.2862Z" fill="#231F20"/>
<path id="Vector_75" d="M59.7391 63.6739L72.3938 63.6857C72.5836 63.6767 72.7405 63.8195 72.7386 63.9898C72.7466 64.1596 72.583 64.2975 72.3927 64.2965L59.738 64.2847C59.5482 64.2936 59.3913 64.1509 59.3932 63.9806C59.3852 63.8108 59.5489 63.6729 59.7391 63.6739Z" fill="#231F20"/>
<path id="Vector_76" d="M59.7384 62.8131L72.3931 62.8249C72.5829 62.8159 72.7398 62.9586 72.7379 63.1289C72.7459 63.2987 72.5822 63.4366 72.392 63.4356L59.7373 63.4238C59.5475 63.4328 59.3906 63.2901 59.3925 63.1198C59.3845 62.95 59.5481 62.8121 59.7384 62.8131Z" fill="#231F20"/>
<path id="Vector_77" d="M59.7377 61.9522L72.3924 61.964C72.5821 61.9551 72.7391 62.0978 72.7371 62.2681C72.7452 62.4379 72.5815 62.5758 72.3912 62.5748L59.7365 62.563C59.5467 62.572 59.3898 62.4292 59.3918 62.2589C59.3837 62.0891 59.5474 61.9512 59.7377 61.9522Z" fill="#231F20"/>
<path id="Vector_78" d="M59.737 61.0909L72.3918 61.1027C72.5815 61.0937 72.7385 61.2365 72.7365 61.4068C72.7445 61.5766 72.5809 61.7145 72.3906 61.7134L59.7359 61.7017C59.5461 61.7106 59.3892 61.5679 59.3912 61.3976C59.3831 61.2278 59.5468 61.0899 59.737 61.0909Z" fill="#231F20"/>
<path id="Vector_79" d="M59.7463 60.2296L72.401 60.2414C72.5908 60.2324 72.7477 60.3751 72.7458 60.5454C72.7538 60.7152 72.5902 60.8531 72.3999 60.8521L59.7452 60.8403C59.5554 60.8493 59.3985 60.7066 59.4004 60.5363C59.3924 60.3665 59.5561 60.2286 59.7463 60.2296Z" fill="#231F20"/>
<path id="Vector_80" d="M59.7451 59.359L72.3998 59.3708C72.5896 59.3618 72.7465 59.5045 72.7446 59.6748C72.7526 59.8446 72.5889 59.9825 72.3987 59.9815L59.744 59.9697C59.5542 59.9787 59.3973 59.836 59.3992 59.6657C59.3912 59.4959 59.5548 59.358 59.7451 59.359Z" fill="#231F20"/>
<path id="Vector_81" d="M59.7444 58.4977L72.3991 58.5095C72.5889 58.5005 72.7458 58.6432 72.7438 58.8135C72.7519 58.9833 72.5882 59.1212 72.3979 59.1202L59.7432 59.1084C59.5535 59.1174 59.3965 58.9746 59.3985 58.8044C59.3904 58.6345 59.5541 58.4967 59.7444 58.4977Z" fill="#231F20"/>
<path id="Vector_82" d="M59.7438 57.6368L72.3985 57.6486C72.5883 57.6396 72.7452 57.7824 72.7432 57.9527C72.7513 58.1225 72.5876 58.2604 72.3973 58.2593L59.7426 58.2476C59.5528 58.2565 59.3959 58.1138 59.3979 57.9435C59.3898 57.7737 59.5535 57.6358 59.7438 57.6368Z" fill="#231F20"/>
<path id="Vector_83" d="M59.743 56.776L72.3977 56.7878C72.5875 56.7788 72.7444 56.9215 72.7425 57.0918C72.7505 57.2616 72.5869 57.3995 72.3966 57.3985L59.7419 57.3867C59.5521 57.3957 59.3952 57.253 59.3971 57.0827C59.3891 56.9129 59.5528 56.775 59.743 56.776Z" fill="#231F20"/>
<path id="Vector_84" d="M59.7423 55.9151L72.397 55.9269C72.5868 55.9179 72.7437 56.0607 72.7418 56.231C72.7498 56.4008 72.5861 56.5387 72.3959 56.5377L59.7412 56.5259C59.5514 56.5349 59.3945 56.3921 59.3964 56.2218C59.3884 56.052 59.552 55.9141 59.7423 55.9151Z" fill="#231F20"/>
<path id="Vector_85" d="M59.7516 55.0538L72.4063 55.0656C72.5961 55.0566 72.753 55.1994 72.751 55.3696C72.7591 55.5395 72.5954 55.6773 72.4051 55.6763L59.7504 55.6645C59.5607 55.6735 59.4037 55.5308 59.4057 55.3605C59.3976 55.1907 59.5613 55.0528 59.7516 55.0538Z" fill="#231F20"/>
<path id="Vector_86" d="M59.751 54.193L72.4057 54.2048C72.5955 54.1958 72.7524 54.3385 72.7504 54.5088C72.7585 54.6786 72.5948 54.8165 72.4045 54.8155L59.7498 54.8037C59.56 54.8127 59.4031 54.6699 59.4051 54.4997C59.397 54.3299 59.5607 54.192 59.751 54.193Z" fill="#231F20"/>
<path id="Vector_87" d="M59.7502 53.3316L72.4049 53.3434C72.5947 53.3345 72.7516 53.4772 72.7497 53.6475C72.7577 53.8173 72.5941 53.9552 72.4038 53.9542L59.7491 53.9424C59.5593 53.9514 59.4024 53.8086 59.4043 53.6383C59.3963 53.4685 59.56 53.3306 59.7502 53.3316Z" fill="#231F20"/>
<path id="Vector_88" opacity="0.2" d="M67.2082 115.729L73.6544 111.9C75.9232 110.551 77.2785 108.305 77.2844 105.892L77.2797 105.792L69.3816 108.768C68.4963 109.101 67.8901 109.83 67.79 110.676L67.2087 115.739L67.2082 115.729Z" fill="black"/>
<path id="Vector_89" d="M65.8756 117.184L72.3218 113.355C74.5905 112.006 75.9459 109.759 75.9518 107.346L75.9471 107.246L68.0489 110.223C67.1637 110.555 66.5575 111.285 66.4573 112.13L65.876 117.194L65.8756 117.184Z" fill="url(#paint49_linear_172_98)" stroke="#231F20" stroke-width="0.01" stroke-miterlimit="10"/>
<path id="Vector_90" opacity="0.2" d="M18.151 115.678L11.7123 111.838C9.44573 110.484 8.09792 108.235 8.09387 105.822L8.08914 105.722L15.9893 108.712C16.8763 109.051 17.4816 109.783 17.5712 110.62L18.141 115.678L18.151 115.678Z" fill="black"/>
<path id="Vector_91" d="M19.4815 117.137L13.0427 113.297C10.7762 111.943 9.42836 109.694 9.42431 107.281L9.41958 107.181L17.3198 110.171C18.2067 110.51 18.812 111.242 18.9017 112.079L19.4715 117.137L19.4815 117.137Z" fill="url(#paint50_linear_172_98)" stroke="#231F20" stroke-width="0.01" stroke-miterlimit="10"/>
<path id="Vector_92" d="M34.0663 138.471L51.2863 138.487L50.912 148.136L34.4126 148.116L34.0663 138.471Z" fill="url(#paint51_linear_172_98)"/>
<path id="Vector_93" d="M35.2823 171.991L49.9894 172.006L49.6251 181.654L35.639 181.645L35.2823 171.991Z" fill="url(#paint52_linear_172_98)"/>
<path id="Vector_94" d="M39.0285 80.6521L41.2729 47.2686L44.2162 47.2695L46.3973 80.6637L39.0285 80.6521Z" fill="url(#paint53_linear_172_98)"/>
</g>
<defs>
<linearGradient id="paint0_linear_172_98" x1="67.8504" y1="121.256" x2="19.2304" y2="121.213" gradientUnits="userSpaceOnUse">
<stop stop-color="#2B3990"/>
<stop offset="0.36" stop-color="#262262"/>
<stop offset="0.67" stop-color="#1C75BC"/>
<stop offset="1" stop-color="#2B3990"/>
</linearGradient>
<linearGradient id="paint1_linear_172_98" x1="58.2449" y1="172.958" x2="28.5649" y2="172.932" gradientUnits="userSpaceOnUse">
<stop stop-color="#2B3990"/>
<stop offset="0.36" stop-color="#262262"/>
<stop offset="0.67" stop-color="#1C75BC"/>
<stop offset="1" stop-color="#2B3990"/>
</linearGradient>
<linearGradient id="paint2_linear_172_98" x1="43.2945" y1="159.109" x2="43.2922" y2="161.799" gradientUnits="userSpaceOnUse">
<stop stop-color="#414042"/>
<stop offset="0.36" stop-color="#231F20"/>
<stop offset="0.67" stop-color="#939598"/>
<stop offset="1" stop-color="#414042"/>
</linearGradient>
<linearGradient id="paint3_linear_172_98" x1="26.5763" y1="168.507" x2="28.5225" y2="166.564" gradientUnits="userSpaceOnUse">
<stop stop-color="#414042"/>
<stop offset="0.36" stop-color="#231F20"/>
<stop offset="0.67" stop-color="#939598"/>
<stop offset="1" stop-color="#414042"/>
</linearGradient>
<linearGradient id="paint4_linear_172_98" x1="29.24" y1="166.521" x2="26.5011" y2="169.283" gradientUnits="userSpaceOnUse">
<stop stop-color="#E6E7E8"/>
<stop offset="0.33" stop-color="#F1F2F2"/>
<stop offset="0.64" stop-color="#A7A9AC"/>
<stop offset="1" stop-color="#D1D3D4"/>
</linearGradient>
<linearGradient id="paint5_linear_172_98" x1="29.1689" y1="152.542" x2="27.2261" y2="150.596" gradientUnits="userSpaceOnUse">
<stop stop-color="#414042"/>
<stop offset="0.36" stop-color="#231F20"/>
<stop offset="0.67" stop-color="#939598"/>
<stop offset="1" stop-color="#414042"/>
</linearGradient>
<linearGradient id="paint6_linear_172_98" x1="27.1471" y1="149.828" x2="29.9801" y2="152.638" gradientUnits="userSpaceOnUse">
<stop stop-color="#E6E7E8"/>
<stop offset="0.33" stop-color="#F1F2F2"/>
<stop offset="0.64" stop-color="#A7A9AC"/>
<stop offset="1" stop-color="#D1D3D4"/>
</linearGradient>
<linearGradient id="paint7_linear_172_98" x1="24.8808" y1="160.62" x2="22.0408" y2="160.617" gradientUnits="userSpaceOnUse">
<stop stop-color="#414042"/>
<stop offset="0.33" stop-color="#939598"/>
<stop offset="0.64" stop-color="#231F20"/>
<stop offset="1" stop-color="#414042"/>
</linearGradient>
<linearGradient id="paint8_linear_172_98" x1="23.2686" y1="158.023" x2="23.2633" y2="164.093" gradientUnits="userSpaceOnUse">
<stop stop-color="#414042"/>
<stop offset="0.33" stop-color="#939598"/>
<stop offset="0.64" stop-color="#231F20"/>
<stop offset="1" stop-color="#414042"/>
</linearGradient>
<linearGradient id="paint9_linear_172_98" x1="14.9787" y1="145.84" x2="14.9559" y2="171.67" gradientUnits="userSpaceOnUse">
<stop stop-color="#414042"/>
<stop offset="0.36" stop-color="#231F20"/>
<stop offset="0.8" stop-color="#939598"/>
<stop offset="1" stop-color="#414042"/>
</linearGradient>
<linearGradient id="paint10_linear_172_98" x1="54.849" y1="168.5" x2="52.9062" y2="166.553" gradientUnits="userSpaceOnUse">
<stop stop-color="#414042"/>
<stop offset="0.36" stop-color="#231F20"/>
<stop offset="0.67" stop-color="#939598"/>
<stop offset="1" stop-color="#414042"/>
</linearGradient>
<linearGradient id="paint11_linear_172_98" x1="52.6898" y1="165.582" x2="55.4309" y2="168.356" gradientUnits="userSpaceOnUse">
<stop stop-color="#E6E7E8"/>
<stop offset="0.33" stop-color="#F1F2F2"/>
<stop offset="0.64" stop-color="#A7A9AC"/>
<stop offset="1" stop-color="#D1D3D4"/>
</linearGradient>
<linearGradient id="paint12_linear_172_98" x1="53.4907" y1="151.184" x2="55.4369" y2="149.241" gradientUnits="userSpaceOnUse">
<stop stop-color="#414042"/>
<stop offset="0.36" stop-color="#231F20"/>
<stop offset="0.67" stop-color="#939598"/>
<stop offset="1" stop-color="#414042"/>
</linearGradient>
<linearGradient id="paint13_linear_172_98" x1="56.4484" y1="149" x2="53.6034" y2="151.812" gradientUnits="userSpaceOnUse">
<stop stop-color="#E6E7E8"/>
<stop offset="0.33" stop-color="#F1F2F2"/>
<stop offset="0.64" stop-color="#A7A9AC"/>
<stop offset="1" stop-color="#D1D3D4"/>
</linearGradient>
<linearGradient id="paint14_linear_172_98" x1="62.5773" y1="160.639" x2="65.4173" y2="160.641" gradientUnits="userSpaceOnUse">
<stop stop-color="#414042"/>
<stop offset="0.33" stop-color="#939598"/>
<stop offset="0.64" stop-color="#231F20"/>
<stop offset="1" stop-color="#414042"/>
</linearGradient>
<linearGradient id="paint15_linear_172_98" x1="64.1846" y1="158.101" x2="64.1792" y2="164.171" gradientUnits="userSpaceOnUse">
<stop stop-color="#414042"/>
<stop offset="0.33" stop-color="#939598"/>
<stop offset="0.64" stop-color="#231F20"/>
<stop offset="1" stop-color="#414042"/>
</linearGradient>
<linearGradient id="paint16_linear_172_98" x1="72.2551" y1="146.663" x2="72.2333" y2="171.443" gradientUnits="userSpaceOnUse">
<stop stop-color="#414042"/>
<stop offset="0.36" stop-color="#231F20"/>
<stop offset="0.8" stop-color="#939598"/>
<stop offset="1" stop-color="#414042"/>
</linearGradient>
<linearGradient id="paint17_linear_172_98" x1="71.8649" y1="70.6698" x2="3.12496" y2="70.6093" gradientUnits="userSpaceOnUse">
<stop stop-color="#14232A"/>
<stop offset="0.4" stop-color="#0D0300"/>
<stop offset="0.97" stop-color="#51677F"/>
</linearGradient>
<linearGradient id="paint18_linear_172_98" x1="39.4695" y1="160.224" x2="33.8295" y2="160.219" gradientUnits="userSpaceOnUse">
<stop stop-color="#414042"/>
<stop offset="0.33" stop-color="#939598"/>
<stop offset="0.64" stop-color="#231F20"/>
<stop offset="1" stop-color="#414042"/>
</linearGradient>
<linearGradient id="paint19_linear_172_98" x1="35.765" y1="167.21" x2="35.7756" y2="155.14" gradientUnits="userSpaceOnUse">
<stop stop-color="#414042"/>
<stop offset="0.33" stop-color="#939598"/>
<stop offset="0.64" stop-color="#231F20"/>
<stop offset="1" stop-color="#414042"/>
</linearGradient>
<linearGradient id="paint20_linear_172_98" x1="55.7611" y1="160.251" x2="50.1211" y2="160.246" gradientUnits="userSpaceOnUse">
<stop stop-color="#414042"/>
<stop offset="0.33" stop-color="#939598"/>
<stop offset="0.64" stop-color="#231F20"/>
<stop offset="1" stop-color="#414042"/>
</linearGradient>
<linearGradient id="paint21_linear_172_98" x1="52.1457" y1="167.507" x2="52.1563" y2="155.437" gradientUnits="userSpaceOnUse">
<stop stop-color="#414042"/>
<stop offset="0.33" stop-color="#939598"/>
<stop offset="0.64" stop-color="#231F20"/>
<stop offset="1" stop-color="#414042"/>
</linearGradient>
<linearGradient id="paint22_linear_172_98" x1="76.2349" y1="184.374" x2="10.5649" y2="184.316" gradientUnits="userSpaceOnUse">
<stop stop-color="#2B3990"/>
<stop offset="0.36" stop-color="#262262"/>
<stop offset="0.67" stop-color="#1C75BC"/>
<stop offset="1" stop-color="#2B3990"/>
</linearGradient>
<linearGradient id="paint23_linear_172_98" x1="42.481" y1="36.0863" x2="42.4784" y2="39.0063" gradientUnits="userSpaceOnUse">
<stop stop-color="#414042"/>
<stop offset="0.36" stop-color="#231F20"/>
<stop offset="0.67" stop-color="#939598"/>
<stop offset="1" stop-color="#414042"/>
</linearGradient>
<linearGradient id="paint24_linear_172_98" x1="24.577" y1="46.0341" x2="26.6931" y2="43.9217" gradientUnits="userSpaceOnUse">
<stop stop-color="#414042"/>
<stop offset="0.36" stop-color="#231F20"/>
<stop offset="0.67" stop-color="#939598"/>
<stop offset="1" stop-color="#414042"/>
</linearGradient>
<linearGradient id="paint25_linear_172_98" x1="27.439" y1="43.8496" x2="24.4594" y2="46.8522" gradientUnits="userSpaceOnUse">
<stop stop-color="#E6E7E8"/>
<stop offset="0.33" stop-color="#F1F2F2"/>
<stop offset="0.64" stop-color="#A7A9AC"/>
<stop offset="1" stop-color="#D1D3D4"/>
</linearGradient>
<linearGradient id="paint26_linear_172_98" x1="29.4412" y1="35.7566" x2="28.8911" y2="33.6265" gradientUnits="userSpaceOnUse">
<stop stop-color="#414042"/>
<stop offset="0.36" stop-color="#231F20"/>
<stop offset="0.67" stop-color="#939598"/>
<stop offset="1" stop-color="#414042"/>
</linearGradient>
<linearGradient id="paint27_linear_172_98" x1="28.5399" y1="32.6943" x2="29.4947" y2="36.3517" gradientUnits="userSpaceOnUse">
<stop stop-color="#E6E7E8"/>
<stop offset="0.33" stop-color="#F1F2F2"/>
<stop offset="0.64" stop-color="#A7A9AC"/>
<stop offset="1" stop-color="#D1D3D4"/>
</linearGradient>
<linearGradient id="paint28_linear_172_98" x1="22.5039" y1="37.4093" x2="19.4239" y2="37.4066" gradientUnits="userSpaceOnUse">
<stop stop-color="#414042"/>
<stop offset="0.33" stop-color="#939598"/>
<stop offset="0.64" stop-color="#231F20"/>
<stop offset="1" stop-color="#414042"/>
</linearGradient>
<linearGradient id="paint29_linear_172_98" x1="20.7316" y1="34.6672" x2="20.7258" y2="41.2572" gradientUnits="userSpaceOnUse">
<stop stop-color="#414042"/>
<stop offset="0.33" stop-color="#939598"/>
<stop offset="0.64" stop-color="#231F20"/>
<stop offset="1" stop-color="#414042"/>
</linearGradient>
<linearGradient id="paint30_linear_172_98" x1="11.7471" y1="22.7669" x2="11.7233" y2="49.7669" gradientUnits="userSpaceOnUse">
<stop stop-color="#414042"/>
<stop offset="0.36" stop-color="#231F20"/>
<stop offset="0.8" stop-color="#939598"/>
<stop offset="1" stop-color="#414042"/>
</linearGradient>
<linearGradient id="paint31_linear_172_98" x1="57.026" y1="45.9596" x2="54.9136" y2="43.8435" gradientUnits="userSpaceOnUse">
<stop stop-color="#414042"/>
<stop offset="0.36" stop-color="#231F20"/>
<stop offset="0.67" stop-color="#939598"/>
<stop offset="1" stop-color="#414042"/>
</linearGradient>
<linearGradient id="paint32_linear_172_98" x1="54.6764" y1="42.8464" x2="57.6506" y2="45.8543" gradientUnits="userSpaceOnUse">
<stop stop-color="#E6E7E8"/>
<stop offset="0.33" stop-color="#F1F2F2"/>
<stop offset="0.64" stop-color="#A7A9AC"/>
<stop offset="1" stop-color="#D1D3D4"/>
</linearGradient>
<linearGradient id="paint33_linear_172_98" x1="53.8342" y1="35.2858" x2="54.3909" y2="33.1471" gradientUnits="userSpaceOnUse">
<stop stop-color="#414042"/>
<stop offset="0.36" stop-color="#231F20"/>
<stop offset="0.67" stop-color="#939598"/>
<stop offset="1" stop-color="#414042"/>
</linearGradient>
<linearGradient id="paint34_linear_172_98" x1="54.7415" y1="32.0902" x2="53.7821" y2="35.7361" gradientUnits="userSpaceOnUse">
<stop stop-color="#E6E7E8"/>
<stop offset="0.33" stop-color="#F1F2F2"/>
<stop offset="0.64" stop-color="#A7A9AC"/>
<stop offset="1" stop-color="#D1D3D4"/>
</linearGradient>
<linearGradient id="paint35_linear_172_98" x1="65.163" y1="37.4169" x2="68.243" y2="37.4197" gradientUnits="userSpaceOnUse">
<stop stop-color="#414042"/>
<stop offset="0.33" stop-color="#939598"/>
<stop offset="0.64" stop-color="#231F20"/>
<stop offset="1" stop-color="#414042"/>
</linearGradient>
<linearGradient id="paint36_linear_172_98" x1="66.9549" y1="34.599" x2="66.9491" y2="41.189" gradientUnits="userSpaceOnUse">
<stop stop-color="#414042"/>
<stop offset="0.33" stop-color="#939598"/>
<stop offset="0.64" stop-color="#231F20"/>
<stop offset="1" stop-color="#414042"/>
</linearGradient>
<linearGradient id="paint37_linear_172_98" x1="75.6662" y1="21.8686" x2="75.642" y2="49.3386" gradientUnits="userSpaceOnUse">
<stop stop-color="#414042"/>
<stop offset="0.36" stop-color="#231F20"/>
<stop offset="0.8" stop-color="#939598"/>
<stop offset="1" stop-color="#414042"/>
</linearGradient>
<linearGradient id="paint38_linear_172_98" x1="74.1987" y1="77.7718" x2="12.7787" y2="77.7177" gradientUnits="userSpaceOnUse">
<stop stop-color="#2B3990"/>
<stop offset="0.36" stop-color="#262262"/>
<stop offset="0.67" stop-color="#1C75BC"/>
<stop offset="1" stop-color="#2B3990"/>
</linearGradient>
<linearGradient id="paint39_linear_172_98" x1="55.5377" y1="124.335" x2="31.5377" y2="124.314" gradientUnits="userSpaceOnUse">
<stop stop-color="#2B3990"/>
<stop offset="0.36" stop-color="#262262"/>
<stop offset="0.67" stop-color="#1C75BC"/>
<stop offset="1" stop-color="#2B3990"/>
</linearGradient>
<linearGradient id="paint40_linear_172_98" x1="48.4265" y1="68.9194" x2="38.5665" y2="68.9107" gradientUnits="userSpaceOnUse">
<stop stop-color="#2B3990"/>
<stop offset="0.36" stop-color="#262262"/>
<stop offset="0.67" stop-color="#1C75BC"/>
<stop offset="1" stop-color="#2B3990"/>
</linearGradient>
<linearGradient id="paint41_linear_172_98" x1="62.2529" y1="118.442" x2="62.3232" y2="38.6116" gradientUnits="userSpaceOnUse">
<stop stop-color="#14232A"/>
<stop offset="0.36" stop-color="#0E110A"/>
<stop offset="0.67" stop-color="#51677F"/>
<stop offset="1" stop-color="#14232A"/>
</linearGradient>
<linearGradient id="paint42_linear_172_98" x1="43.6527" y1="23.7041" x2="43.6363" y2="42.3441" gradientUnits="userSpaceOnUse">
<stop stop-color="#2B3990"/>
<stop offset="0.33" stop-color="#1C75BC"/>
<stop offset="0.64" stop-color="#262262"/>
<stop offset="1" stop-color="#2B3990"/>
</linearGradient>
<linearGradient id="paint43_linear_172_98" x1="43.6555" y1="24.0603" x2="43.6607" y2="18.2303" gradientUnits="userSpaceOnUse">
<stop stop-color="#2B3990"/>
<stop offset="0.33" stop-color="#1C75BC"/>
<stop offset="0.64" stop-color="#262262"/>
<stop offset="1" stop-color="#2B3990"/>
</linearGradient>
<linearGradient id="paint44_linear_172_98" x1="23.0412" y1="6.6769" x2="23.0097" y2="42.4469" gradientUnits="userSpaceOnUse">
<stop stop-color="#2B3990"/>
<stop offset="0.33" stop-color="#1C75BC"/>
<stop offset="0.64" stop-color="#262262"/>
<stop offset="1" stop-color="#2B3990"/>
</linearGradient>
<linearGradient id="paint45_linear_172_98" x1="64.0313" y1="6.71304" x2="63.9998" y2="42.483" gradientUnits="userSpaceOnUse">
<stop stop-color="#2B3990"/>
<stop offset="0.33" stop-color="#1C75BC"/>
<stop offset="0.64" stop-color="#262262"/>
<stop offset="1" stop-color="#2B3990"/>
</linearGradient>
<linearGradient id="paint46_linear_172_98" x1="43.2784" y1="91.168" x2="43.272" y2="98.348" gradientUnits="userSpaceOnUse">
<stop stop-color="#2B3990"/>
<stop offset="0.36" stop-color="#262262"/>
<stop offset="0.67" stop-color="#1C75BC"/>
<stop offset="1" stop-color="#2B3990"/>
</linearGradient>
<linearGradient id="paint47_linear_172_98" x1="35.2578" y1="90.0479" x2="35.2515" y2="97.2379" gradientUnits="userSpaceOnUse">
<stop stop-color="#2B3990"/>
<stop offset="0.33" stop-color="#1C75BC"/>
<stop offset="0.64" stop-color="#262262"/>
<stop offset="1" stop-color="#2B3990"/>
</linearGradient>
<linearGradient id="paint48_linear_172_98" x1="51.0579" y1="90.0618" x2="51.0516" y2="97.2518" gradientUnits="userSpaceOnUse">
<stop stop-color="#2B3990"/>
<stop offset="0.33" stop-color="#1C75BC"/>
<stop offset="0.64" stop-color="#262262"/>
<stop offset="1" stop-color="#2B3990"/>
</linearGradient>
<linearGradient id="paint49_linear_172_98" x1="76.4767" y1="110.89" x2="66.4167" y2="110.881" gradientUnits="userSpaceOnUse">
<stop stop-color="#2B3990"/>
<stop offset="0.36" stop-color="#262262"/>
<stop offset="0.67" stop-color="#1C75BC"/>
<stop offset="1" stop-color="#2B3990"/>
</linearGradient>
<linearGradient id="paint50_linear_172_98" x1="10.4612" y1="110.177" x2="20.5212" y2="110.186" gradientUnits="userSpaceOnUse">
<stop stop-color="#2B3990"/>
<stop offset="0.36" stop-color="#262262"/>
<stop offset="0.67" stop-color="#1C75BC"/>
<stop offset="1" stop-color="#2B3990"/>
</linearGradient>
<linearGradient id="paint51_linear_172_98" x1="52.0421" y1="142.053" x2="34.8221" y2="142.038" gradientUnits="userSpaceOnUse">
<stop stop-color="#F1F2F2"/>
<stop offset="0.36" stop-color="#E6E7E8"/>
<stop offset="0.67" stop-color="white"/>
<stop offset="1" stop-color="#F1F2F2"/>
</linearGradient>
<linearGradient id="paint52_linear_172_98" x1="50.7526" y1="175.572" x2="36.0526" y2="175.559" gradientUnits="userSpaceOnUse">
<stop stop-color="#F1F2F2"/>
<stop offset="0.36" stop-color="#E6E7E8"/>
<stop offset="0.67" stop-color="white"/>
<stop offset="1" stop-color="#F1F2F2"/>
</linearGradient>
<linearGradient id="paint53_linear_172_98" x1="47.1719" y1="62.6983" x2="39.8119" y2="62.6918" gradientUnits="userSpaceOnUse">
<stop stop-color="#F1F2F2"/>
<stop offset="0.36" stop-color="#E6E7E8"/>
<stop offset="0.67" stop-color="white"/>
<stop offset="1" stop-color="#F1F2F2"/>
</linearGradient>
<clipPath id="clip0_172_98">
<rect width="84.01" height="198.85" fill="white" transform="translate(0 3.97119) rotate(-2.70954)"/>
</clipPath>
</defs>
</svg>
