<svg width="1080" height="960" viewBox="0 0 1080 960" fill="none" xmlns="http://www.w3.org/2000/svg">
<g clip-path="url(#clip0_157_538)">
<path d="M454.805 87.6966L451.614 49.5344L523.294 54.5018L454.805 87.6966Z" fill="#F5BB4C"/>
<path d="M52.5684 296.142L58.9018 284.27L69.9047 296.974L52.5684 296.142Z" fill="#F7D7D0"/>
<path d="M505.349 151.963L482.027 128.777L519.506 111.975L505.349 151.963Z" fill="#F7D7D0"/>
<path d="M944.953 5.26253L1000.89 -19.9844L958.999 35.837L944.953 5.26253Z" fill="#A5D8DB"/>
<path d="M169.042 26.9825L179.536 -0.20166L216.531 32.099L169.042 26.9825Z" fill="#F5BB4C"/>
<path d="M45.7754 594.56L84.4592 571.225L92.0594 616.739L45.7754 594.56Z" fill="#E05F55"/>
<path d="M290.495 180.774L295.289 146.561L333.029 167.473L290.495 180.774Z" fill="#FFC7CE"/>
<path d="M1060.02 446.17L1068.59 385.406L1093.37 450.653L1060.02 446.17Z" fill="#FFC7CE"/>
<path d="M128.992 273.329L174.705 252.702L148.365 315.49L128.992 273.329Z" fill="#A5D8DB"/>
<path d="M-1.8001 826.886L-13.3494 854.529L9.10339 844.172L-1.8001 826.886Z" fill="#19A2A5"/>
<path d="M730.845 94.3282L762.699 41.8723L759.731 111.59L730.845 94.3282Z" fill="#F5BB4C"/>
<path d="M153.246 137.532L172.47 102.624L197.878 136.526L153.246 137.532Z" fill="#A5D8DB"/>
<path d="M147.694 42.5181L153.668 3.11401L189.234 26.1504L147.694 42.5181Z" fill="#19A2A5"/>
<path d="M1076.86 805.687L1097.76 771.76L1121.5 806.855L1076.86 805.687Z" fill="#F7D7D0"/>
<path d="M500.766 272.149L539.463 248.815L547.05 294.329L500.766 272.149Z" fill="#E05F55"/>
<path d="M116.611 183.729L109.035 139.196L154.177 148.759L116.611 183.729Z" fill="#F5BB4C"/>
<path d="M326.484 203.077L332.458 163.673L368.024 186.71L326.484 203.077Z" fill="#E05F55"/>
<path d="M913.671 501.458L897.03 501.383L904.382 485.289L913.671 501.458Z" fill="#E05F55"/>
<path d="M97.2253 68.5598L113.494 38.0847L141.746 70.6958L97.2253 68.5598Z" fill="#FFC7CE"/>
<path d="M890.15 179.929L910.467 170.777L895.254 191.032L890.15 179.929Z" fill="#FFC7CE"/>
<path d="M599.953 54.1418L608.373 43.6357L616.843 58.153L599.953 54.1418Z" fill="#F7D7D0"/>
<path d="M924.351 34.2721L915.273 25.2438L929.865 18.6992L924.351 34.2721Z" fill="#F7D7D0"/>
<path d="M425.15 -36.6501L440.102 5.99512L396.55 -18.9165L425.15 -36.6501Z" fill="#A5D8DB"/>
<path d="M900.309 128.305L916.577 97.8303L944.829 130.441L900.309 128.305Z" fill="#E05F55"/>
<path d="M1065.82 469.393L1047.87 493.373L1072.17 488.816L1065.82 469.393Z" fill="#19A2A5"/>
<path d="M1007.69 778.155L1017.38 766.072L1027.13 782.763L1007.69 778.155Z" fill="#19A2A5"/>
<path d="M964.003 466.86L1002.69 443.525L1010.29 489.039L964.003 466.86Z" fill="#A5D8DB"/>
<path d="M1058.73 258.514L1088.8 205.002L1088.18 274.794L1058.73 258.514Z" fill="#E05F55"/>
<path d="M1083.4 98.0288L1102.99 114.558L1074.4 108.833L1083.4 98.0288Z" fill="#FFC7CE"/>
<path d="M1062.93 157.799L1076.98 161.065L1066.87 175.992L1062.93 157.799Z" fill="#F7D7D0"/>
<path d="M244.981 111.342L263.05 105.902L261.424 125.101L244.981 111.342Z" fill="#A5D8DB"/>
<path d="M666.393 51.7201L722.338 26.4856L680.438 82.307L666.393 51.7201Z" fill="#A5D8DB"/>
<path d="M629.534 12.937L637.942 2.43091L646.423 16.9482L629.534 12.937Z" fill="#19A2A5"/>
<path d="M346.503 138.004L349.011 121.811L363.454 130.292L346.503 138.004Z" fill="#A5D8DB"/>
<path d="M260.157 321.6L262.479 306.25L276.338 315.217L260.157 321.6Z" fill="#19A2A5"/>
<path d="M1034.08 353.168L1036.75 335.509L1052.7 345.841L1034.08 353.168Z" fill="#E05F55"/>
<path d="M251.066 65.6538L234.413 65.5793L241.765 49.4724L251.066 65.6538Z" fill="#FFC7CE"/>
<path d="M877.732 148.051L893.665 143.195L891.392 160.742L877.732 148.051Z" fill="#A5D8DB"/>
<path d="M95.9089 259.905L110.973 250.814L113.928 268.535L95.9089 259.905Z" fill="#E05F55"/>
<path d="M994.354 45.3992L1009.42 36.3088L1012.37 54.0301L994.354 45.3992Z" fill="#19A2A5"/>
<path d="M762.698 262.438L765.021 247.089L778.88 256.067L762.698 262.438Z" fill="#19A2A5"/>
<path d="M239.48 46.9887L281.07 22.5117L291.079 73.3284L239.48 46.9887Z" fill="#A5D8DB"/>
<path d="M209.514 410.256L221.175 450.455L187.521 416.788L209.514 410.256Z" fill="#FFC7CE"/>
<path d="M-2.53296 621.061L20.7394 624.749L6.01101 650.232L-2.53296 621.061Z" fill="#F7D7D0"/>
<path d="M98.405 221.295L83.3538 235.117H100.218L98.405 221.295Z" fill="#19A2A5"/>
<path d="M982.246 123.263L996.987 104.872L1011.83 130.292L982.246 123.263Z" fill="#19A2A5"/>
<path d="M885.704 236.235L905.351 233.267L898.719 266.101L885.704 236.235Z" fill="#F5BB4C"/>
<path d="M686.585 198.122L691.081 239.737L663.785 200.743L686.585 198.122Z" fill="#FFC7CE"/>
<path d="M274.724 240.184L297.996 243.872L283.28 269.355L274.724 240.184Z" fill="#FFC7CE"/>
<path d="M13.7603 259.271L47.6133 283.885L0.385498 277.924L13.7603 259.271Z" fill="#FFC7CE"/>
<path d="M58.6162 671.716L79.6905 661.185L82.5343 690.468L58.6162 671.716Z" fill="#FFC7CE"/>
<path d="M177.424 162.233L200.349 126.219L213.6 180.848L177.424 162.233Z" fill="#F7D7D0"/>
<path d="M529.043 161.463L570.708 165.536L526.969 184.313L529.043 161.463Z" fill="#A5D8DB"/>
<path d="M958.8 64.4243L992.653 89.0379L945.425 83.077L958.8 64.4243Z" fill="#F5BB4C"/>
<path d="M608.398 110.559L623.139 92.1675L637.979 117.576L608.398 110.559Z" fill="#19A2A5"/>
<path d="M982.644 667.618L1011.43 656.64L1011.02 688.108L982.644 667.618Z" fill="#F5BB4C"/>
<path d="M570.509 43.9959L565.343 13.6201L596.128 20.1523L570.509 43.9959Z" fill="#F5BB4C"/>
<path d="M-27.1091 205.015L-23.0358 178.141L1.23 193.85L-27.1091 205.015Z" fill="#A5D8DB"/>
<path d="M816.806 223.556L842.177 213.782L840.55 242.643L816.806 223.556Z" fill="#E05F55"/>
<path d="M875.36 373.609L855.564 376.49L870.628 356.397L875.36 373.609Z" fill="#FFC7CE"/>
<path d="M370.061 41.1271L372.147 27.417L384.516 35.4394L370.061 41.1271Z" fill="#19A2A5"/>
<path d="M689.988 390.957L716.377 375.037L721.543 406.083L689.988 390.957Z" fill="#A5D8DB"/>
<path d="M630.329 200.792L654.148 181.246L663.735 211.224L630.329 200.792Z" fill="#F5BB4C"/>
<path d="M1039.52 64.8467L1066.42 79.8855L1042.03 99.7552L1039.52 64.8467Z" fill="#A5D8DB"/>
<path d="M844.872 158.035C844.872 158.035 857.7 129.497 839.284 109.243C820.855 88.9882 794.627 87.0509 795.806 62.6609C795.806 62.6609 809.367 71.3414 821.761 79.5004C834.155 87.6594 871.274 121.574 844.872 158.035Z" fill="#A5D8DB"/>
<path d="M794.825 257.806C794.825 257.806 787.424 232.845 816.719 202.879C848.647 170.218 858.967 150.162 853.727 125.424C853.727 125.424 854.807 150.808 814.174 188.933C775.564 225.158 794.825 257.818 794.825 257.818V257.806Z" fill="#A5D8DB"/>
<path d="M795.185 -18.1589C795.185 -18.1589 792.205 8.34223 815.167 15.8306C838.141 23.319 835.446 34.297 835.446 34.297C835.446 34.297 841.892 35.0669 840.774 24.9086C839.656 14.7502 833.074 7.4481 816.483 1.88459C803.916 -2.33771 805.307 -12.1856 805.307 -12.1856L795.173 -18.1589H795.185Z" fill="#A5D8DB"/>
<path d="M836.527 15.073C836.527 15.073 842.426 26.8955 828.368 35.6133C814.31 44.3311 787.163 45.101 797.11 72.546C797.11 72.546 801.333 59.1216 819.091 53.7071C836.85 48.2926 847.877 31.2916 836.527 15.073Z" fill="#A5D8DB"/>
<path d="M10.3948 106.548C10.3948 106.548 -0.558387 77.0292 21.6087 59.5439C43.7759 42.0586 72.5124 43.4743 73.8039 19.4817C73.8039 19.4817 58.1441 26.2622 43.8007 32.6702C29.4573 39.0782 -14.4796 67.5663 10.3948 106.536V106.548Z" fill="#E2AF54"/>
<path d="M58.3677 201.55C60.926 193.788 61.7705 186.014 60.926 177.88C60.8763 177.371 60.8142 176.874 60.7521 176.378C57.2501 164.294 51.0036 150.944 40.5471 140.625C-1.04261 99.6061 4.19802 73.5645 4.19802 73.5645C-4.10999 97.0852 5.01764 117.998 36.3124 153.937C65.0241 186.921 54.3566 210.404 54.3566 210.404L55.2631 209.721C56.4305 207.039 57.4736 204.319 58.3802 201.575L58.3677 201.55Z" fill="#F5BB4C"/>
<path d="M32.9346 -30.4035C18.8767 -15.9856 30.6495 0.282673 49.4016 7.80831C68.1536 15.334 71.3327 28.9944 71.3327 28.9944C85.0428 3.42457 55.586 -0.748066 41.2177 -11.043C35.9895 -14.7934 31.3201 -24.8773 32.7855 -27.9943C32.7855 -27.9943 31.9287 -29.6708 39.889 -33.6696C46.6198 -37.0475 56.1324 -33.6696 56.1324 -33.6696L59.473 -42.9959C59.473 -42.9959 54.9154 -43.7411 46.6446 -40.475C38.3615 -37.2089 32.947 -30.3911 32.947 -30.3911L32.9346 -30.4035Z" fill="#F5BB4C"/>
<path d="M475.259 250.926C475.433 254.105 475.519 257.309 475.172 260.464C475.072 261.358 474.936 262.264 474.774 263.146C471.695 268.188 467.435 272.385 463.026 276.409C450.881 287.536 436.885 296.639 429.223 311.467C426.988 315.788 425.15 320.321 423.448 324.916C423.684 324.568 423.92 324.22 424.169 323.873C425.733 321.65 427.472 319.414 429.372 317.278C430.987 315.13 432.75 313.081 434.737 311.156C445.131 301.072 458.183 293.025 466.988 281.476C469.968 277.564 471.906 273.106 473.619 268.548C474.116 268.163 477.631 258.849 477.146 258.961C478.835 254.254 480.325 249.498 480.735 244.468C481.828 231.106 478.649 217.731 471.372 206.12C464.156 194.608 454.16 184.934 443.467 176.39C433.209 168.181 420.592 160.358 415.426 147.877C414.569 145.803 413.986 143.605 413.762 141.382C418.046 136.613 423.647 133.844 429.385 130.951C435.383 127.92 441.716 123.996 446.932 119.848C452.036 115.788 454.768 110.485 457.016 104.586C457.078 104.437 457.128 104.288 457.19 104.139C457.463 104.449 460.009 97.6813 460.381 95.7813C462.145 90.9256 463.635 85.9706 464.144 80.8293C464.852 73.7632 463.026 66.9206 459.276 60.7113C455.401 54.3033 450.086 48.8516 442.797 46.2189C438.798 44.7659 434.526 43.8097 430.341 43.077C426.628 42.4312 422.418 41.0155 418.854 42.4064C417.761 42.8286 416.457 48.6653 416.047 49.7954C415.401 51.5464 414.755 53.2974 414.135 55.0485C414.023 55.3713 413.625 57.1472 413.389 57.2341C416.581 55.9923 419.437 57.0851 422.741 57.557C426.516 58.1034 430.304 58.9354 433.979 59.9786C441.207 62.0152 446.621 65.7408 451.117 71.6024C454.967 76.6194 457.811 82.4934 458.643 88.6654C459.04 91.6086 458.866 94.5643 458.456 97.4826C458.394 97.8924 458.332 98.2898 458.258 98.6872C454.507 104.4 448.534 107.753 442.759 111.304C439.94 113.043 437.233 114.943 434.24 116.396C430.962 117.986 427.795 119.476 424.852 121.624C419.922 125.213 416.258 129.547 414.035 135.16C413.923 135.434 413.812 135.707 413.7 135.98C413.091 135.434 410.161 143.444 409.651 146.126C408.683 149.119 408.037 152.161 408.211 155.154C408.944 168.206 421.35 178.663 431.384 186.126C442.374 194.31 452.905 203.351 461.188 214.18C469.72 225.332 474.501 237.216 475.234 250.914L475.259 250.926Z" fill="#FFC7CE"/>
<path d="M413.725 135.992C413.836 135.719 413.948 135.446 414.06 135.173C416.283 129.56 419.946 125.226 424.876 121.637C427.807 119.501 430.986 117.998 434.265 116.408C437.258 114.955 439.965 113.043 442.784 111.317C448.546 107.778 454.532 104.412 458.282 98.6996L460.406 95.7812C460.046 97.6689 457.5 104.449 457.214 104.139C457.152 104.288 457.103 104.437 457.041 104.586C454.793 110.497 452.061 115.8 446.957 119.848C441.741 123.996 435.407 127.92 429.409 130.951C423.672 133.844 418.071 136.613 413.787 141.382L413.737 135.992H413.725Z" fill="#FFC7CE"/>
<path d="M473.632 268.548C471.906 273.093 469.981 277.564 467 281.476C458.196 293.025 445.144 301.072 434.749 311.156C432.775 313.081 430.999 315.13 429.385 317.278C427.485 319.402 425.746 321.65 424.181 323.873C423.933 324.22 423.697 324.568 423.461 324.916C425.15 320.321 427 315.788 429.236 311.467C436.898 296.639 450.894 287.536 463.039 276.409C467.435 272.373 471.695 268.188 474.787 263.146L473.644 268.548H473.632Z" fill="#FFC7CE"/>
<path d="M1110.17 640.906C1107.61 640.93 1105.41 641.241 1102.86 640.843C1100.01 640.396 1097.09 640.185 1094.44 639.006C1090.14 637.106 1086.82 633.243 1084.58 629.207C1080.3 621.557 1079.12 612.666 1078.22 604.097C1078.22 604.01 1078.2 603.923 1078.19 603.836C1081.89 597.838 1084.53 591.008 1085.39 584.476C1086.67 574.851 1087.06 564.32 1085.77 554.671C1084.25 543.321 1079.53 531.858 1070.33 524.606C1067.05 522.023 1063.28 520.52 1059.28 519.763C1056.79 523.401 1054.37 527.09 1051.99 530.79C1056.4 530.877 1060.98 531.312 1064.94 533.125C1073.85 537.198 1079.87 546.636 1082.84 555.652C1084.38 560.322 1085.23 565.202 1085.61 570.095C1085.71 571.374 1085.77 572.653 1085.79 573.932C1085.79 574.069 1085.79 574.218 1085.79 574.355C1085.33 576.441 1083.74 581.632 1083.53 582.166C1081.89 586.475 1079.69 590.958 1076.94 595.044C1075.97 590.499 1074.28 586.152 1070.78 583.06C1063.67 576.813 1050.8 576.789 1045.02 584.724C1042.48 588.239 1042.15 592.225 1041.99 596.335C1041.87 597.987 1041.76 599.875 1041.82 600.732C1041.71 604.78 1041.98 608.381 1044.05 612.169C1046.5 616.627 1050.36 619.608 1055.5 620.129C1061.14 620.701 1066.06 617.633 1070.03 613.92C1072.32 611.784 1074.44 609.3 1076.35 606.581C1077.38 611.337 1077.61 616.28 1078.24 621.086C1079.2 628.363 1080.91 635.975 1084.91 642.247C1087.18 645.811 1090.39 649.139 1094.36 650.729C1099.25 652.691 1104.49 652.455 1109.6 652.418C1109.91 652.418 1110.03 640.906 1110.17 640.906ZM1064.76 606.755C1055.76 611.685 1046.54 606.407 1043.38 597.925C1043.54 597.615 1043.72 597.317 1043.9 597.031C1045.08 595.168 1046.69 593.516 1048.55 592.324C1052.11 590.052 1056.53 589.766 1060.61 590.449C1066.48 591.43 1071.01 594.361 1073.75 599.241C1071.14 602.271 1068.15 604.892 1064.74 606.755H1064.76Z" fill="#FFC7CE"/>
<path d="M1085.8 554.733C1084.29 543.383 1079.57 531.92 1070.37 524.668C1067.09 522.085 1063.31 520.582 1059.32 519.825C1056.83 523.463 1054.41 527.152 1052.03 530.852C1056.43 530.939 1061.02 531.374 1064.98 533.187C1073.88 537.26 1079.91 546.698 1082.87 555.714C1084.41 560.384 1085.11 563.488 1085.49 568.381C1085.59 569.66 1085.84 574.429 1085.84 574.429C1086.64 570.977 1085.82 554.733 1085.82 554.733H1085.8ZM1043.42 597.999C1043.42 597.999 1044.2 596.708 1045.3 595.28C1046.39 593.852 1046.44 594.075 1049.05 592.113C1051.65 590.151 1056.87 589.418 1063.99 591.331C1071.16 593.256 1073.8 599.303 1073.8 599.303C1073.8 599.303 1074.69 598.186 1075.58 595.218C1076.49 592.25 1075.36 589.716 1074.14 587.233C1072.93 584.749 1070.82 583.122 1070.82 583.122C1063.71 576.875 1050.83 576.851 1045.06 584.786C1042.56 588.226 1042.44 592.846 1042.43 592.92C1042.3 595.404 1043.41 597.987 1043.41 597.987L1043.42 597.999Z" fill="#FFC7CE"/>
<path d="M-6.95396 757.727C-6.95396 757.727 -1.67607 736.28 -31.0584 713.07C-63.0734 687.773 -74.0514 671.629 -70.7853 650.505C-70.7853 650.505 -70.1147 671.877 -29.593 701.185C8.90455 729.028 -6.95396 757.727 -6.95396 757.727Z" fill="#F5BB4C"/>
<path d="M972.063 346.698C971.852 349.653 971.715 352.621 971.914 355.627C971.976 356.484 972.063 357.34 972.162 358.197C974.435 363.339 977.627 367.834 980.942 372.193C990.082 384.251 1000.7 394.671 1006.29 409.573C1007.92 413.919 1009.24 418.402 1010.45 422.923C1010.28 422.563 1010.1 422.203 1009.91 421.842C1008.76 419.557 1007.47 417.223 1006.04 414.975C1004.85 412.74 1003.52 410.591 1002.03 408.53C994.218 397.688 984.308 388.387 977.763 376.391C975.54 372.33 974.149 367.896 972.92 363.401C972.547 362.979 970.039 353.789 970.411 353.963C969.207 349.343 968.164 344.686 967.965 339.93C967.431 327.288 970.188 315.229 976.087 305.356C981.936 295.583 989.896 287.908 998.366 281.376C1006.5 275.105 1016.43 269.517 1020.71 258.551C1021.41 256.725 1021.91 254.751 1022.15 252.702C1018.94 247.66 1014.67 244.307 1010.3 240.817C1005.73 237.166 1000.92 232.633 996.975 228.051C993.125 223.568 991.126 218.228 989.524 212.404C989.486 212.255 989.437 212.106 989.399 211.969C989.176 212.217 987.363 205.549 987.127 203.723C985.873 198.942 984.829 194.111 984.556 189.231C984.171 182.537 985.736 176.377 988.791 171.1C991.933 165.635 996.18 161.264 1001.87 159.799C1005 158.991 1008.33 158.681 1011.58 158.569C1014.47 158.47 1017.75 157.725 1020.48 159.513C1021.32 160.059 1022.2 165.698 1022.48 166.803C1022.94 168.529 1023.4 170.243 1023.84 171.969C1023.92 172.292 1024.18 173.993 1024.36 174.117C1021.91 172.515 1019.68 173.149 1017.12 173.149C1014.19 173.149 1011.23 173.409 1008.36 173.881C1002.72 174.8 998.453 177.545 994.839 182.413C991.747 186.573 989.412 191.677 988.629 197.34C988.257 200.047 988.319 202.829 988.567 205.611C988.605 205.996 988.642 206.381 988.692 206.766C991.461 212.615 996.006 216.564 1000.39 220.662C1002.53 222.661 1004.59 224.822 1006.86 226.586C1009.36 228.51 1011.78 230.348 1014 232.745C1017.73 236.769 1020.47 241.314 1022.05 246.865C1022.12 247.138 1022.21 247.412 1022.28 247.685C1022.77 247.262 1024.84 255.148 1025.18 257.719C1025.86 260.65 1026.28 263.58 1026.08 266.35C1025.21 278.445 1015.38 286.53 1007.44 292.131C998.751 298.278 990.393 305.294 983.737 314.285C976.882 323.55 972.908 333.994 972.026 346.71L972.063 346.698Z" fill="#F5BB4C"/>
<path d="M1022.32 247.672C1022.23 247.399 1022.16 247.126 1022.08 246.853C1020.5 241.302 1017.76 236.757 1014.04 232.733C1011.81 230.336 1009.39 228.498 1006.9 226.573C1004.61 224.81 1002.56 222.649 1000.43 220.65C996.043 216.552 991.498 212.59 988.729 206.753L987.151 203.736C987.387 205.549 989.2 212.23 989.424 211.981C989.461 212.131 989.511 212.28 989.548 212.416C991.15 218.24 993.15 223.568 996.999 228.064C1000.94 232.646 1005.74 237.179 1010.32 240.83C1014.7 244.319 1018.97 247.672 1022.17 252.714L1022.33 247.685L1022.32 247.672Z" fill="#E2AF54"/>
<path d="M972.92 363.401C974.149 367.884 975.54 372.33 977.763 376.391C984.308 388.387 994.218 397.688 1002.03 408.53C1003.52 410.591 1004.84 412.752 1006.04 414.975C1007.46 417.223 1008.75 419.558 1009.91 421.843C1010.1 422.203 1010.27 422.563 1010.45 422.923C1009.24 418.403 1007.92 413.907 1006.29 409.573C1000.7 394.671 990.082 384.252 980.942 372.193C977.627 367.822 974.435 363.326 972.162 358.198L972.92 363.401Z" fill="#E2AF54"/>
<path d="M53.0525 531.225C59.7461 521.688 62.6024 508.971 63.6579 496.751C64.9992 481.129 60.454 465.407 57.7343 449.933C56.4055 442.395 55.6976 435.13 57.9827 428.039C58.1814 427.406 58.4173 426.785 58.6533 426.164C60.1435 428.362 61.7579 430.473 63.5089 432.51C65.3717 434.671 67.5698 436.819 70.1156 437.825C72.0156 438.583 73.9157 438.334 75.766 437.825C75.9026 437.937 77.6288 437.378 80.9322 436.149C83.4159 435.428 86.1107 434.708 87.9735 432.808C90.184 430.548 90.718 427.17 90.4324 423.817C90.1219 420.141 89.0042 417.148 86.1728 414.851C83.1551 412.404 79.504 411.076 75.9151 410.902C72.2143 410.716 68.7371 412.156 65.2972 413.249C64.4776 413.51 63.658 413.77 62.8632 414.044C58.1938 403.997 55.2258 392.522 53.3754 381.78C52.3819 376.055 52.8166 370.368 53.9218 364.879C54.8408 360.296 55.8963 355.888 58.9141 352.622C59.9945 357.887 62.118 362.929 65.7691 366.766C70.5254 371.759 77.9393 374.863 84.0989 373.634C84.012 373.671 83.9499 373.708 83.8629 373.746C84.1237 373.659 84.3845 373.584 84.6329 373.497C84.844 373.447 85.0551 373.41 85.2538 373.348C88.5199 372.367 92.8912 371.759 95.6233 369.461C98.3678 367.151 98.79 363.19 97.8586 359.501C96.9893 356.074 96.1201 351.628 93.5618 349.12C91.1526 346.76 87.6754 346.214 84.7322 345.493C78.8086 344.04 73.3444 345.133 67.9051 346.76C67.2842 342.165 67.3835 337.483 67.992 333.013C68.4018 329.97 69.1097 327.027 69.9045 324.121C70.662 321.364 71.3078 318.483 73.2202 316.471C72.413 317.328 69.5816 317.564 68.4639 317.912C67.2345 318.297 64.6763 318.471 63.7449 319.464C61.3357 322.01 60.6154 326.207 59.7461 329.722C58.6781 334.019 58.0572 338.464 58.0323 343.022C58.0199 345.27 58.1565 347.592 58.4794 349.902C54.2571 351.554 50.2086 353.839 47.638 357.937C45.7752 360.905 45.0549 364.829 44.3595 368.393C43.5026 372.802 43.0556 377.409 43.5275 382.029C43.9869 386.475 45.2661 390.871 46.272 395.23C47.4269 400.222 48.9171 405.115 50.606 409.958C51.7485 413.224 53.0773 416.329 54.6297 419.309C50.2211 424.388 47.3151 432.299 46.9798 439.378C46.5328 448.84 49.5132 458.837 51.3015 468.164C53.3009 478.62 55.1388 489.238 54.2323 499.732C53.4375 509.046 51.5374 518.98 47.7374 527.152C44.6824 533.709 40.2738 539.111 34.8345 543.122C41.3791 540.055 47.4021 535.87 53.1022 531.2L53.0525 531.225ZM78.436 349.331C80.5348 349.914 82.6956 350.672 84.3224 352.423C86.2473 354.497 86.9427 357.527 87.7003 360.222C88.8055 364.121 89.1532 367.971 87.5016 370.74C83.9871 369.933 80.3857 367.971 77.6909 365.947C72.9843 362.42 70.0411 356.695 68.6378 350.796C68.4018 349.803 68.2031 348.797 68.0417 347.803C71.5065 347.704 74.9216 348.35 78.4485 349.331H78.436ZM64.5893 417.595C64.4155 417.26 64.2416 416.9 64.0678 416.565C64.9495 415.621 65.8933 414.801 66.8992 413.982C67.2966 414.006 67.7064 414.031 68.1162 414.093C69.6189 414.317 71.1091 414.739 72.5496 415.372C75.3562 416.602 78.436 418.663 79.8269 421.805C81.1184 424.724 81.3916 428.685 80.6838 431.666C80.423 432.771 79.9759 433.802 79.3798 434.708C77.1942 433.802 75.2196 432.013 73.5059 430.113C70.1901 426.425 66.9364 422.078 64.5893 417.608V417.595Z" fill="#19A2A5"/>
<path d="M68.0293 347.803C68.0293 347.803 68.8489 347.803 70.1528 347.828C71.4568 347.865 71.4444 347.89 72.0901 348.002C74.0523 348.325 79.3302 349.591 81.5903 350.858C83.8629 352.125 84.844 353.069 86.1355 355.354C87.4271 357.639 88.3833 363.289 88.6192 366.381C88.8552 369.473 87.4892 370.74 87.4892 370.74C87.4892 370.74 88.1598 371.311 89.2526 371.398C90.3454 371.498 92.4069 371.299 93.4997 370.802C94.605 370.318 95.586 369.449 95.586 369.449C98.3305 367.139 98.7528 363.177 97.8214 359.489C96.9521 356.061 96.0828 351.616 93.5246 349.107C91.1154 346.748 87.6382 346.201 84.695 345.481C78.7713 344.028 73.3072 345.121 67.8678 346.748L68.0293 347.791V347.803ZM65.024 413.683C66.4149 413.609 66.5763 413.857 68.1038 414.081C69.6313 414.304 71.9411 415.112 74.7726 416.515C77.604 417.918 77.8275 418.899 79.3923 420.986C80.957 423.072 80.957 426.375 80.9818 429.592C81.0191 432.796 79.355 434.708 79.355 434.708C79.355 434.708 81.2799 435.801 82.174 435.801C83.0682 435.801 84.4839 435.019 85.8002 434.398C87.1166 433.777 87.9238 432.82 87.9238 432.82C90.1343 430.56 90.6683 427.182 90.3827 423.829C90.0722 420.154 88.9545 417.161 86.1231 414.863C83.1054 412.417 79.4544 411.088 75.8654 410.914C72.1647 410.728 68.6875 412.168 65.2475 413.261C64.4279 413.522 63.6083 413.783 62.8135 414.056C62.8135 414.056 63.6083 413.783 65.0116 413.708L65.024 413.683Z" fill="#19A2A5"/>
<path d="M741.91 117.638L770.684 81.7358L799.669 131.36L741.91 117.638Z" fill="#E05F55"/>
</g>
<defs>
<clipPath id="clip0_157_538">
<rect width="1374.11" height="1071" fill="white" transform="translate(-192.226 -111)"/>
</clipPath>
</defs>
</svg>
