<svg width="1080" height="960" viewBox="0 0 1080 960" fill="none" xmlns="http://www.w3.org/2000/svg">
<g clip-path="url(#clip0_158_852)">
<path d="M625.195 872.303L628.386 910.465L556.707 905.498L625.195 872.303Z" fill="#F5BB4C"/>
<path d="M1027.43 663.858L1021.1 675.73L1010.1 663.026L1027.43 663.858Z" fill="#F7D7D0"/>
<path d="M574.652 808.037L597.974 831.223L560.494 848.025L574.652 808.037Z" fill="#F7D7D0"/>
<path d="M135.047 954.737L79.1137 979.984L121.001 924.163L135.047 954.737Z" fill="#A5D8DB"/>
<path d="M910.958 933.017L900.465 960.202L863.47 927.901L910.958 933.017Z" fill="#F5BB4C"/>
<path d="M1034.22 365.44L995.541 388.775L987.941 343.261L1034.22 365.44Z" fill="#E05F55"/>
<path d="M789.505 779.226L784.711 813.439L746.971 792.527L789.505 779.226Z" fill="#FFC7CE"/>
<path d="M19.9766 513.83L11.4077 574.594L-13.3672 509.347L19.9766 513.83Z" fill="#FFC7CE"/>
<path d="M951.008 686.671L905.296 707.298L931.635 644.51L951.008 686.671Z" fill="#A5D8DB"/>
<path d="M1081.8 133.114L1093.35 105.471L1070.9 115.828L1081.8 133.114Z" fill="#19A2A5"/>
<path d="M349.155 865.672L317.302 918.128L320.27 848.41L349.155 865.672Z" fill="#F5BB4C"/>
<path d="M926.755 822.467L907.531 857.376L882.123 823.473L926.755 822.467Z" fill="#A5D8DB"/>
<path d="M932.306 917.482L926.333 956.886L890.766 933.85L932.306 917.482Z" fill="#19A2A5"/>
<path d="M3.13721 154.313L-17.7632 188.24L-41.4951 153.145L3.13721 154.313Z" fill="#F7D7D0"/>
<path d="M579.234 687.851L540.538 711.185L532.95 665.671L579.234 687.851Z" fill="#E05F55"/>
<path d="M963.39 776.271L970.965 820.804L925.823 811.241L963.39 776.271Z" fill="#F5BB4C"/>
<path d="M753.516 756.923L747.543 796.327L711.976 773.29L753.516 756.923Z" fill="#E05F55"/>
<path d="M166.329 458.542L182.97 458.617L175.618 474.711L166.329 458.542Z" fill="#E05F55"/>
<path d="M982.775 891.44L966.507 921.916L938.254 889.304L982.775 891.44Z" fill="#FFC7CE"/>
<path d="M189.85 780.071L169.533 789.223L184.746 768.968L189.85 780.071Z" fill="#FFC7CE"/>
<path d="M480.047 905.858L471.627 916.364L463.158 901.847L480.047 905.858Z" fill="#F7D7D0"/>
<path d="M155.65 925.728L164.728 934.756L150.136 941.301L155.65 925.728Z" fill="#F7D7D0"/>
<path d="M654.85 996.65L639.899 954.005L683.45 978.917L654.85 996.65Z" fill="#A5D8DB"/>
<path d="M179.692 831.695L163.424 862.17L135.171 829.559L179.692 831.695Z" fill="#E05F55"/>
<path d="M14.1773 490.607L32.1345 466.627L7.8314 471.184L14.1773 490.607Z" fill="#19A2A5"/>
<path d="M72.3086 181.845L62.6221 193.928L52.8735 177.237L72.3086 181.845Z" fill="#19A2A5"/>
<path d="M115.997 493.14L77.3132 516.475L69.7131 470.961L115.997 493.14Z" fill="#A5D8DB"/>
<path d="M21.2681 701.486L-8.79728 754.998L-8.17636 685.205L21.2681 701.486Z" fill="#E05F55"/>
<path d="M-3.395 861.971L-22.9915 845.442L5.59595 851.167L-3.395 861.971Z" fill="#FFC7CE"/>
<path d="M17.0708 802.201L3.02542 798.935L13.1341 784.008L17.0708 802.201Z" fill="#F7D7D0"/>
<path d="M835.019 848.658L816.95 854.098L818.577 834.899L835.019 848.658Z" fill="#A5D8DB"/>
<path d="M413.608 908.28L357.662 933.514L399.562 877.693L413.608 908.28Z" fill="#A5D8DB"/>
<path d="M450.466 947.063L442.058 957.569L433.577 943.052L450.466 947.063Z" fill="#19A2A5"/>
<path d="M733.497 821.996L730.989 838.189L716.546 829.708L733.497 821.996Z" fill="#A5D8DB"/>
<path d="M819.844 638.4L817.521 653.75L803.662 644.783L819.844 638.4Z" fill="#19A2A5"/>
<path d="M45.9189 606.832L43.2489 624.491L27.3035 614.159L45.9189 606.832Z" fill="#E05F55"/>
<path d="M828.934 894.346L845.587 894.42L838.235 910.527L828.934 894.346Z" fill="#FFC7CE"/>
<path d="M202.269 811.949L186.336 816.805L188.608 799.257L202.269 811.949Z" fill="#A5D8DB"/>
<path d="M984.091 700.095L969.028 709.186L966.072 691.464L984.091 700.095Z" fill="#E05F55"/>
<path d="M85.646 914.601L70.5823 923.691L67.6267 905.97L85.646 914.601Z" fill="#19A2A5"/>
<path d="M317.302 697.562L314.979 712.911L301.12 703.933L317.302 697.562Z" fill="#19A2A5"/>
<path d="M840.52 913.011L798.931 937.488L788.921 886.672L840.52 913.011Z" fill="#A5D8DB"/>
<path d="M870.486 549.744L858.825 509.545L892.479 543.212L870.486 549.744Z" fill="#FFC7CE"/>
<path d="M1082.53 338.939L1059.26 335.251L1073.99 309.768L1082.53 338.939Z" fill="#F7D7D0"/>
<path d="M981.595 738.705L996.646 724.883H979.782L981.595 738.705Z" fill="#19A2A5"/>
<path d="M97.7539 836.737L83.0131 855.128L68.1729 829.708L97.7539 836.737Z" fill="#19A2A5"/>
<path d="M194.296 723.765L174.65 726.733L181.281 693.898L194.296 723.765Z" fill="#F5BB4C"/>
<path d="M393.415 761.877L388.92 720.263L416.216 759.257L393.415 761.877Z" fill="#FFC7CE"/>
<path d="M805.276 719.816L782.004 716.128L796.72 690.645L805.276 719.816Z" fill="#FFC7CE"/>
<path d="M1066.24 700.729L1032.39 676.115L1079.61 682.076L1066.24 700.729Z" fill="#FFC7CE"/>
<path d="M1021.38 288.284L1000.31 298.815L997.466 269.532L1021.38 288.284Z" fill="#FFC7CE"/>
<path d="M902.576 797.767L879.651 833.781L866.401 779.152L902.576 797.767Z" fill="#F7D7D0"/>
<path d="M550.957 798.537L509.293 794.464L553.031 775.687L550.957 798.537Z" fill="#A5D8DB"/>
<path d="M121.2 895.576L87.3475 870.962L134.575 876.923L121.2 895.576Z" fill="#F5BB4C"/>
<path d="M471.602 849.441L456.861 867.833L442.021 842.424L471.602 849.441Z" fill="#19A2A5"/>
<path d="M97.3567 292.382L68.5705 303.36L68.9803 271.892L97.3567 292.382Z" fill="#F5BB4C"/>
<path d="M509.491 916.004L514.657 946.38L483.872 939.848L509.491 916.004Z" fill="#F5BB4C"/>
<path d="M1107.11 754.985L1103.04 781.859L1078.77 766.149L1107.11 754.985Z" fill="#A5D8DB"/>
<path d="M263.194 736.444L237.823 746.218L239.45 717.357L263.194 736.444Z" fill="#E05F55"/>
<path d="M204.641 586.391L224.436 583.51L209.372 603.603L204.641 586.391Z" fill="#FFC7CE"/>
<path d="M709.939 918.873L707.853 932.583L695.484 924.561L709.939 918.873Z" fill="#19A2A5"/>
<path d="M390.012 569.042L363.623 584.963L358.457 553.917L390.012 569.042Z" fill="#A5D8DB"/>
<path d="M449.671 759.208L425.852 778.754L416.265 748.776L449.671 759.208Z" fill="#F5BB4C"/>
<path d="M40.4797 895.153L13.5811 880.114L37.9712 860.245L40.4797 895.153Z" fill="#A5D8DB"/>
<path d="M235.128 801.964C235.128 801.964 222.3 830.502 240.717 850.757C259.146 871.012 285.374 872.949 284.194 897.339C284.194 897.339 270.633 888.658 258.239 880.499C245.845 872.34 208.726 838.425 235.128 801.964Z" fill="#A5D8DB"/>
<path d="M285.175 702.194C285.175 702.194 292.577 727.155 263.281 757.121C231.353 789.782 221.033 809.838 226.274 834.576C226.274 834.576 225.193 809.192 265.827 771.067C304.436 734.842 285.175 702.182 285.175 702.182V702.194Z" fill="#A5D8DB"/>
<path d="M284.815 978.159C284.815 978.159 287.795 951.658 264.833 944.17C241.859 936.681 244.554 925.703 244.554 925.703C244.554 925.703 238.109 924.933 239.226 935.092C240.344 945.25 246.926 952.552 263.517 958.116C276.085 962.338 274.694 972.186 274.694 972.186L284.827 978.159H284.815Z" fill="#A5D8DB"/>
<path d="M243.473 944.927C243.473 944.927 237.575 933.104 251.632 924.386C265.69 915.669 292.837 914.899 282.89 887.454C282.89 887.454 278.668 900.878 260.909 906.293C243.151 911.707 232.123 928.708 243.473 944.927Z" fill="#A5D8DB"/>
<path d="M1069.61 853.452C1069.61 853.452 1080.56 882.971 1058.39 900.456C1036.22 917.942 1007.49 916.526 1006.2 940.519C1006.2 940.519 1021.86 933.738 1036.2 927.33C1050.54 920.922 1094.48 892.434 1069.61 853.465V853.452Z" fill="#E2AF54"/>
<path d="M1021.63 758.45C1019.07 766.212 1018.23 773.986 1019.07 782.12C1019.12 782.629 1019.19 783.126 1019.25 783.622C1022.75 795.706 1029 809.056 1039.45 819.375C1081.04 860.394 1075.8 886.436 1075.8 886.436C1084.11 862.915 1074.98 842.002 1043.69 806.063C1014.98 773.079 1025.64 749.596 1025.64 749.596L1024.74 750.279C1023.57 752.961 1022.53 755.681 1021.62 758.425L1021.63 758.45Z" fill="#F5BB4C"/>
<path d="M1047.07 990.404C1061.12 975.986 1049.35 959.718 1030.6 952.192C1011.85 944.666 1008.67 931.006 1008.67 931.006C994.957 956.576 1024.41 960.748 1038.78 971.043C1044.01 974.794 1048.68 984.878 1047.21 987.995C1047.21 987.995 1048.07 989.671 1040.11 993.67C1033.38 997.048 1023.87 993.67 1023.87 993.67L1020.53 1003C1020.53 1003 1025.08 1003.74 1033.36 1000.48C1041.64 997.209 1047.05 990.391 1047.05 990.391L1047.07 990.404Z" fill="#F5BB4C"/>
<path d="M604.742 709.074C604.568 705.895 604.481 702.691 604.829 699.536C604.928 698.642 605.064 697.736 605.226 696.854C608.306 691.812 612.565 687.615 616.974 683.591C629.119 672.464 643.115 663.361 650.777 648.533C653.012 644.212 654.85 639.679 656.552 635.084C656.316 635.432 656.08 635.78 655.831 636.127C654.267 638.35 652.528 640.586 650.628 642.722C649.014 644.87 647.25 646.919 645.263 648.844C634.869 658.928 621.817 666.975 613.012 678.524C610.032 682.436 608.095 686.894 606.381 691.452C605.884 691.837 602.37 701.151 602.854 701.039C601.165 705.746 599.675 710.502 599.265 715.532C598.172 728.894 601.351 742.269 608.629 753.88C615.844 765.392 625.841 775.066 636.533 783.61C646.791 791.819 659.408 799.642 664.574 812.123C665.431 814.197 666.015 816.395 666.238 818.618C661.954 823.387 656.353 826.156 650.616 829.049C644.618 832.08 638.284 836.004 633.068 840.152C627.964 844.212 625.232 849.515 622.984 855.414C622.922 855.563 622.873 855.712 622.811 855.861C622.537 855.551 619.992 862.319 619.619 864.219C617.856 869.074 616.365 874.029 615.856 879.171C615.148 886.237 616.974 893.079 620.724 899.289C624.599 905.697 629.914 911.148 637.204 913.781C641.202 915.234 645.474 916.19 649.659 916.923C653.373 917.569 657.583 918.985 661.147 917.594C662.239 917.171 663.543 911.335 663.953 910.205C664.599 908.454 665.245 906.703 665.866 904.952C665.977 904.629 666.375 902.853 666.611 902.766C663.419 904.008 660.563 902.915 657.26 902.443C653.484 901.897 649.697 901.065 646.021 900.021C638.793 897.985 633.379 894.259 628.883 888.398C625.033 883.381 622.19 877.507 621.358 871.335C620.96 868.391 621.134 865.436 621.544 862.517C621.606 862.108 621.668 861.71 621.743 861.313C625.493 855.6 631.466 852.247 637.241 848.696C640.06 846.957 642.767 845.057 645.76 843.604C649.039 842.014 652.205 840.524 655.148 838.376C660.079 834.787 663.742 830.453 665.965 824.84C666.077 824.566 666.189 824.293 666.3 824.02C666.909 824.566 669.84 816.556 670.349 813.874C671.317 810.881 671.963 807.839 671.789 804.846C671.057 791.794 658.651 781.337 648.616 773.874C637.626 765.69 627.095 756.649 618.812 745.82C610.28 734.668 605.499 722.784 604.766 709.086L604.742 709.074Z" fill="#FFC7CE"/>
<path d="M666.276 824.008C666.164 824.281 666.052 824.554 665.94 824.827C663.717 830.44 660.054 834.774 655.124 838.363C652.193 840.499 649.014 842.002 645.735 843.592C642.742 845.045 640.035 846.957 637.216 848.683C631.454 852.222 625.468 855.588 621.718 861.3L619.594 864.219C619.954 862.331 622.5 855.551 622.786 855.861C622.848 855.712 622.898 855.563 622.96 855.414C625.207 849.503 627.94 844.2 633.044 840.152C638.259 836.004 644.593 832.08 650.591 829.049C656.328 826.156 661.929 823.387 666.214 818.618L666.263 824.008H666.276Z" fill="#FFC7CE"/>
<path d="M606.369 691.452C608.095 686.907 610.02 682.436 613 678.524C621.805 666.975 634.857 658.928 645.251 648.844C647.226 646.919 649.002 644.87 650.616 642.722C652.516 640.598 654.255 638.35 655.819 636.127C656.068 635.78 656.304 635.432 656.54 635.084C654.851 639.679 653 644.212 650.765 648.533C643.103 663.361 629.107 672.464 616.962 683.591C612.565 687.627 608.306 691.812 605.214 696.854L606.356 691.452H606.369Z" fill="#FFC7CE"/>
<path d="M-30.1695 319.094C-27.6113 319.07 -25.4132 318.759 -22.8549 319.157C-20.0111 319.604 -17.0927 319.815 -14.4351 320.994C-10.1383 322.894 -6.82263 326.757 -4.57487 330.793C-0.302887 338.443 0.876873 347.334 1.78342 355.903C1.78342 355.99 1.79587 356.077 1.80829 356.164C-1.89244 362.162 -4.52524 368.992 -5.39454 375.524C-6.67365 385.149 -7.05853 395.68 -5.767 405.329C-4.25194 416.679 0.467106 428.142 9.66925 435.394C12.9478 437.977 16.7229 439.48 20.7217 440.237C23.2054 436.599 25.627 432.91 28.0114 429.21C23.6028 429.123 19.0204 428.688 15.0589 426.875C6.15476 422.802 0.131794 413.364 -2.83624 404.348C-4.37614 399.678 -5.233 394.798 -5.60555 389.905C-5.7049 388.626 -5.76702 387.347 -5.79186 386.068C-5.79186 385.931 -5.79186 385.782 -5.79186 385.645C-5.33237 383.559 -3.74287 378.368 -3.53175 377.834C-1.8925 373.525 0.305653 369.042 3.06257 364.956C4.03122 369.501 5.7201 373.848 9.22213 376.94C16.3255 383.187 29.2036 383.211 34.9783 375.276C37.5241 371.761 37.847 367.775 38.0084 363.665C38.1326 362.013 38.2443 360.125 38.1822 359.268C38.294 355.22 38.0208 351.619 35.9469 347.831C33.5004 343.373 29.6383 340.392 24.497 339.871C18.859 339.299 13.9412 342.367 9.96729 346.08C7.68227 348.216 5.55867 350.7 3.64621 353.419C2.61547 348.663 2.39199 343.72 1.75864 338.914C0.80241 331.637 -0.911419 324.025 -4.91019 317.753C-7.18279 314.189 -10.3868 310.861 -14.3607 309.271C-19.2536 307.309 -24.4943 307.545 -29.5983 307.582C-29.9088 307.582 -30.0329 319.094 -30.1695 319.094ZM15.2452 353.245C24.2362 348.315 33.4632 353.593 36.6175 362.075C36.4561 362.385 36.2822 362.683 36.0959 362.969C34.9161 364.832 33.3142 366.484 31.4514 367.676C27.8872 369.948 23.4662 370.234 19.3929 369.551C13.519 368.57 8.98623 365.639 6.25415 360.759C8.86205 357.729 11.8549 355.108 15.2576 353.245H15.2452Z" fill="#FFC7CE"/>
<path d="M-5.80424 405.267C-4.28918 416.617 0.429863 428.08 9.63201 435.332C12.9105 437.915 16.6858 439.418 20.6846 440.175C23.1683 436.537 25.5899 432.848 27.9742 429.148C23.5657 429.061 18.9832 428.626 15.0217 426.813C6.11759 422.74 0.0945511 413.302 -2.87349 404.286C-4.41339 399.616 -5.10881 396.512 -5.49378 391.619C-5.59313 390.34 -5.84154 385.571 -5.84154 385.571C-6.63633 389.023 -5.81668 405.267 -5.81668 405.267H-5.80424ZM36.5803 362.001C36.5803 362.001 35.7979 363.292 34.7051 364.72C33.6122 366.148 33.5625 365.925 30.9547 367.887C28.3468 369.849 23.131 370.582 16.0152 368.669C8.83724 366.744 6.20448 360.697 6.20448 360.697C6.20448 360.697 5.31034 361.814 4.4162 364.782C3.50965 367.75 4.63978 370.284 5.8568 372.767C7.07382 375.251 9.18496 376.878 9.18496 376.878C16.2884 383.125 29.1664 383.149 34.941 375.214C37.4372 371.774 37.5613 367.154 37.5738 367.08C37.6979 364.596 36.5927 362.013 36.5927 362.013L36.5803 362.001Z" fill="#FFC7CE"/>
<path d="M1086.95 202.273C1086.95 202.273 1081.68 223.72 1111.06 246.93C1143.07 272.227 1154.05 288.371 1150.79 309.495C1150.79 309.495 1150.11 288.123 1109.59 258.815C1071.1 230.973 1086.95 202.273 1086.95 202.273Z" fill="#F5BB4C"/>
<path d="M107.937 613.302C108.149 610.346 108.285 607.378 108.086 604.373C108.024 603.516 107.937 602.659 107.838 601.802C105.565 596.661 102.374 592.166 99.0581 587.807C89.9181 575.748 79.3002 565.329 73.7119 550.427C72.085 546.08 70.7562 541.597 69.5516 537.077C69.7255 537.437 69.8993 537.797 70.0856 538.157C71.2405 540.442 72.5321 542.777 73.9602 545.025C75.1524 547.26 76.4812 549.409 77.9714 551.47C85.7827 562.311 95.6927 571.613 102.237 583.609C104.46 587.67 105.851 592.104 107.081 596.599C107.453 597.021 109.962 606.211 109.589 606.037C110.794 610.657 111.837 615.314 112.036 620.07C112.57 632.712 109.813 644.771 103.914 654.643C98.0646 664.417 90.1044 672.091 81.6349 678.624C73.5008 684.895 63.5659 690.483 59.2939 701.449C58.586 703.274 58.0893 705.249 57.8534 707.298C61.0573 712.34 65.3293 715.693 69.7006 719.182C74.2707 722.834 79.0767 727.366 83.0258 731.949C86.8755 736.432 88.8749 741.772 90.4769 747.596C90.5142 747.745 90.5638 747.894 90.6011 748.031C90.8246 747.782 92.6377 754.451 92.8737 756.277C94.128 761.058 95.1711 765.889 95.4443 770.769C95.8293 777.463 94.2645 783.622 91.2096 788.9C88.0677 794.364 83.8206 798.736 78.1329 800.201C75.0034 801.008 71.6752 801.319 68.4216 801.43C65.528 801.53 62.2495 802.275 59.5174 800.487C58.6854 799.94 57.8037 794.302 57.518 793.197C57.0585 791.471 56.5991 789.757 56.1645 788.031C56.0775 787.708 55.8167 786.007 55.6428 785.882C58.0893 787.484 60.3246 786.851 62.8829 786.851C65.8136 786.851 68.7692 786.59 71.6379 786.118C77.2759 785.199 81.548 782.455 85.1618 777.587C88.254 773.427 90.5887 768.323 91.371 762.66C91.7436 759.953 91.6815 757.171 91.4331 754.389C91.3958 754.004 91.3586 753.619 91.309 753.234C88.5396 747.385 83.9944 743.436 79.6107 739.338C77.4747 737.338 75.4132 735.178 73.1406 733.414C70.6445 731.489 68.2228 729.651 65.9999 727.255C62.2744 723.231 59.5299 718.686 57.9527 713.135C57.8782 712.861 57.7913 712.588 57.7168 712.315C57.2324 712.737 55.1585 704.851 54.8232 702.281C54.1402 699.35 53.718 696.419 53.9167 693.65C54.786 681.554 64.6214 673.47 72.5569 667.869C81.2499 661.722 89.6076 654.705 96.2639 645.714C103.119 636.45 107.093 626.006 107.975 613.29L107.937 613.302Z" fill="#F5BB4C"/>
<path d="M57.6793 712.328C57.7662 712.601 57.8407 712.874 57.9152 713.147C59.5048 718.699 62.2369 723.244 65.9624 727.267C68.1854 729.664 70.607 731.502 73.1031 733.427C75.3881 735.19 77.4372 737.351 79.5732 739.351C83.9569 743.449 88.5021 747.41 91.2715 753.247L92.8486 756.265C92.6127 754.452 90.7996 747.77 90.576 748.019C90.5388 747.87 90.4891 747.721 90.4519 747.584C88.8499 741.76 86.8505 736.432 83.0007 731.937C79.064 727.354 74.2581 722.822 69.6756 719.17C65.3043 715.681 61.0323 712.328 57.8283 707.286L57.6668 712.315L57.6793 712.328Z" fill="#E2AF54"/>
<path d="M107.08 596.599C105.851 592.116 104.46 587.67 102.237 583.61C95.6925 571.613 85.7826 562.312 77.9713 551.47C76.4811 549.409 75.1646 547.248 73.96 545.025C72.5443 542.777 71.2528 540.443 70.0855 538.158C69.8992 537.798 69.7253 537.437 69.5515 537.077C70.7561 541.598 72.0849 546.093 73.7117 550.427C79.3001 565.329 89.9179 575.749 99.058 587.807C102.374 592.178 105.565 596.674 107.838 601.803L107.08 596.599Z" fill="#E2AF54"/>
<path d="M1026.95 428.775C1020.25 438.312 1017.4 451.029 1016.34 463.249C1015 478.871 1019.55 494.593 1022.27 510.067C1023.59 517.605 1024.3 524.87 1022.02 531.961C1021.82 532.594 1021.58 533.215 1021.35 533.836C1019.86 531.638 1018.24 529.527 1016.49 527.49C1014.63 525.329 1012.43 523.181 1009.88 522.175C1007.98 521.417 1006.08 521.666 1004.23 522.175C1004.1 522.063 1002.37 522.622 999.068 523.851C996.584 524.572 993.89 525.292 992.027 527.192C989.816 529.452 989.282 532.83 989.568 536.183C989.878 539.859 990.996 542.852 993.827 545.149C996.845 547.596 1000.5 548.924 1004.09 549.098C1007.79 549.284 1011.26 547.844 1014.7 546.751C1015.52 546.49 1016.34 546.23 1017.14 545.956C1021.81 556.003 1024.77 567.478 1026.62 578.22C1027.62 583.945 1027.18 589.632 1026.08 595.121C1025.16 599.704 1024.1 604.112 1021.09 607.378C1020.01 602.113 1017.88 597.071 1014.23 593.234C1009.47 588.241 1002.06 585.137 995.901 586.366C995.988 586.329 996.05 586.292 996.137 586.254C995.877 586.341 995.616 586.416 995.367 586.503C995.156 586.553 994.945 586.59 994.746 586.652C991.48 587.633 987.109 588.241 984.377 590.539C981.632 592.849 981.21 596.81 982.142 600.499C983.011 603.926 983.88 608.372 986.438 610.88C988.848 613.24 992.325 613.786 995.268 614.507C1001.19 615.96 1006.66 614.867 1012.1 613.24C1012.72 617.835 1012.62 622.517 1012.01 626.987C1011.6 630.03 1010.89 632.973 1010.1 635.879C1009.34 638.636 1008.69 641.517 1006.78 643.529C1007.59 642.672 1010.42 642.436 1011.54 642.088C1012.77 641.703 1015.32 641.529 1016.26 640.536C1018.66 637.99 1019.38 633.793 1020.25 630.278C1021.32 625.981 1021.94 621.536 1021.97 616.978C1021.98 614.73 1021.84 612.408 1021.52 610.098C1025.74 608.446 1029.79 606.161 1032.36 602.063C1034.23 599.095 1034.95 595.171 1035.64 591.607C1036.5 587.198 1036.94 582.591 1036.47 577.971C1036.01 573.525 1034.73 569.129 1033.73 564.77C1032.57 559.778 1031.08 554.885 1029.39 550.042C1028.25 546.776 1026.92 543.671 1025.37 540.691C1029.78 535.612 1032.69 527.701 1033.02 520.622C1033.47 511.16 1030.49 501.163 1028.7 491.836C1026.7 481.38 1024.86 470.762 1025.77 460.268C1026.56 450.954 1028.46 441.02 1032.26 432.848C1035.32 426.291 1039.73 420.889 1045.17 416.878C1038.62 419.945 1032.6 424.13 1026.9 428.8L1026.95 428.775ZM1001.56 610.669C999.465 610.086 997.305 609.328 995.678 607.577C993.753 605.503 993.057 602.473 992.3 599.778C991.195 595.879 990.847 592.029 992.499 589.26C996.013 590.067 999.614 592.029 1002.31 594.053C1007.02 597.58 1009.96 603.305 1011.36 609.204C1011.6 610.197 1011.8 611.203 1011.96 612.197C1008.49 612.296 1005.08 611.65 1001.55 610.669H1001.56ZM1015.41 542.405C1015.58 542.74 1015.76 543.1 1015.93 543.435C1015.05 544.379 1014.11 545.199 1013.1 546.018C1012.7 545.994 1012.29 545.969 1011.88 545.907C1010.38 545.683 1008.89 545.261 1007.45 544.628C1004.64 543.398 1001.56 541.337 1000.17 538.195C998.882 535.276 998.609 531.315 999.316 528.334C999.577 527.229 1000.02 526.198 1000.62 525.292C1002.81 526.198 1004.78 527.987 1006.49 529.887C1009.81 533.575 1013.06 537.922 1015.41 542.392V542.405Z" fill="#19A2A5"/>
<path d="M1011.97 612.197C1011.97 612.197 1011.15 612.197 1009.85 612.172C1008.54 612.135 1008.56 612.11 1007.91 611.998C1005.95 611.675 1000.67 610.409 998.41 609.142C996.137 607.875 995.156 606.931 993.865 604.646C992.573 602.361 991.617 596.711 991.381 593.619C991.145 590.527 992.511 589.26 992.511 589.26C992.511 589.26 991.84 588.689 990.748 588.602C989.655 588.502 987.593 588.701 986.501 589.198C985.395 589.682 984.414 590.551 984.414 590.551C981.67 592.861 981.247 596.823 982.179 600.511C983.048 603.939 983.917 608.384 986.476 610.893C988.885 613.252 992.362 613.799 995.305 614.519C1001.23 615.972 1006.69 614.879 1012.13 613.252L1011.97 612.209V612.197ZM1014.98 546.317C1013.59 546.391 1013.42 546.143 1011.9 545.919C1010.37 545.696 1008.06 544.888 1005.23 543.485C1002.4 542.082 1002.17 541.101 1000.61 539.014C999.043 536.928 999.043 533.625 999.018 530.408C998.981 527.204 1000.65 525.292 1000.65 525.292C1000.65 525.292 998.72 524.199 997.826 524.199C996.932 524.199 995.516 524.981 994.2 525.602C992.884 526.223 992.076 527.18 992.076 527.18C989.866 529.44 989.332 532.818 989.618 536.171C989.928 539.846 991.046 542.839 993.877 545.137C996.895 547.583 1000.55 548.912 1004.13 549.086C1007.84 549.272 1011.31 547.832 1014.75 546.739C1015.57 546.478 1016.39 546.217 1017.19 545.944C1017.19 545.944 1016.39 546.217 1014.99 546.292L1014.98 546.317Z" fill="#19A2A5"/>
<path d="M338.09 842.362L309.317 878.264L280.332 828.64L338.09 842.362Z" fill="#E05F55"/>
</g>
<defs>
<clipPath id="clip0_158_852">
<rect width="1374.11" height="1071" fill="white" transform="matrix(-1 0 0 -1 1272.23 1071)"/>
</clipPath>
</defs>
</svg>
