<svg width="268" height="41" viewBox="0 0 268 41" fill="none" xmlns="http://www.w3.org/2000/svg">
<path d="M10.1716 11.0617C9.97509 10.2752 10.0242 9.48861 10.1225 9.04617C10.3682 7.81718 11.2036 6.48987 13.6113 6.48987C15.8717 6.48987 17.1493 7.86634 17.1493 9.98021C17.1493 10.6684 17.1493 12.3399 17.1493 12.3399H26.6821V9.63609C26.6821 1.3281 19.164 0.000782463 13.7587 0.000782463C7.02679 -0.0483773 1.47415 2.21297 0.442244 8.45626C0.147414 10.1768 0.098276 11.7008 0.540522 13.618C2.21123 21.4344 15.8226 23.6958 17.7881 28.6609C18.1812 29.5949 18.0338 30.7748 17.8864 31.5122C17.5915 32.7903 16.7071 34.1176 14.1519 34.1176C11.7441 34.1176 10.3191 32.7412 10.3191 30.6273V26.9403H0V29.8899C0 38.4437 6.73196 41 13.9062 41C20.8347 41 26.4856 38.6403 27.4192 32.2496C27.8615 28.9559 27.5175 26.7928 27.3701 26.0063C25.7977 17.8949 11.2527 15.5353 10.1716 11.0617ZM134.639 11.16C134.492 10.4226 134.541 9.58693 134.59 9.19365C134.885 7.96466 135.671 6.63735 138.079 6.63735C140.29 6.63735 141.568 8.01382 141.568 10.0785C141.568 10.7668 141.568 12.4382 141.568 12.4382H151.002V9.78357C151.002 1.52473 143.632 0.246581 138.275 0.246581C131.543 0.246581 126.04 2.45877 125.008 8.6529C124.762 10.3243 124.664 11.8483 125.106 13.7655C126.728 21.4344 140.192 23.6958 142.157 28.6117C142.501 29.5458 142.403 30.7256 142.207 31.4139C141.912 32.692 141.076 33.9702 138.521 33.9702C136.162 33.9702 134.688 32.5937 134.688 30.529V26.842H124.517V29.7424C124.517 38.1979 131.15 40.7542 138.275 40.7542C145.106 40.7542 150.757 38.3945 151.641 32.1021C152.083 28.8084 151.739 26.6945 151.592 25.908C150.069 17.9441 135.72 15.5844 134.639 11.16ZM221.516 32.0038L212.524 1.18062H198.323V39.0828H207.708L207.167 7.27642L216.848 39.0828H230.459V1.18062H221.024L221.516 32.0038ZM40.9814 1.18062L33.9055 39.476H44.2246L49.5806 4.03188L54.7893 39.476H65.0592L57.9833 1.18062H40.9814ZM98.7682 1.18062L93.9526 31.1189L89.1371 1.18062H73.511L72.6757 39.476H82.2577L82.5034 4.03188L89.0879 39.476H98.7682L105.402 4.03188L105.648 39.476H115.23L114.394 1.18062H98.7682ZM187.709 1.18062H178.028V29.4966C178.028 29.9882 178.028 30.529 177.93 30.9714C177.734 31.9055 176.947 33.7735 174.245 33.7735C171.591 33.7735 170.805 31.9546 170.608 30.9714C170.51 30.5781 170.51 29.9882 170.51 29.4966V1.18062H160.83V28.6117C160.83 29.3 160.879 30.7748 160.928 31.1189C161.616 38.2471 167.218 40.6067 174.245 40.6067C181.272 40.6067 186.922 38.2962 187.61 31.1189C187.66 30.7256 187.758 29.3 187.709 28.6117V1.18062ZM254.144 17.9932V23.5975H258.075V29.1033C258.075 29.5949 258.075 30.1357 257.977 30.5781C257.829 31.6105 256.846 33.3802 254.046 33.3802C251.294 33.3802 250.311 31.6105 250.164 30.5781C250.114 30.1357 250.065 29.5949 250.065 29.1033V11.6025C250.065 10.9634 250.114 10.3243 250.262 9.78357C250.458 8.84953 251.294 7.03062 254.046 7.03062C256.994 7.03062 257.682 8.94785 257.878 9.78357C257.977 10.3243 257.977 11.2584 257.977 11.2584V13.3722H267.608V12.0941C267.608 12.0941 267.657 10.7668 267.559 9.53777C266.821 2.36045 260.925 0.0991023 254.144 0.0991023C247.363 0.0991023 241.564 2.40961 240.729 9.53777C240.631 10.1768 240.532 11.3567 240.532 12.0941V28.1693C240.532 28.8575 240.532 29.3983 240.68 30.6765C241.319 37.6571 247.363 40.1151 254.144 40.1151C260.974 40.1151 266.969 37.6571 267.608 30.6765C267.706 29.3983 267.755 28.8575 267.755 28.1693V17.9932H254.144Z" fill="white"/>
</svg>
